# Time Sorter editable base mesh; metres, Y-up
mtllib palette.mtl
g swivel_base
usemtl cream
v -0.360000 0.000000 -0.230000
v -0.360000 0.110000 -0.230000
v 0.360000 0.110000 -0.230000
v 0.360000 0.000000 -0.230000
vt 0.000000 0.000000
vt 0.000000 1.000000
vt 1.000000 1.000000
vt 1.000000 0.000000
f 1/1 2/2 3/3 4/4
v -0.360000 0.000000 0.270000
v 0.360000 0.000000 0.270000
v 0.360000 0.110000 0.270000
v -0.360000 0.110000 0.270000
vt 0.000000 0.000000
vt 1.000000 0.000000
vt 1.000000 1.000000
vt 0.000000 1.000000
f 5/5 6/6 7/7 8/8
v -0.360000 0.000000 -0.230000
v -0.360000 0.000000 0.270000
v -0.360000 0.110000 0.270000
v -0.360000 0.110000 -0.230000
vt 0.000000 0.000000
vt 1.000000 0.000000
vt 1.000000 1.000000
vt 0.000000 1.000000
f 9/9 10/10 11/11 12/12
v 0.360000 0.000000 -0.230000
v 0.360000 0.110000 -0.230000
v 0.360000 0.110000 0.270000
v 0.360000 0.000000 0.270000
vt 0.000000 0.000000
vt 0.000000 1.000000
vt 1.000000 1.000000
vt 1.000000 0.000000
f 13/13 14/14 15/15 16/16
v -0.360000 0.000000 -0.230000
v 0.360000 0.000000 -0.230000
v 0.360000 0.000000 0.270000
v -0.360000 0.000000 0.270000
vt 0.000000 0.000000
vt 1.000000 0.000000
vt 1.000000 1.000000
vt 0.000000 1.000000
f 17/17 18/18 19/19 20/20
v -0.360000 0.110000 -0.230000
v -0.360000 0.110000 0.270000
v 0.360000 0.110000 0.270000
v 0.360000 0.110000 -0.230000
vt 0.000000 0.000000
vt 0.000000 1.000000
vt 1.000000 1.000000
vt 1.000000 0.000000
f 21/21 22/22 23/23 24/24
g swivel
usemtl metal
v 0.170000 0.080000 0.060000
v 0.157060 0.080000 0.125056
v 0.120208 0.080000 0.180208
v 0.065056 0.080000 0.217060
v 0.000000 0.080000 0.230000
v -0.065056 0.080000 0.217060
v -0.120208 0.080000 0.180208
v -0.157060 0.080000 0.125056
v -0.170000 0.080000 0.060000
v -0.157060 0.080000 -0.005056
v -0.120208 0.080000 -0.060208
v -0.065056 0.080000 -0.097060
v -0.000000 0.080000 -0.110000
v 0.065056 0.080000 -0.097060
v 0.120208 0.080000 -0.060208
v 0.157060 0.080000 -0.005056
vt 1.000000 0.500000
vt 0.961940 0.691342
vt 0.853553 0.853553
vt 0.691342 0.961940
vt 0.500000 1.000000
vt 0.308658 0.961940
vt 0.146447 0.853553
vt 0.038060 0.691342
vt 0.000000 0.500000
vt 0.038060 0.308658
vt 0.146447 0.146447
vt 0.308658 0.038060
vt 0.500000 0.000000
vt 0.691342 0.038060
vt 0.853553 0.146447
vt 0.961940 0.308658
f 25/25 26/26 27/27 28/28 29/29 30/30 31/31 32/32 33/33 34/34 35/35 36/36 37/37 38/38 39/39 40/40
v 0.157060 0.200000 -0.005056
v 0.120208 0.200000 -0.060208
v 0.065056 0.200000 -0.097060
v -0.000000 0.200000 -0.110000
v -0.065056 0.200000 -0.097060
v -0.120208 0.200000 -0.060208
v -0.157060 0.200000 -0.005056
v -0.170000 0.200000 0.060000
v -0.157060 0.200000 0.125056
v -0.120208 0.200000 0.180208
v -0.065056 0.200000 0.217060
v 0.000000 0.200000 0.230000
v 0.065056 0.200000 0.217060
v 0.120208 0.200000 0.180208
v 0.157060 0.200000 0.125056
v 0.170000 0.200000 0.060000
vt 0.961940 0.308658
vt 0.853553 0.146447
vt 0.691342 0.038060
vt 0.500000 0.000000
vt 0.308658 0.038060
vt 0.146447 0.146447
vt 0.038060 0.308658
vt 0.000000 0.500000
vt 0.038060 0.691342
vt 0.146447 0.853553
vt 0.308658 0.961940
vt 0.500000 1.000000
vt 0.691342 0.961940
vt 0.853553 0.853553
vt 0.961940 0.691342
vt 1.000000 0.500000
f 41/41 42/42 43/43 44/44 45/45 46/46 47/47 48/48 49/49 50/50 51/51 52/52 53/53 54/54 55/55 56/56
v 0.170000 0.080000 0.060000
v 0.170000 0.200000 0.060000
v 0.157060 0.200000 0.125056
v 0.157060 0.080000 0.125056
vt 0.000000 0.000000
vt 0.000000 1.000000
vt 1.000000 1.000000
vt 1.000000 0.000000
f 57/57 58/58 59/59 60/60
v 0.157060 0.080000 0.125056
v 0.157060 0.200000 0.125056
v 0.120208 0.200000 0.180208
v 0.120208 0.080000 0.180208
vt 0.000000 0.000000
vt 0.000000 1.000000
vt 1.000000 1.000000
vt 1.000000 0.000000
f 61/61 62/62 63/63 64/64
v 0.120208 0.080000 0.180208
v 0.120208 0.200000 0.180208
v 0.065056 0.200000 0.217060
v 0.065056 0.080000 0.217060
vt 1.000000 0.000000
vt 1.000000 1.000000
vt 0.000000 1.000000
vt 0.000000 0.000000
f 65/65 66/66 67/67 68/68
v 0.065056 0.080000 0.217060
v 0.065056 0.200000 0.217060
v 0.000000 0.200000 0.230000
v 0.000000 0.080000 0.230000
vt 1.000000 0.000000
vt 1.000000 1.000000
vt 0.000000 1.000000
vt 0.000000 0.000000
f 69/69 70/70 71/71 72/72
v 0.000000 0.080000 0.230000
v 0.000000 0.200000 0.230000
v -0.065056 0.200000 0.217060
v -0.065056 0.080000 0.217060
vt 1.000000 0.000000
vt 1.000000 1.000000
vt 0.000000 1.000000
vt 0.000000 0.000000
f 73/73 74/74 75/75 76/76
v -0.065056 0.080000 0.217060
v -0.065056 0.200000 0.217060
v -0.120208 0.200000 0.180208
v -0.120208 0.080000 0.180208
vt 1.000000 0.000000
vt 1.000000 1.000000
vt 0.000000 1.000000
vt 0.000000 0.000000
f 77/77 78/78 79/79 80/80
v -0.120208 0.080000 0.180208
v -0.120208 0.200000 0.180208
v -0.157060 0.200000 0.125056
v -0.157060 0.080000 0.125056
vt 1.000000 0.000000
vt 1.000000 1.000000
vt 0.000000 1.000000
vt 0.000000 0.000000
f 81/81 82/82 83/83 84/84
v -0.157060 0.080000 0.125056
v -0.157060 0.200000 0.125056
v -0.170000 0.200000 0.060000
v -0.170000 0.080000 0.060000
vt 1.000000 0.000000
vt 1.000000 1.000000
vt 0.000000 1.000000
vt 0.000000 0.000000
f 85/85 86/86 87/87 88/88
v -0.170000 0.080000 0.060000
v -0.170000 0.200000 0.060000
v -0.157060 0.200000 -0.005056
v -0.157060 0.080000 -0.005056
vt 1.000000 0.000000
vt 1.000000 1.000000
vt 0.000000 1.000000
vt 0.000000 0.000000
f 89/89 90/90 91/91 92/92
v -0.157060 0.080000 -0.005056
v -0.157060 0.200000 -0.005056
v -0.120208 0.200000 -0.060208
v -0.120208 0.080000 -0.060208
vt 1.000000 0.000000
vt 1.000000 1.000000
vt 0.000000 1.000000
vt 0.000000 0.000000
f 93/93 94/94 95/95 96/96
v -0.120208 0.080000 -0.060208
v -0.120208 0.200000 -0.060208
v -0.065056 0.200000 -0.097060
v -0.065056 0.080000 -0.097060
vt 0.000000 0.000000
vt 0.000000 1.000000
vt 1.000000 1.000000
vt 1.000000 0.000000
f 97/97 98/98 99/99 100/100
v -0.065056 0.080000 -0.097060
v -0.065056 0.200000 -0.097060
v -0.000000 0.200000 -0.110000
v -0.000000 0.080000 -0.110000
vt 0.000000 0.000000
vt 0.000000 1.000000
vt 1.000000 1.000000
vt 1.000000 0.000000
f 101/101 102/102 103/103 104/104
v -0.000000 0.080000 -0.110000
v -0.000000 0.200000 -0.110000
v 0.065056 0.200000 -0.097060
v 0.065056 0.080000 -0.097060
vt 0.000000 0.000000
vt 0.000000 1.000000
vt 1.000000 1.000000
vt 1.000000 0.000000
f 105/105 106/106 107/107 108/108
v 0.065056 0.080000 -0.097060
v 0.065056 0.200000 -0.097060
v 0.120208 0.200000 -0.060208
v 0.120208 0.080000 -0.060208
vt 0.000000 0.000000
vt 0.000000 1.000000
vt 1.000000 1.000000
vt 1.000000 0.000000
f 109/109 110/110 111/111 112/112
v 0.120208 0.080000 -0.060208
v 0.120208 0.200000 -0.060208
v 0.157060 0.200000 -0.005056
v 0.157060 0.080000 -0.005056
vt 0.000000 0.000000
vt 0.000000 1.000000
vt 1.000000 1.000000
vt 1.000000 0.000000
f 113/113 114/114 115/115 116/116
v 0.157060 0.080000 -0.005056
v 0.157060 0.200000 -0.005056
v 0.170000 0.200000 0.060000
v 0.170000 0.080000 0.060000
vt 0.000000 0.000000
vt 0.000000 1.000000
vt 1.000000 1.000000
vt 1.000000 0.000000
f 117/117 118/118 119/119 120/120
g tube_casing
usemtl cream_light
v -0.450000 0.225000 -0.310000
v -0.450000 0.975000 -0.310000
v 0.450000 0.975000 -0.310000
v 0.450000 0.225000 -0.310000
vt 0.000000 0.000000
vt 0.000000 1.000000
vt 1.000000 1.000000
vt 1.000000 0.000000
f 121/121 122/122 123/123 124/124
v -0.275000 0.335000 0.390000
v 0.275000 0.335000 0.390000
v 0.275000 0.865000 0.390000
v -0.275000 0.865000 0.390000
vt 0.000000 0.000000
vt 1.000000 0.000000
vt 1.000000 1.000000
vt 0.000000 1.000000
f 125/125 126/126 127/127 128/128
v -0.450000 0.225000 -0.310000
v -0.275000 0.335000 0.390000
v -0.275000 0.865000 0.390000
v -0.450000 0.975000 -0.310000
vt 0.000000 0.000000
vt 1.000000 0.146667
vt 1.000000 0.853333
vt 0.000000 1.000000
f 129/129 130/130 131/131 132/132
v 0.450000 0.225000 -0.310000
v 0.450000 0.975000 -0.310000
v 0.275000 0.865000 0.390000
v 0.275000 0.335000 0.390000
vt 0.000000 0.000000
vt 0.000000 1.000000
vt 1.000000 0.853333
vt 1.000000 0.146667
f 133/133 134/134 135/135 136/136
v -0.450000 0.225000 -0.310000
v 0.450000 0.225000 -0.310000
v 0.275000 0.335000 0.390000
v -0.275000 0.335000 0.390000
vt 0.000000 0.000000
vt 1.000000 0.000000
vt 0.805556 1.000000
vt 0.194444 1.000000
f 137/137 138/138 139/139 140/140
v -0.450000 0.975000 -0.310000
v -0.275000 0.865000 0.390000
v 0.275000 0.865000 0.390000
v 0.450000 0.975000 -0.310000
vt 0.000000 0.000000
vt 0.194444 1.000000
vt 0.805556 1.000000
vt 1.000000 0.000000
f 141/141 142/142 143/143 144/144
g front_bezel
usemtl cream
v -0.455000 0.220000 -0.365500
v -0.455000 0.980000 -0.365500
v 0.455000 0.980000 -0.365500
v 0.455000 0.220000 -0.365500
vt 0.000000 0.000000
vt 0.000000 1.000000
vt 1.000000 1.000000
vt 1.000000 0.000000
f 145/145 146/146 147/147 148/148
v -0.455000 0.220000 -0.290500
v 0.455000 0.220000 -0.290500
v 0.455000 0.980000 -0.290500
v -0.455000 0.980000 -0.290500
vt 0.000000 0.000000
vt 1.000000 0.000000
vt 1.000000 1.000000
vt 0.000000 1.000000
f 149/149 150/150 151/151 152/152
v -0.455000 0.220000 -0.365500
v -0.455000 0.220000 -0.290500
v -0.455000 0.980000 -0.290500
v -0.455000 0.980000 -0.365500
vt 0.000000 0.000000
vt 1.000000 0.000000
vt 1.000000 1.000000
vt 0.000000 1.000000
f 153/153 154/154 155/155 156/156
v 0.455000 0.220000 -0.365500
v 0.455000 0.980000 -0.365500
v 0.455000 0.980000 -0.290500
v 0.455000 0.220000 -0.290500
vt 0.000000 0.000000
vt 0.000000 1.000000
vt 1.000000 1.000000
vt 1.000000 0.000000
f 157/157 158/158 159/159 160/160
v -0.455000 0.220000 -0.365500
v 0.455000 0.220000 -0.365500
v 0.455000 0.220000 -0.290500
v -0.455000 0.220000 -0.290500
vt 0.000000 0.000000
vt 1.000000 0.000000
vt 1.000000 1.000000
vt 0.000000 1.000000
f 161/161 162/162 163/163 164/164
v -0.455000 0.980000 -0.365500
v -0.455000 0.980000 -0.290500
v 0.455000 0.980000 -0.290500
v 0.455000 0.980000 -0.365500
vt 0.000000 0.000000
vt 0.000000 1.000000
vt 1.000000 1.000000
vt 1.000000 0.000000
f 165/165 166/166 167/167 168/168
g crt_screen_4_3
usemtl screen
v -0.340000 0.365000 -0.370000
v -0.340000 0.875000 -0.370000
v 0.340000 0.875000 -0.370000
v 0.340000 0.365000 -0.370000
vt 0.000000 0.000000
vt 0.000000 1.000000
vt 1.000000 1.000000
vt 1.000000 0.000000
f 169/169 170/170 171/171 172/172
g lower_controls
usemtl metal
v 0.260000 0.287500 -0.378000
v 0.260000 0.312500 -0.378000
v 0.340000 0.312500 -0.378000
v 0.340000 0.287500 -0.378000
vt 0.000000 0.000000
vt 0.000000 1.000000
vt 1.000000 1.000000
vt 1.000000 0.000000
f 173/173 174/174 175/175 176/176
v 0.260000 0.287500 -0.362000
v 0.340000 0.287500 -0.362000
v 0.340000 0.312500 -0.362000
v 0.260000 0.312500 -0.362000
vt 0.000000 0.000000
vt 1.000000 0.000000
vt 1.000000 1.000000
vt 0.000000 1.000000
f 177/177 178/178 179/179 180/180
v 0.260000 0.287500 -0.378000
v 0.260000 0.287500 -0.362000
v 0.260000 0.312500 -0.362000
v 0.260000 0.312500 -0.378000
vt 0.000000 0.000000
vt 1.000000 0.000000
vt 1.000000 1.000000
vt 0.000000 1.000000
f 181/181 182/182 183/183 184/184
v 0.340000 0.287500 -0.378000
v 0.340000 0.312500 -0.378000
v 0.340000 0.312500 -0.362000
v 0.340000 0.287500 -0.362000
vt 0.000000 0.000000
vt 0.000000 1.000000
vt 1.000000 1.000000
vt 1.000000 0.000000
f 185/185 186/186 187/187 188/188
v 0.260000 0.287500 -0.378000
v 0.340000 0.287500 -0.378000
v 0.340000 0.287500 -0.362000
v 0.260000 0.287500 -0.362000
vt 0.000000 0.000000
vt 1.000000 0.000000
vt 1.000000 1.000000
vt 0.000000 1.000000
f 189/189 190/190 191/191 192/192
v 0.260000 0.312500 -0.378000
v 0.260000 0.312500 -0.362000
v 0.340000 0.312500 -0.362000
v 0.340000 0.312500 -0.378000
vt 0.000000 0.000000
vt 0.000000 1.000000
vt 1.000000 1.000000
vt 1.000000 0.000000
f 193/193 194/194 195/195 196/196
g tube_vent
usemtl dark
v 0.316500 0.530000 0.019500
v 0.316500 0.770000 0.019500
v 0.329500 0.770000 0.019500
v 0.329500 0.530000 0.019500
vt 0.000000 0.000000
vt 0.000000 1.000000
vt 1.000000 1.000000
vt 1.000000 0.000000
f 197/197 198/198 199/199 200/200
v 0.316500 0.530000 0.040500
v 0.329500 0.530000 0.040500
v 0.329500 0.770000 0.040500
v 0.316500 0.770000 0.040500
vt 0.000000 0.000000
vt 1.000000 0.000000
vt 1.000000 1.000000
vt 0.000000 1.000000
f 201/201 202/202 203/203 204/204
v 0.316500 0.530000 0.019500
v 0.316500 0.530000 0.040500
v 0.316500 0.770000 0.040500
v 0.316500 0.770000 0.019500
vt 0.000000 0.000000
vt 1.000000 0.000000
vt 1.000000 1.000000
vt 0.000000 1.000000
f 205/205 206/206 207/207 208/208
v 0.329500 0.530000 0.019500
v 0.329500 0.770000 0.019500
v 0.329500 0.770000 0.040500
v 0.329500 0.530000 0.040500
vt 0.000000 0.000000
vt 0.000000 1.000000
vt 1.000000 1.000000
vt 1.000000 0.000000
f 209/209 210/210 211/211 212/212
v 0.316500 0.530000 0.019500
v 0.329500 0.530000 0.019500
v 0.329500 0.530000 0.040500
v 0.316500 0.530000 0.040500
vt 0.000000 0.000000
vt 1.000000 0.000000
vt 1.000000 1.000000
vt 0.000000 1.000000
f 213/213 214/214 215/215 216/216
v 0.316500 0.770000 0.019500
v 0.316500 0.770000 0.040500
v 0.329500 0.770000 0.040500
v 0.329500 0.770000 0.019500
vt 0.000000 0.000000
vt 0.000000 1.000000
vt 1.000000 1.000000
vt 1.000000 0.000000
f 217/217 218/218 219/219 220/220
v 0.316500 0.530000 0.069500
v 0.316500 0.770000 0.069500
v 0.329500 0.770000 0.069500
v 0.329500 0.530000 0.069500
vt 0.000000 0.000000
vt 0.000000 1.000000
vt 1.000000 1.000000
vt 1.000000 0.000000
f 221/221 222/222 223/223 224/224
v 0.316500 0.530000 0.090500
v 0.329500 0.530000 0.090500
v 0.329500 0.770000 0.090500
v 0.316500 0.770000 0.090500
vt 0.000000 0.000000
vt 1.000000 0.000000
vt 1.000000 1.000000
vt 0.000000 1.000000
f 225/225 226/226 227/227 228/228
v 0.316500 0.530000 0.069500
v 0.316500 0.530000 0.090500
v 0.316500 0.770000 0.090500
v 0.316500 0.770000 0.069500
vt 0.000000 0.000000
vt 1.000000 0.000000
vt 1.000000 1.000000
vt 0.000000 1.000000
f 229/229 230/230 231/231 232/232
v 0.329500 0.530000 0.069500
v 0.329500 0.770000 0.069500
v 0.329500 0.770000 0.090500
v 0.329500 0.530000 0.090500
vt 0.000000 0.000000
vt 0.000000 1.000000
vt 1.000000 1.000000
vt 1.000000 0.000000
f 233/233 234/234 235/235 236/236
v 0.316500 0.530000 0.069500
v 0.329500 0.530000 0.069500
v 0.329500 0.530000 0.090500
v 0.316500 0.530000 0.090500
vt 0.000000 0.000000
vt 1.000000 0.000000
vt 1.000000 1.000000
vt 0.000000 1.000000
f 237/237 238/238 239/239 240/240
v 0.316500 0.770000 0.069500
v 0.316500 0.770000 0.090500
v 0.329500 0.770000 0.090500
v 0.329500 0.770000 0.069500
vt 0.000000 0.000000
vt 0.000000 1.000000
vt 1.000000 1.000000
vt 1.000000 0.000000
f 241/241 242/242 243/243 244/244
v 0.316500 0.530000 0.119500
v 0.316500 0.770000 0.119500
v 0.329500 0.770000 0.119500
v 0.329500 0.530000 0.119500
vt 0.000000 0.000000
vt 0.000000 1.000000
vt 1.000000 1.000000
vt 1.000000 0.000000
f 245/245 246/246 247/247 248/248
v 0.316500 0.530000 0.140500
v 0.329500 0.530000 0.140500
v 0.329500 0.770000 0.140500
v 0.316500 0.770000 0.140500
vt 0.000000 0.000000
vt 1.000000 0.000000
vt 1.000000 1.000000
vt 0.000000 1.000000
f 249/249 250/250 251/251 252/252
v 0.316500 0.530000 0.119500
v 0.316500 0.530000 0.140500
v 0.316500 0.770000 0.140500
v 0.316500 0.770000 0.119500
vt 0.000000 0.000000
vt 1.000000 0.000000
vt 1.000000 1.000000
vt 0.000000 1.000000
f 253/253 254/254 255/255 256/256
v 0.329500 0.530000 0.119500
v 0.329500 0.770000 0.119500
v 0.329500 0.770000 0.140500
v 0.329500 0.530000 0.140500
vt 0.000000 0.000000
vt 0.000000 1.000000
vt 1.000000 1.000000
vt 1.000000 0.000000
f 257/257 258/258 259/259 260/260
v 0.316500 0.530000 0.119500
v 0.329500 0.530000 0.119500
v 0.329500 0.530000 0.140500
v 0.316500 0.530000 0.140500
vt 0.000000 0.000000
vt 1.000000 0.000000
vt 1.000000 1.000000
vt 0.000000 1.000000
f 261/261 262/262 263/263 264/264
v 0.316500 0.770000 0.119500
v 0.316500 0.770000 0.140500
v 0.329500 0.770000 0.140500
v 0.329500 0.770000 0.119500
vt 0.000000 0.000000
vt 0.000000 1.000000
vt 1.000000 1.000000
vt 1.000000 0.000000
f 265/265 266/266 267/267 268/268
v 0.316500 0.530000 0.169500
v 0.316500 0.770000 0.169500
v 0.329500 0.770000 0.169500
v 0.329500 0.530000 0.169500
vt 0.000000 0.000000
vt 0.000000 1.000000
vt 1.000000 1.000000
vt 1.000000 0.000000
f 269/269 270/270 271/271 272/272
v 0.316500 0.530000 0.190500
v 0.329500 0.530000 0.190500
v 0.329500 0.770000 0.190500
v 0.316500 0.770000 0.190500
vt 0.000000 0.000000
vt 1.000000 0.000000
vt 1.000000 1.000000
vt 0.000000 1.000000
f 273/273 274/274 275/275 276/276
v 0.316500 0.530000 0.169500
v 0.316500 0.530000 0.190500
v 0.316500 0.770000 0.190500
v 0.316500 0.770000 0.169500
vt 0.000000 0.000000
vt 1.000000 0.000000
vt 1.000000 1.000000
vt 0.000000 1.000000
f 277/277 278/278 279/279 280/280
v 0.329500 0.530000 0.169500
v 0.329500 0.770000 0.169500
v 0.329500 0.770000 0.190500
v 0.329500 0.530000 0.190500
vt 0.000000 0.000000
vt 0.000000 1.000000
vt 1.000000 1.000000
vt 1.000000 0.000000
f 281/281 282/282 283/283 284/284
v 0.316500 0.530000 0.169500
v 0.329500 0.530000 0.169500
v 0.329500 0.530000 0.190500
v 0.316500 0.530000 0.190500
vt 0.000000 0.000000
vt 1.000000 0.000000
vt 1.000000 1.000000
vt 0.000000 1.000000
f 285/285 286/286 287/287 288/288
v 0.316500 0.770000 0.169500
v 0.316500 0.770000 0.190500
v 0.329500 0.770000 0.190500
v 0.329500 0.770000 0.169500
vt 0.000000 0.000000
vt 0.000000 1.000000
vt 1.000000 1.000000
vt 1.000000 0.000000
f 289/289 290/290 291/291 292/292
v 0.316500 0.530000 0.219500
v 0.316500 0.770000 0.219500
v 0.329500 0.770000 0.219500
v 0.329500 0.530000 0.219500
vt 0.000000 0.000000
vt 0.000000 1.000000
vt 1.000000 1.000000
vt 1.000000 0.000000
f 293/293 294/294 295/295 296/296
v 0.316500 0.530000 0.240500
v 0.329500 0.530000 0.240500
v 0.329500 0.770000 0.240500
v 0.316500 0.770000 0.240500
vt 0.000000 0.000000
vt 1.000000 0.000000
vt 1.000000 1.000000
vt 0.000000 1.000000
f 297/297 298/298 299/299 300/300
v 0.316500 0.530000 0.219500
v 0.316500 0.530000 0.240500
v 0.316500 0.770000 0.240500
v 0.316500 0.770000 0.219500
vt 0.000000 0.000000
vt 1.000000 0.000000
vt 1.000000 1.000000
vt 0.000000 1.000000
f 301/301 302/302 303/303 304/304
v 0.329500 0.530000 0.219500
v 0.329500 0.770000 0.219500
v 0.329500 0.770000 0.240500
v 0.329500 0.530000 0.240500
vt 0.000000 0.000000
vt 0.000000 1.000000
vt 1.000000 1.000000
vt 1.000000 0.000000
f 305/305 306/306 307/307 308/308
v 0.316500 0.530000 0.219500
v 0.329500 0.530000 0.219500
v 0.329500 0.530000 0.240500
v 0.316500 0.530000 0.240500
vt 0.000000 0.000000
vt 1.000000 0.000000
vt 1.000000 1.000000
vt 0.000000 1.000000
f 309/309 310/310 311/311 312/312
v 0.316500 0.770000 0.219500
v 0.316500 0.770000 0.240500
v 0.329500 0.770000 0.240500
v 0.329500 0.770000 0.219500
vt 0.000000 0.000000
vt 0.000000 1.000000
vt 1.000000 1.000000
vt 1.000000 0.000000
f 313/313 314/314 315/315 316/316
