# Time Sorter editable base mesh; metres, Y-up
mtllib palette.mtl
g sign_base
usemtl ochre
v -0.325000 0.000000 -0.110000
v -0.325000 0.050000 -0.110000
v 0.325000 0.050000 -0.110000
v 0.325000 0.000000 -0.110000
vt 0.000000 0.000000
vt 0.000000 1.000000
vt 1.000000 1.000000
vt 1.000000 0.000000
f 1/1 2/2 3/3 4/4
v -0.325000 0.000000 0.110000
v 0.325000 0.000000 0.110000
v 0.325000 0.050000 0.110000
v -0.325000 0.050000 0.110000
vt 0.000000 0.000000
vt 1.000000 0.000000
vt 1.000000 1.000000
vt 0.000000 1.000000
f 5/5 6/6 7/7 8/8
v -0.325000 0.000000 -0.110000
v -0.325000 0.000000 0.110000
v -0.325000 0.050000 0.110000
v -0.325000 0.050000 -0.110000
vt 0.000000 0.000000
vt 1.000000 0.000000
vt 1.000000 1.000000
vt 0.000000 1.000000
f 9/9 10/10 11/11 12/12
v 0.325000 0.000000 -0.110000
v 0.325000 0.050000 -0.110000
v 0.325000 0.050000 0.110000
v 0.325000 0.000000 0.110000
vt 0.000000 0.000000
vt 0.000000 1.000000
vt 1.000000 1.000000
vt 1.000000 0.000000
f 13/13 14/14 15/15 16/16
v -0.325000 0.000000 -0.110000
v 0.325000 0.000000 -0.110000
v 0.325000 0.000000 0.110000
v -0.325000 0.000000 0.110000
vt 0.000000 0.000000
vt 1.000000 0.000000
vt 1.000000 1.000000
vt 0.000000 1.000000
f 17/17 18/18 19/19 20/20
v -0.325000 0.050000 -0.110000
v -0.325000 0.050000 0.110000
v 0.325000 0.050000 0.110000
v 0.325000 0.050000 -0.110000
vt 0.000000 0.000000
vt 0.000000 1.000000
vt 1.000000 1.000000
vt 1.000000 0.000000
f 21/21 22/22 23/23 24/24
g sign_casing
usemtl ochre
v -0.300000 0.025000 -0.017500
v -0.300000 0.255000 -0.017500
v 0.300000 0.255000 -0.017500
v 0.300000 0.025000 -0.017500
vt 0.000000 0.000000
vt 0.000000 1.000000
vt 1.000000 1.000000
vt 1.000000 0.000000
f 25/25 26/26 27/27 28/28
v -0.300000 0.025000 0.057500
v 0.300000 0.025000 0.057500
v 0.300000 0.255000 0.057500
v -0.300000 0.255000 0.057500
vt 0.000000 0.000000
vt 1.000000 0.000000
vt 1.000000 1.000000
vt 0.000000 1.000000
f 29/29 30/30 31/31 32/32
v -0.300000 0.025000 -0.017500
v -0.300000 0.025000 0.057500
v -0.300000 0.255000 0.057500
v -0.300000 0.255000 -0.017500
vt 0.000000 0.000000
vt 1.000000 0.000000
vt 1.000000 1.000000
vt 0.000000 1.000000
f 33/33 34/34 35/35 36/36
v 0.300000 0.025000 -0.017500
v 0.300000 0.255000 -0.017500
v 0.300000 0.255000 0.057500
v 0.300000 0.025000 0.057500
vt 0.000000 0.000000
vt 0.000000 1.000000
vt 1.000000 1.000000
vt 1.000000 0.000000
f 37/37 38/38 39/39 40/40
v -0.300000 0.025000 -0.017500
v 0.300000 0.025000 -0.017500
v 0.300000 0.025000 0.057500
v -0.300000 0.025000 0.057500
vt 0.000000 0.000000
vt 1.000000 0.000000
vt 1.000000 1.000000
vt 0.000000 1.000000
f 41/41 42/42 43/43 44/44
v -0.300000 0.255000 -0.017500
v -0.300000 0.255000 0.057500
v 0.300000 0.255000 0.057500
v 0.300000 0.255000 -0.017500
vt 0.000000 0.000000
vt 0.000000 1.000000
vt 1.000000 1.000000
vt 1.000000 0.000000
f 45/45 46/46 47/47 48/48
g runtime_next
usemtl screen
v -0.270000 0.055000 -0.021000
v -0.270000 0.225000 -0.021000
v 0.270000 0.225000 -0.021000
v 0.270000 0.055000 -0.021000
vt 0.000000 0.000000
vt 0.000000 1.000000
vt 1.000000 1.000000
vt 1.000000 0.000000
f 49/49 50/50 51/51 52/52
