# Time Sorter editable base mesh; metres, Y-up
mtllib palette.mtl
g casing
usemtl cream
v -0.200000 0.000000 -0.055000
v -0.200000 0.380000 -0.055000
v 0.200000 0.380000 -0.055000
v 0.200000 0.000000 -0.055000
vt 0.000000 0.000000
vt 0.000000 1.000000
vt 1.000000 1.000000
vt 1.000000 0.000000
f 1/1 2/2 3/3 4/4
v -0.200000 0.000000 0.055000
v 0.200000 0.000000 0.055000
v 0.200000 0.380000 0.055000
v -0.200000 0.380000 0.055000
vt 0.000000 0.000000
vt 1.000000 0.000000
vt 1.000000 1.000000
vt 0.000000 1.000000
f 5/5 6/6 7/7 8/8
v -0.200000 0.000000 -0.055000
v -0.200000 0.000000 0.055000
v -0.200000 0.380000 0.055000
v -0.200000 0.380000 -0.055000
vt 0.000000 0.000000
vt 1.000000 0.000000
vt 1.000000 1.000000
vt 0.000000 1.000000
f 9/9 10/10 11/11 12/12
v 0.200000 0.000000 -0.055000
v 0.200000 0.380000 -0.055000
v 0.200000 0.380000 0.055000
v 0.200000 0.000000 0.055000
vt 0.000000 0.000000
vt 0.000000 1.000000
vt 1.000000 1.000000
vt 1.000000 0.000000
f 13/13 14/14 15/15 16/16
v -0.200000 0.000000 -0.055000
v 0.200000 0.000000 -0.055000
v 0.200000 0.000000 0.055000
v -0.200000 0.000000 0.055000
vt 0.000000 0.000000
vt 1.000000 0.000000
vt 1.000000 1.000000
vt 0.000000 1.000000
f 17/17 18/18 19/19 20/20
v -0.200000 0.380000 -0.055000
v -0.200000 0.380000 0.055000
v 0.200000 0.380000 0.055000
v 0.200000 0.380000 -0.055000
vt 0.000000 0.000000
vt 0.000000 1.000000
vt 1.000000 1.000000
vt 1.000000 0.000000
f 21/21 22/22 23/23 24/24
g runtime_stability
usemtl screen
v -0.145000 0.135000 -0.057000
v -0.145000 0.325000 -0.057000
v 0.145000 0.325000 -0.057000
v 0.145000 0.135000 -0.057000
vt 0.000000 0.000000
vt 0.000000 1.000000
vt 1.000000 1.000000
vt 1.000000 0.000000
f 25/25 26/26 27/27 28/28
g indicator
usemtl metal
v -0.110000 0.060000 -0.064000
v -0.110000 0.080000 -0.064000
v -0.070000 0.080000 -0.064000
v -0.070000 0.060000 -0.064000
vt 0.000000 0.000000
vt 0.000000 1.000000
vt 1.000000 1.000000
vt 1.000000 0.000000
f 29/29 30/30 31/31 32/32
v -0.110000 0.060000 -0.054000
v -0.070000 0.060000 -0.054000
v -0.070000 0.080000 -0.054000
v -0.110000 0.080000 -0.054000
vt 0.000000 0.000000
vt 1.000000 0.000000
vt 1.000000 1.000000
vt 0.000000 1.000000
f 33/33 34/34 35/35 36/36
v -0.110000 0.060000 -0.064000
v -0.110000 0.060000 -0.054000
v -0.110000 0.080000 -0.054000
v -0.110000 0.080000 -0.064000
vt 0.000000 0.000000
vt 1.000000 0.000000
vt 1.000000 1.000000
vt 0.000000 1.000000
f 37/37 38/38 39/39 40/40
v -0.070000 0.060000 -0.064000
v -0.070000 0.080000 -0.064000
v -0.070000 0.080000 -0.054000
v -0.070000 0.060000 -0.054000
vt 0.000000 0.000000
vt 0.000000 1.000000
vt 1.000000 1.000000
vt 1.000000 0.000000
f 41/41 42/42 43/43 44/44
v -0.110000 0.060000 -0.064000
v -0.070000 0.060000 -0.064000
v -0.070000 0.060000 -0.054000
v -0.110000 0.060000 -0.054000
vt 0.000000 0.000000
vt 1.000000 0.000000
vt 1.000000 1.000000
vt 0.000000 1.000000
f 45/45 46/46 47/47 48/48
v -0.110000 0.080000 -0.064000
v -0.110000 0.080000 -0.054000
v -0.070000 0.080000 -0.054000
v -0.070000 0.080000 -0.064000
vt 0.000000 0.000000
vt 0.000000 1.000000
vt 1.000000 1.000000
vt 1.000000 0.000000
f 49/49 50/50 51/51 52/52
v 0.070000 0.060000 -0.064000
v 0.070000 0.080000 -0.064000
v 0.110000 0.080000 -0.064000
v 0.110000 0.060000 -0.064000
vt 0.000000 0.000000
vt 0.000000 1.000000
vt 1.000000 1.000000
vt 1.000000 0.000000
f 53/53 54/54 55/55 56/56
v 0.070000 0.060000 -0.054000
v 0.110000 0.060000 -0.054000
v 0.110000 0.080000 -0.054000
v 0.070000 0.080000 -0.054000
vt 0.000000 0.000000
vt 1.000000 0.000000
vt 1.000000 1.000000
vt 0.000000 1.000000
f 57/57 58/58 59/59 60/60
v 0.070000 0.060000 -0.064000
v 0.070000 0.060000 -0.054000
v 0.070000 0.080000 -0.054000
v 0.070000 0.080000 -0.064000
vt 0.000000 0.000000
vt 1.000000 0.000000
vt 1.000000 1.000000
vt 0.000000 1.000000
f 61/61 62/62 63/63 64/64
v 0.110000 0.060000 -0.064000
v 0.110000 0.080000 -0.064000
v 0.110000 0.080000 -0.054000
v 0.110000 0.060000 -0.054000
vt 0.000000 0.000000
vt 0.000000 1.000000
vt 1.000000 1.000000
vt 1.000000 0.000000
f 65/65 66/66 67/67 68/68
v 0.070000 0.060000 -0.064000
v 0.110000 0.060000 -0.064000
v 0.110000 0.060000 -0.054000
v 0.070000 0.060000 -0.054000
vt 0.000000 0.000000
vt 1.000000 0.000000
vt 1.000000 1.000000
vt 0.000000 1.000000
f 69/69 70/70 71/71 72/72
v 0.070000 0.080000 -0.064000
v 0.070000 0.080000 -0.054000
v 0.110000 0.080000 -0.054000
v 0.110000 0.080000 -0.064000
vt 0.000000 0.000000
vt 0.000000 1.000000
vt 1.000000 1.000000
vt 1.000000 0.000000
f 73/73 74/74 75/75 76/76
