# Time Sorter editable base mesh; metres, Y-up
mtllib palette.mtl
g housing
usemtl metal
v -3.500000 -1.100000 -0.150000
v -3.500000 1.100000 -0.150000
v 3.500000 1.100000 -0.150000
v 3.500000 -1.100000 -0.150000
vt 0.000000 0.000000
vt 0.000000 1.000000
vt 1.000000 1.000000
vt 1.000000 0.000000
f 1/1 2/2 3/3 4/4
v -3.500000 -1.100000 0.150000
v 3.500000 -1.100000 0.150000
v 3.500000 1.100000 0.150000
v -3.500000 1.100000 0.150000
vt 0.000000 0.000000
vt 1.000000 0.000000
vt 1.000000 1.000000
vt 0.000000 1.000000
f 5/5 6/6 7/7 8/8
v -3.500000 -1.100000 -0.150000
v -3.500000 -1.100000 0.150000
v -3.500000 1.100000 0.150000
v -3.500000 1.100000 -0.150000
vt 0.000000 0.000000
vt 1.000000 0.000000
vt 1.000000 1.000000
vt 0.000000 1.000000
f 9/9 10/10 11/11 12/12
v 3.500000 -1.100000 -0.150000
v 3.500000 1.100000 -0.150000
v 3.500000 1.100000 0.150000
v 3.500000 -1.100000 0.150000
vt 0.000000 0.000000
vt 0.000000 1.000000
vt 1.000000 1.000000
vt 1.000000 0.000000
f 13/13 14/14 15/15 16/16
v -3.500000 -1.100000 -0.150000
v 3.500000 -1.100000 -0.150000
v 3.500000 -1.100000 0.150000
v -3.500000 -1.100000 0.150000
vt 0.000000 0.000000
vt 1.000000 0.000000
vt 1.000000 1.000000
vt 0.000000 1.000000
f 17/17 18/18 19/19 20/20
v -3.500000 1.100000 -0.150000
v -3.500000 1.100000 0.150000
v 3.500000 1.100000 0.150000
v 3.500000 1.100000 -0.150000
vt 0.000000 0.000000
vt 0.000000 1.000000
vt 1.000000 1.000000
vt 1.000000 0.000000
f 21/21 22/22 23/23 24/24
g runtime_departures
usemtl screen
v -3.300000 -0.900000 -0.157000
v -3.300000 0.900000 -0.157000
v 3.300000 0.900000 -0.157000
v 3.300000 -0.900000 -0.157000
vt 0.000000 0.000000
vt 0.000000 1.000000
vt 1.000000 1.000000
vt 1.000000 0.000000
f 25/25 26/26 27/27 28/28
g ceiling_rods
usemtl metal
v -2.765000 0.000000 0.000000
v -2.775251 0.000000 0.024749
v -2.800000 0.000000 0.035000
v -2.824749 0.000000 0.024749
v -2.835000 0.000000 0.000000
v -2.824749 0.000000 -0.024749
v -2.800000 0.000000 -0.035000
v -2.775251 0.000000 -0.024749
vt 1.000000 0.500000
vt 0.853553 0.853553
vt 0.500000 1.000000
vt 0.146447 0.853553
vt 0.000000 0.500000
vt 0.146447 0.146447
vt 0.500000 0.000000
vt 0.853553 0.146447
f 29/29 30/30 31/31 32/32 33/33 34/34 35/35 36/36
v -2.775251 4.000000 -0.024749
v -2.800000 4.000000 -0.035000
v -2.824749 4.000000 -0.024749
v -2.835000 4.000000 0.000000
v -2.824749 4.000000 0.024749
v -2.800000 4.000000 0.035000
v -2.775251 4.000000 0.024749
v -2.765000 4.000000 0.000000
vt 0.853553 0.146447
vt 0.500000 0.000000
vt 0.146447 0.146447
vt 0.000000 0.500000
vt 0.146447 0.853553
vt 0.500000 1.000000
vt 0.853553 0.853553
vt 1.000000 0.500000
f 37/37 38/38 39/39 40/40 41/41 42/42 43/43 44/44
v -2.765000 0.000000 0.000000
v -2.765000 4.000000 0.000000
v -2.775251 4.000000 0.024749
v -2.775251 0.000000 0.024749
vt 0.000000 0.000000
vt 0.000000 1.000000
vt 1.000000 1.000000
vt 1.000000 0.000000
f 45/45 46/46 47/47 48/48
v -2.775251 0.000000 0.024749
v -2.775251 4.000000 0.024749
v -2.800000 4.000000 0.035000
v -2.800000 0.000000 0.035000
vt 1.000000 0.000000
vt 1.000000 1.000000
vt 0.000000 1.000000
vt 0.000000 0.000000
f 49/49 50/50 51/51 52/52
v -2.800000 0.000000 0.035000
v -2.800000 4.000000 0.035000
v -2.824749 4.000000 0.024749
v -2.824749 0.000000 0.024749
vt 1.000000 0.000000
vt 1.000000 1.000000
vt 0.000000 1.000000
vt 0.000000 0.000000
f 53/53 54/54 55/55 56/56
v -2.824749 0.000000 0.024749
v -2.824749 4.000000 0.024749
v -2.835000 4.000000 0.000000
v -2.835000 0.000000 0.000000
vt 1.000000 0.000000
vt 1.000000 1.000000
vt 0.000000 1.000000
vt 0.000000 0.000000
f 57/57 58/58 59/59 60/60
v -2.835000 0.000000 0.000000
v -2.835000 4.000000 0.000000
v -2.824749 4.000000 -0.024749
v -2.824749 0.000000 -0.024749
vt 1.000000 0.000000
vt 1.000000 1.000000
vt 0.000000 1.000000
vt 0.000000 0.000000
f 61/61 62/62 63/63 64/64
v -2.824749 0.000000 -0.024749
v -2.824749 4.000000 -0.024749
v -2.800000 4.000000 -0.035000
v -2.800000 0.000000 -0.035000
vt 0.000000 0.000000
vt 0.000000 1.000000
vt 1.000000 1.000000
vt 1.000000 0.000000
f 65/65 66/66 67/67 68/68
v -2.800000 0.000000 -0.035000
v -2.800000 4.000000 -0.035000
v -2.775251 4.000000 -0.024749
v -2.775251 0.000000 -0.024749
vt 0.000000 0.000000
vt 0.000000 1.000000
vt 1.000000 1.000000
vt 1.000000 0.000000
f 69/69 70/70 71/71 72/72
v -2.775251 0.000000 -0.024749
v -2.775251 4.000000 -0.024749
v -2.765000 4.000000 0.000000
v -2.765000 0.000000 0.000000
vt 0.000000 0.000000
vt 0.000000 1.000000
vt 1.000000 1.000000
vt 1.000000 0.000000
f 73/73 74/74 75/75 76/76
v 2.835000 0.000000 0.000000
v 2.824749 0.000000 0.024749
v 2.800000 0.000000 0.035000
v 2.775251 0.000000 0.024749
v 2.765000 0.000000 0.000000
v 2.775251 0.000000 -0.024749
v 2.800000 0.000000 -0.035000
v 2.824749 0.000000 -0.024749
vt 1.000000 0.500000
vt 0.853553 0.853553
vt 0.500000 1.000000
vt 0.146447 0.853553
vt 0.000000 0.500000
vt 0.146447 0.146447
vt 0.500000 0.000000
vt 0.853553 0.146447
f 77/77 78/78 79/79 80/80 81/81 82/82 83/83 84/84
v 2.824749 4.000000 -0.024749
v 2.800000 4.000000 -0.035000
v 2.775251 4.000000 -0.024749
v 2.765000 4.000000 0.000000
v 2.775251 4.000000 0.024749
v 2.800000 4.000000 0.035000
v 2.824749 4.000000 0.024749
v 2.835000 4.000000 0.000000
vt 0.853553 0.146447
vt 0.500000 0.000000
vt 0.146447 0.146447
vt 0.000000 0.500000
vt 0.146447 0.853553
vt 0.500000 1.000000
vt 0.853553 0.853553
vt 1.000000 0.500000
f 85/85 86/86 87/87 88/88 89/89 90/90 91/91 92/92
v 2.835000 0.000000 0.000000
v 2.835000 4.000000 0.000000
v 2.824749 4.000000 0.024749
v 2.824749 0.000000 0.024749
vt 0.000000 0.000000
vt 0.000000 1.000000
vt 1.000000 1.000000
vt 1.000000 0.000000
f 93/93 94/94 95/95 96/96
v 2.824749 0.000000 0.024749
v 2.824749 4.000000 0.024749
v 2.800000 4.000000 0.035000
v 2.800000 0.000000 0.035000
vt 1.000000 0.000000
vt 1.000000 1.000000
vt 0.000000 1.000000
vt 0.000000 0.000000
f 97/97 98/98 99/99 100/100
v 2.800000 0.000000 0.035000
v 2.800000 4.000000 0.035000
v 2.775251 4.000000 0.024749
v 2.775251 0.000000 0.024749
vt 1.000000 0.000000
vt 1.000000 1.000000
vt 0.000000 1.000000
vt 0.000000 0.000000
f 101/101 102/102 103/103 104/104
v 2.775251 0.000000 0.024749
v 2.775251 4.000000 0.024749
v 2.765000 4.000000 0.000000
v 2.765000 0.000000 0.000000
vt 1.000000 0.000000
vt 1.000000 1.000000
vt 0.000000 1.000000
vt 0.000000 0.000000
f 105/105 106/106 107/107 108/108
v 2.765000 0.000000 0.000000
v 2.765000 4.000000 0.000000
v 2.775251 4.000000 -0.024749
v 2.775251 0.000000 -0.024749
vt 1.000000 0.000000
vt 1.000000 1.000000
vt 0.000000 1.000000
vt 0.000000 0.000000
f 109/109 110/110 111/111 112/112
v 2.775251 0.000000 -0.024749
v 2.775251 4.000000 -0.024749
v 2.800000 4.000000 -0.035000
v 2.800000 0.000000 -0.035000
vt 0.000000 0.000000
vt 0.000000 1.000000
vt 1.000000 1.000000
vt 1.000000 0.000000
f 113/113 114/114 115/115 116/116
v 2.800000 0.000000 -0.035000
v 2.800000 4.000000 -0.035000
v 2.824749 4.000000 -0.024749
v 2.824749 0.000000 -0.024749
vt 0.000000 0.000000
vt 0.000000 1.000000
vt 1.000000 1.000000
vt 1.000000 0.000000
f 117/117 118/118 119/119 120/120
v 2.824749 0.000000 -0.024749
v 2.824749 4.000000 -0.024749
v 2.835000 4.000000 0.000000
v 2.835000 0.000000 0.000000
vt 0.000000 0.000000
vt 0.000000 1.000000
vt 1.000000 1.000000
vt 1.000000 0.000000
f 121/121 122/122 123/123 124/124
