# Time Sorter editable base mesh; metres, Y-up
mtllib palette.mtl
g frame_side
usemtl ochre
v -0.540000 -0.030000 -0.025000
v -0.540000 1.430000 -0.025000
v -0.480000 1.430000 -0.025000
v -0.480000 -0.030000 -0.025000
vt 0.000000 0.000000
vt 0.000000 1.000000
vt 1.000000 1.000000
vt 1.000000 0.000000
f 1/1 2/2 3/3 4/4
v -0.540000 -0.030000 0.025000
v -0.480000 -0.030000 0.025000
v -0.480000 1.430000 0.025000
v -0.540000 1.430000 0.025000
vt 0.000000 0.000000
vt 1.000000 0.000000
vt 1.000000 1.000000
vt 0.000000 1.000000
f 5/5 6/6 7/7 8/8
v -0.540000 -0.030000 -0.025000
v -0.540000 -0.030000 0.025000
v -0.540000 1.430000 0.025000
v -0.540000 1.430000 -0.025000
vt 0.000000 0.000000
vt 1.000000 0.000000
vt 1.000000 1.000000
vt 0.000000 1.000000
f 9/9 10/10 11/11 12/12
v -0.480000 -0.030000 -0.025000
v -0.480000 1.430000 -0.025000
v -0.480000 1.430000 0.025000
v -0.480000 -0.030000 0.025000
vt 0.000000 0.000000
vt 0.000000 1.000000
vt 1.000000 1.000000
vt 1.000000 0.000000
f 13/13 14/14 15/15 16/16
v -0.540000 -0.030000 -0.025000
v -0.480000 -0.030000 -0.025000
v -0.480000 -0.030000 0.025000
v -0.540000 -0.030000 0.025000
vt 0.000000 0.000000
vt 1.000000 0.000000
vt 1.000000 1.000000
vt 0.000000 1.000000
f 17/17 18/18 19/19 20/20
v -0.540000 1.430000 -0.025000
v -0.540000 1.430000 0.025000
v -0.480000 1.430000 0.025000
v -0.480000 1.430000 -0.025000
vt 0.000000 0.000000
vt 0.000000 1.000000
vt 1.000000 1.000000
vt 1.000000 0.000000
f 21/21 22/22 23/23 24/24
v 0.480000 -0.030000 -0.025000
v 0.480000 1.430000 -0.025000
v 0.540000 1.430000 -0.025000
v 0.540000 -0.030000 -0.025000
vt 0.000000 0.000000
vt 0.000000 1.000000
vt 1.000000 1.000000
vt 1.000000 0.000000
f 25/25 26/26 27/27 28/28
v 0.480000 -0.030000 0.025000
v 0.540000 -0.030000 0.025000
v 0.540000 1.430000 0.025000
v 0.480000 1.430000 0.025000
vt 0.000000 0.000000
vt 1.000000 0.000000
vt 1.000000 1.000000
vt 0.000000 1.000000
f 29/29 30/30 31/31 32/32
v 0.480000 -0.030000 -0.025000
v 0.480000 -0.030000 0.025000
v 0.480000 1.430000 0.025000
v 0.480000 1.430000 -0.025000
vt 0.000000 0.000000
vt 1.000000 0.000000
vt 1.000000 1.000000
vt 0.000000 1.000000
f 33/33 34/34 35/35 36/36
v 0.540000 -0.030000 -0.025000
v 0.540000 1.430000 -0.025000
v 0.540000 1.430000 0.025000
v 0.540000 -0.030000 0.025000
vt 0.000000 0.000000
vt 0.000000 1.000000
vt 1.000000 1.000000
vt 1.000000 0.000000
f 37/37 38/38 39/39 40/40
v 0.480000 -0.030000 -0.025000
v 0.540000 -0.030000 -0.025000
v 0.540000 -0.030000 0.025000
v 0.480000 -0.030000 0.025000
vt 0.000000 0.000000
vt 1.000000 0.000000
vt 1.000000 1.000000
vt 0.000000 1.000000
f 41/41 42/42 43/43 44/44
v 0.480000 1.430000 -0.025000
v 0.480000 1.430000 0.025000
v 0.540000 1.430000 0.025000
v 0.540000 1.430000 -0.025000
vt 0.000000 0.000000
vt 0.000000 1.000000
vt 1.000000 1.000000
vt 1.000000 0.000000
f 45/45 46/46 47/47 48/48
g frame_end
usemtl ochre
v -0.540000 -0.045000 -0.025000
v -0.540000 0.015000 -0.025000
v 0.540000 0.015000 -0.025000
v 0.540000 -0.045000 -0.025000
vt 0.000000 0.000000
vt 0.000000 1.000000
vt 1.000000 1.000000
vt 1.000000 0.000000
f 49/49 50/50 51/51 52/52
v -0.540000 -0.045000 0.025000
v 0.540000 -0.045000 0.025000
v 0.540000 0.015000 0.025000
v -0.540000 0.015000 0.025000
vt 0.000000 0.000000
vt 1.000000 0.000000
vt 1.000000 1.000000
vt 0.000000 1.000000
f 53/53 54/54 55/55 56/56
v -0.540000 -0.045000 -0.025000
v -0.540000 -0.045000 0.025000
v -0.540000 0.015000 0.025000
v -0.540000 0.015000 -0.025000
vt 0.000000 0.000000
vt 1.000000 0.000000
vt 1.000000 1.000000
vt 0.000000 1.000000
f 57/57 58/58 59/59 60/60
v 0.540000 -0.045000 -0.025000
v 0.540000 0.015000 -0.025000
v 0.540000 0.015000 0.025000
v 0.540000 -0.045000 0.025000
vt 0.000000 0.000000
vt 0.000000 1.000000
vt 1.000000 1.000000
vt 1.000000 0.000000
f 61/61 62/62 63/63 64/64
v -0.540000 -0.045000 -0.025000
v 0.540000 -0.045000 -0.025000
v 0.540000 -0.045000 0.025000
v -0.540000 -0.045000 0.025000
vt 0.000000 0.000000
vt 1.000000 0.000000
vt 1.000000 1.000000
vt 0.000000 1.000000
f 65/65 66/66 67/67 68/68
v -0.540000 0.015000 -0.025000
v -0.540000 0.015000 0.025000
v 0.540000 0.015000 0.025000
v 0.540000 0.015000 -0.025000
vt 0.000000 0.000000
vt 0.000000 1.000000
vt 1.000000 1.000000
vt 1.000000 0.000000
f 69/69 70/70 71/71 72/72
v -0.540000 1.385000 -0.025000
v -0.540000 1.445000 -0.025000
v 0.540000 1.445000 -0.025000
v 0.540000 1.385000 -0.025000
vt 0.000000 0.000000
vt 0.000000 1.000000
vt 1.000000 1.000000
vt 1.000000 0.000000
f 73/73 74/74 75/75 76/76
v -0.540000 1.385000 0.025000
v 0.540000 1.385000 0.025000
v 0.540000 1.445000 0.025000
v -0.540000 1.445000 0.025000
vt 0.000000 0.000000
vt 1.000000 0.000000
vt 1.000000 1.000000
vt 0.000000 1.000000
f 77/77 78/78 79/79 80/80
v -0.540000 1.385000 -0.025000
v -0.540000 1.385000 0.025000
v -0.540000 1.445000 0.025000
v -0.540000 1.445000 -0.025000
vt 0.000000 0.000000
vt 1.000000 0.000000
vt 1.000000 1.000000
vt 0.000000 1.000000
f 81/81 82/82 83/83 84/84
v 0.540000 1.385000 -0.025000
v 0.540000 1.445000 -0.025000
v 0.540000 1.445000 0.025000
v 0.540000 1.385000 0.025000
vt 0.000000 0.000000
vt 0.000000 1.000000
vt 1.000000 1.000000
vt 1.000000 0.000000
f 85/85 86/86 87/87 88/88
v -0.540000 1.385000 -0.025000
v 0.540000 1.385000 -0.025000
v 0.540000 1.385000 0.025000
v -0.540000 1.385000 0.025000
vt 0.000000 0.000000
vt 1.000000 0.000000
vt 1.000000 1.000000
vt 0.000000 1.000000
f 89/89 90/90 91/91 92/92
v -0.540000 1.445000 -0.025000
v -0.540000 1.445000 0.025000
v 0.540000 1.445000 0.025000
v 0.540000 1.445000 -0.025000
vt 0.000000 0.000000
vt 0.000000 1.000000
vt 1.000000 1.000000
vt 1.000000 0.000000
f 93/93 94/94 95/95 96/96
g picture_surface
usemtl paper
v -0.490000 0.015000 -0.028000
v -0.490000 1.385000 -0.028000
v 0.490000 1.385000 -0.028000
v 0.490000 0.015000 -0.028000
vt 0.000000 0.000000
vt 0.000000 1.000000
vt 1.000000 1.000000
vt 1.000000 0.000000
f 97/97 98/98 99/99 100/100
