# Time Sorter editable base mesh; metres, Y-up
mtllib palette.mtl
g animated_opening
usemtl screen
v 2.319981 2.744569 0.000000
v 2.260266 2.444363 0.000000
v 2.161878 2.154521 0.000000
v 2.026499 1.880000 0.000000
v 1.856447 1.625498 0.000000
v 1.654630 1.395370 0.000000
v 1.424502 1.193553 0.000000
v 1.170000 1.023501 0.000000
v 0.895479 0.888122 0.000000
v 0.605637 0.789734 0.000000
v 0.305431 0.730019 0.000000
v -0.000000 0.710000 0.000000
v -0.305431 0.730019 0.000000
v -0.605637 0.789734 0.000000
v -0.895479 0.888122 0.000000
v -1.170000 1.023501 0.000000
v -1.424502 1.193553 0.000000
v -1.654630 1.395370 0.000000
v -1.856447 1.625498 0.000000
v -2.026499 1.880000 0.000000
v -2.161878 2.154521 0.000000
v -2.260266 2.444363 0.000000
v -2.319981 2.744569 0.000000
v -2.340000 3.050000 0.000000
v -2.319981 3.355431 0.000000
v -2.260266 3.655637 0.000000
v -2.161878 3.945479 0.000000
v -2.026499 4.220000 0.000000
v -1.856447 4.474502 0.000000
v -1.654630 4.704630 0.000000
v -1.424502 4.906447 0.000000
v -1.170000 5.076499 0.000000
v -0.895479 5.211878 0.000000
v -0.605637 5.310266 0.000000
v -0.305431 5.369981 0.000000
v 0.000000 5.390000 0.000000
v 0.305431 5.369981 0.000000
v 0.605637 5.310266 0.000000
v 0.895479 5.211878 0.000000
v 1.170000 5.076499 0.000000
v 1.424502 4.906447 0.000000
v 1.654630 4.704630 0.000000
v 1.856447 4.474502 0.000000
v 2.026499 4.220000 0.000000
v 2.161878 3.945479 0.000000
v 2.260266 3.655637 0.000000
v 2.319981 3.355431 0.000000
v 2.340000 3.050000 0.000000
vt 0.995722 0.434737
vt 0.982963 0.370590
vt 0.961940 0.308658
vt 0.933013 0.250000
vt 0.896677 0.195619
vt 0.853553 0.146447
vt 0.804381 0.103323
vt 0.750000 0.066987
vt 0.691342 0.038060
vt 0.629410 0.017037
vt 0.565263 0.004278
vt 0.500000 0.000000
vt 0.434737 0.004278
vt 0.370590 0.017037
vt 0.308658 0.038060
vt 0.250000 0.066987
vt 0.195619 0.103323
vt 0.146447 0.146447
vt 0.103323 0.195619
vt 0.066987 0.250000
vt 0.038060 0.308658
vt 0.017037 0.370590
vt 0.004278 0.434737
vt 0.000000 0.500000
vt 0.004278 0.565263
vt 0.017037 0.629410
vt 0.038060 0.691342
vt 0.066987 0.750000
vt 0.103323 0.804381
vt 0.146447 0.853553
vt 0.195619 0.896677
vt 0.250000 0.933013
vt 0.308658 0.961940
vt 0.370590 0.982963
vt 0.434737 0.995722
vt 0.500000 1.000000
vt 0.565263 0.995722
vt 0.629410 0.982963
vt 0.691342 0.961940
vt 0.750000 0.933013
vt 0.804381 0.896677
vt 0.853553 0.853553
vt 0.896677 0.804381
vt 0.933013 0.750000
vt 0.961940 0.691342
vt 0.982963 0.629410
vt 0.995722 0.565263
vt 1.000000 0.500000
f 1/1 2/2 3/3 4/4 5/5 6/6 7/7 8/8 9/9 10/10 11/11 12/12 13/13 14/14 15/15 16/16 17/17 18/18 19/19 20/20 21/21 22/22 23/23 24/24 25/25 26/26 27/27 28/28 29/29 30/30 31/31 32/32 33/33 34/34 35/35 36/36 37/37 38/38 39/39 40/40 41/41 42/42 43/43 44/44 45/45 46/46 47/47 48/48
