# Rounded authored office prop; metres, Y-up
mtllib refined_palette.mtl
s 1
g top_crossbar
usemtl brass
v 0.916000 -0.009500 -0.055000
v 0.915070 -0.015371 -0.055000
v 0.912371 -0.020668 -0.055000
v 0.908168 -0.024871 -0.055000
v 0.902871 -0.027570 -0.055000
v 0.897000 -0.028500 -0.055000
v -0.897000 -0.028500 -0.055000
v -0.902871 -0.027570 -0.055000
v -0.908168 -0.024871 -0.055000
v -0.912371 -0.020668 -0.055000
v -0.915070 -0.015371 -0.055000
v -0.916000 -0.009500 -0.055000
v -0.916000 0.009500 -0.055000
v -0.915070 0.015371 -0.055000
v -0.912371 0.020668 -0.055000
v -0.908168 0.024871 -0.055000
v -0.902871 0.027570 -0.055000
v -0.897000 0.028500 -0.055000
v 0.897000 0.028500 -0.055000
v 0.902871 0.027570 -0.055000
v 0.908168 0.024871 -0.055000
v 0.912371 0.020668 -0.055000
v 0.915070 0.015371 -0.055000
v 0.916000 0.009500 -0.055000
vt 1.000000 0.333333
vt 0.999492 0.230328
vt 0.998019 0.137405
vt 0.995725 0.063661
vt 0.992834 0.016314
vt 0.989629 0.000000
vt 0.010371 0.000000
vt 0.007166 0.016314
vt 0.004275 0.063661
vt 0.001981 0.137405
vt 0.000508 0.230328
vt 0.000000 0.333333
vt 0.000000 0.666667
vt 0.000508 0.769672
vt 0.001981 0.862595
vt 0.004275 0.936339
vt 0.007166 0.983686
vt 0.010371 1.000000
vt 0.989629 1.000000
vt 0.992834 0.983686
vt 0.995725 0.936339
vt 0.998019 0.862595
vt 0.999492 0.769672
vt 1.000000 0.666667
f 1/1 2/2 3/3 4/4 5/5 6/6 7/7 8/8 9/9 10/10 11/11 12/12 13/13 14/14 15/15 16/16 17/17 18/18 19/19 20/20 21/21 22/22 23/23 24/24
v 0.916000 0.009500 0.055000
v 0.915070 0.015371 0.055000
v 0.912371 0.020668 0.055000
v 0.908168 0.024871 0.055000
v 0.902871 0.027570 0.055000
v 0.897000 0.028500 0.055000
v -0.897000 0.028500 0.055000
v -0.902871 0.027570 0.055000
v -0.908168 0.024871 0.055000
v -0.912371 0.020668 0.055000
v -0.915070 0.015371 0.055000
v -0.916000 0.009500 0.055000
v -0.916000 -0.009500 0.055000
v -0.915070 -0.015371 0.055000
v -0.912371 -0.020668 0.055000
v -0.908168 -0.024871 0.055000
v -0.902871 -0.027570 0.055000
v -0.897000 -0.028500 0.055000
v 0.897000 -0.028500 0.055000
v 0.902871 -0.027570 0.055000
v 0.908168 -0.024871 0.055000
v 0.912371 -0.020668 0.055000
v 0.915070 -0.015371 0.055000
v 0.916000 -0.009500 0.055000
vt 1.000000 0.666667
vt 0.999492 0.769672
vt 0.998019 0.862595
vt 0.995725 0.936339
vt 0.992834 0.983686
vt 0.989629 1.000000
vt 0.010371 1.000000
vt 0.007166 0.983686
vt 0.004275 0.936339
vt 0.001981 0.862595
vt 0.000508 0.769672
vt 0.000000 0.666667
vt 0.000000 0.333333
vt 0.000508 0.230328
vt 0.001981 0.137405
vt 0.004275 0.063661
vt 0.007166 0.016314
vt 0.010371 0.000000
vt 0.989629 0.000000
vt 0.992834 0.016314
vt 0.995725 0.063661
vt 0.998019 0.137405
vt 0.999492 0.230328
vt 1.000000 0.333333
f 25/25 26/26 27/27 28/28 29/29 30/30 31/31 32/32 33/33 34/34 35/35 36/36 37/37 38/38 39/39 40/40 41/41 42/42 43/43 44/44 45/45 46/46 47/47 48/48
v 0.916000 0.009500 -0.055000
v 0.915070 0.015371 -0.055000
v 0.933140 0.021243 -0.036000
v 0.935000 0.009500 -0.036000
vt 0.046660 0.000000
vt 0.000000 0.000000
vt 0.906680 1.000000
vt 1.000000 1.000000
f 49/49 50/50 51/51 52/52
v 0.915070 0.015371 -0.055000
v 0.912371 0.020668 -0.055000
v 0.927743 0.031836 -0.036000
v 0.933140 0.021243 -0.036000
vt 0.129942 0.000000
vt 0.000000 0.000000
vt 0.740115 1.000000
vt 1.000000 1.000000
f 53/53 54/54 55/55 56/56
v 0.912371 0.020668 -0.055000
v 0.908168 0.024871 -0.055000
v 0.919336 0.040243 -0.036000
v 0.927743 0.031836 -0.036000
vt 0.214736 0.000000
vt 0.000000 0.214736
vt 0.570528 1.000000
vt 1.000000 0.570528
f 57/57 58/58 59/59 60/60
v 0.908168 0.024871 -0.055000
v 0.902871 0.027570 -0.055000
v 0.908743 0.045640 -0.036000
v 0.919336 0.040243 -0.036000
vt 0.000000 0.000000
vt 0.000000 0.129942
vt 1.000000 1.000000
vt 1.000000 0.740115
f 61/61 62/62 63/63 64/64
v 0.902871 0.027570 -0.055000
v 0.897000 0.028500 -0.055000
v 0.897000 0.047500 -0.036000
v 0.908743 0.045640 -0.036000
vt 0.000000 0.000000
vt 0.000000 0.046660
vt 1.000000 1.000000
vt 1.000000 0.906680
f 65/65 66/66 67/67 68/68
v 0.897000 0.028500 -0.055000
v -0.897000 0.028500 -0.055000
v -0.897000 0.047500 -0.036000
v 0.897000 0.047500 -0.036000
vt 1.000000 0.000000
vt 0.000000 0.000000
vt 0.000000 1.000000
vt 1.000000 1.000000
f 69/69 70/70 71/71 72/72
v -0.897000 0.028500 -0.055000
v -0.902871 0.027570 -0.055000
v -0.908743 0.045640 -0.036000
v -0.897000 0.047500 -0.036000
vt 0.000000 0.046660
vt 0.000000 0.000000
vt 1.000000 0.906680
vt 1.000000 1.000000
f 73/73 74/74 75/75 76/76
v -0.902871 0.027570 -0.055000
v -0.908168 0.024871 -0.055000
v -0.919336 0.040243 -0.036000
v -0.908743 0.045640 -0.036000
vt 0.000000 0.129942
vt 0.000000 0.000000
vt 1.000000 0.740115
vt 1.000000 1.000000
f 77/77 78/78 79/79 80/80
v -0.908168 0.024871 -0.055000
v -0.912371 0.020668 -0.055000
v -0.927743 0.031836 -0.036000
v -0.919336 0.040243 -0.036000
vt 1.000000 0.214736
vt 0.785264 0.000000
vt 0.000000 0.570528
vt 0.429472 1.000000
f 81/81 82/82 83/83 84/84
v -0.912371 0.020668 -0.055000
v -0.915070 0.015371 -0.055000
v -0.933140 0.021243 -0.036000
v -0.927743 0.031836 -0.036000
vt 1.000000 0.000000
vt 0.870058 0.000000
vt 0.000000 1.000000
vt 0.259885 1.000000
f 85/85 86/86 87/87 88/88
v -0.915070 0.015371 -0.055000
v -0.916000 0.009500 -0.055000
v -0.935000 0.009500 -0.036000
v -0.933140 0.021243 -0.036000
vt 1.000000 0.000000
vt 0.953340 0.000000
vt 0.000000 1.000000
vt 0.093320 1.000000
f 89/89 90/90 91/91 92/92
v -0.916000 0.009500 -0.055000
v -0.916000 -0.009500 -0.055000
v -0.935000 -0.009500 -0.036000
v -0.935000 0.009500 -0.036000
vt 1.000000 0.000000
vt 1.000000 0.000000
vt 0.000000 1.000000
vt 0.000000 1.000000
f 93/93 94/94 95/95 96/96
v -0.916000 -0.009500 -0.055000
v -0.915070 -0.015371 -0.055000
v -0.933140 -0.021243 -0.036000
v -0.935000 -0.009500 -0.036000
vt 0.953340 0.000000
vt 1.000000 0.000000
vt 0.093320 1.000000
vt 0.000000 1.000000
f 97/97 98/98 99/99 100/100
v -0.915070 -0.015371 -0.055000
v -0.912371 -0.020668 -0.055000
v -0.927743 -0.031836 -0.036000
v -0.933140 -0.021243 -0.036000
vt 0.870058 0.000000
vt 1.000000 0.000000
vt 0.259885 1.000000
vt 0.000000 1.000000
f 101/101 102/102 103/103 104/104
v -0.912371 -0.020668 -0.055000
v -0.908168 -0.024871 -0.055000
v -0.919336 -0.040243 -0.036000
v -0.927743 -0.031836 -0.036000
vt 0.785264 1.000000
vt 1.000000 0.785264
vt 0.429472 0.000000
vt 0.000000 0.429472
f 105/105 106/106 107/107 108/108
v -0.908168 -0.024871 -0.055000
v -0.902871 -0.027570 -0.055000
v -0.908743 -0.045640 -0.036000
v -0.919336 -0.040243 -0.036000
vt 0.000000 1.000000
vt 0.000000 0.870058
vt 1.000000 0.000000
vt 1.000000 0.259885
f 109/109 110/110 111/111 112/112
v -0.902871 -0.027570 -0.055000
v -0.897000 -0.028500 -0.055000
v -0.897000 -0.047500 -0.036000
v -0.908743 -0.045640 -0.036000
vt 0.000000 1.000000
vt 0.000000 0.953340
vt 1.000000 0.000000
vt 1.000000 0.093320
f 113/113 114/114 115/115 116/116
v -0.897000 -0.028500 -0.055000
v 0.897000 -0.028500 -0.055000
v 0.897000 -0.047500 -0.036000
v -0.897000 -0.047500 -0.036000
vt 0.000000 1.000000
vt 1.000000 1.000000
vt 1.000000 0.000000
vt 0.000000 0.000000
f 117/117 118/118 119/119 120/120
v 0.897000 -0.028500 -0.055000
v 0.902871 -0.027570 -0.055000
v 0.908743 -0.045640 -0.036000
v 0.897000 -0.047500 -0.036000
vt 0.000000 0.953340
vt 0.000000 1.000000
vt 1.000000 0.093320
vt 1.000000 0.000000
f 121/121 122/122 123/123 124/124
v 0.902871 -0.027570 -0.055000
v 0.908168 -0.024871 -0.055000
v 0.919336 -0.040243 -0.036000
v 0.908743 -0.045640 -0.036000
vt 0.000000 0.870058
vt 0.000000 1.000000
vt 1.000000 0.259885
vt 1.000000 0.000000
f 125/125 126/126 127/127 128/128
v 0.908168 -0.024871 -0.055000
v 0.912371 -0.020668 -0.055000
v 0.927743 -0.031836 -0.036000
v 0.919336 -0.040243 -0.036000
vt 0.000000 0.785264
vt 0.214736 1.000000
vt 1.000000 0.429472
vt 0.570528 0.000000
f 129/129 130/130 131/131 132/132
v 0.912371 -0.020668 -0.055000
v 0.915070 -0.015371 -0.055000
v 0.933140 -0.021243 -0.036000
v 0.927743 -0.031836 -0.036000
vt 0.000000 0.000000
vt 0.129942 0.000000
vt 1.000000 1.000000
vt 0.740115 1.000000
f 133/133 134/134 135/135 136/136
v 0.915070 -0.015371 -0.055000
v 0.916000 -0.009500 -0.055000
v 0.935000 -0.009500 -0.036000
v 0.933140 -0.021243 -0.036000
vt 0.000000 0.000000
vt 0.046660 0.000000
vt 1.000000 1.000000
vt 0.906680 1.000000
f 137/137 138/138 139/139 140/140
v 0.916000 -0.009500 -0.055000
v 0.916000 0.009500 -0.055000
v 0.935000 0.009500 -0.036000
v 0.935000 -0.009500 -0.036000
vt 0.000000 0.000000
vt 0.000000 0.000000
vt 1.000000 1.000000
vt 1.000000 1.000000
f 141/141 142/142 143/143 144/144
v 0.935000 0.009500 -0.036000
v 0.933140 0.021243 -0.036000
v 0.933140 0.021243 0.036000
v 0.935000 0.009500 0.036000
vt 0.000000 0.000000
vt 0.000000 1.000000
vt 1.000000 1.000000
vt 1.000000 0.000000
f 145/145 146/146 147/147 148/148
v 0.933140 0.021243 -0.036000
v 0.927743 0.031836 -0.036000
v 0.927743 0.031836 0.036000
v 0.933140 0.021243 0.036000
vt 0.000000 0.000000
vt 0.000000 1.000000
vt 1.000000 1.000000
vt 1.000000 0.000000
f 149/149 150/150 151/151 152/152
v 0.927743 0.031836 -0.036000
v 0.919336 0.040243 -0.036000
v 0.919336 0.040243 0.036000
v 0.927743 0.031836 0.036000
vt 1.000000 0.000000
vt 0.000000 0.000000
vt 0.000000 1.000000
vt 1.000000 1.000000
f 153/153 154/154 155/155 156/156
v 0.919336 0.040243 -0.036000
v 0.908743 0.045640 -0.036000
v 0.908743 0.045640 0.036000
v 0.919336 0.040243 0.036000
vt 1.000000 0.000000
vt 0.000000 0.000000
vt 0.000000 1.000000
vt 1.000000 1.000000
f 157/157 158/158 159/159 160/160
v 0.908743 0.045640 -0.036000
v 0.897000 0.047500 -0.036000
v 0.897000 0.047500 0.036000
v 0.908743 0.045640 0.036000
vt 1.000000 0.000000
vt 0.000000 0.000000
vt 0.000000 1.000000
vt 1.000000 1.000000
f 161/161 162/162 163/163 164/164
v 0.897000 0.047500 -0.036000
v -0.897000 0.047500 -0.036000
v -0.897000 0.047500 0.036000
v 0.897000 0.047500 0.036000
vt 1.000000 0.000000
vt 0.000000 0.000000
vt 0.000000 1.000000
vt 1.000000 1.000000
f 165/165 166/166 167/167 168/168
v -0.897000 0.047500 -0.036000
v -0.908743 0.045640 -0.036000
v -0.908743 0.045640 0.036000
v -0.897000 0.047500 0.036000
vt 1.000000 0.000000
vt 0.000000 0.000000
vt 0.000000 1.000000
vt 1.000000 1.000000
f 169/169 170/170 171/171 172/172
v -0.908743 0.045640 -0.036000
v -0.919336 0.040243 -0.036000
v -0.919336 0.040243 0.036000
v -0.908743 0.045640 0.036000
vt 1.000000 0.000000
vt 0.000000 0.000000
vt 0.000000 1.000000
vt 1.000000 1.000000
f 173/173 174/174 175/175 176/176
v -0.919336 0.040243 -0.036000
v -0.927743 0.031836 -0.036000
v -0.927743 0.031836 0.036000
v -0.919336 0.040243 0.036000
vt 1.000000 0.000000
vt 0.000000 0.000000
vt 0.000000 1.000000
vt 1.000000 1.000000
f 177/177 178/178 179/179 180/180
v -0.927743 0.031836 -0.036000
v -0.933140 0.021243 -0.036000
v -0.933140 0.021243 0.036000
v -0.927743 0.031836 0.036000
vt 0.000000 1.000000
vt 0.000000 0.000000
vt 1.000000 0.000000
vt 1.000000 1.000000
f 181/181 182/182 183/183 184/184
v -0.933140 0.021243 -0.036000
v -0.935000 0.009500 -0.036000
v -0.935000 0.009500 0.036000
v -0.933140 0.021243 0.036000
vt 0.000000 1.000000
vt 0.000000 0.000000
vt 1.000000 0.000000
vt 1.000000 1.000000
f 185/185 186/186 187/187 188/188
v -0.935000 0.009500 -0.036000
v -0.935000 -0.009500 -0.036000
v -0.935000 -0.009500 0.036000
v -0.935000 0.009500 0.036000
vt 0.000000 1.000000
vt 0.000000 0.000000
vt 1.000000 0.000000
vt 1.000000 1.000000
f 189/189 190/190 191/191 192/192
v -0.935000 -0.009500 -0.036000
v -0.933140 -0.021243 -0.036000
v -0.933140 -0.021243 0.036000
v -0.935000 -0.009500 0.036000
vt 0.000000 1.000000
vt 0.000000 0.000000
vt 1.000000 0.000000
vt 1.000000 1.000000
f 193/193 194/194 195/195 196/196
v -0.933140 -0.021243 -0.036000
v -0.927743 -0.031836 -0.036000
v -0.927743 -0.031836 0.036000
v -0.933140 -0.021243 0.036000
vt 0.000000 1.000000
vt 0.000000 0.000000
vt 1.000000 0.000000
vt 1.000000 1.000000
f 197/197 198/198 199/199 200/200
v -0.927743 -0.031836 -0.036000
v -0.919336 -0.040243 -0.036000
v -0.919336 -0.040243 0.036000
v -0.927743 -0.031836 0.036000
vt 0.000000 0.000000
vt 1.000000 0.000000
vt 1.000000 1.000000
vt 0.000000 1.000000
f 201/201 202/202 203/203 204/204
v -0.919336 -0.040243 -0.036000
v -0.908743 -0.045640 -0.036000
v -0.908743 -0.045640 0.036000
v -0.919336 -0.040243 0.036000
vt 0.000000 0.000000
vt 1.000000 0.000000
vt 1.000000 1.000000
vt 0.000000 1.000000
f 205/205 206/206 207/207 208/208
v -0.908743 -0.045640 -0.036000
v -0.897000 -0.047500 -0.036000
v -0.897000 -0.047500 0.036000
v -0.908743 -0.045640 0.036000
vt 0.000000 0.000000
vt 1.000000 0.000000
vt 1.000000 1.000000
vt 0.000000 1.000000
f 209/209 210/210 211/211 212/212
v -0.897000 -0.047500 -0.036000
v 0.897000 -0.047500 -0.036000
v 0.897000 -0.047500 0.036000
v -0.897000 -0.047500 0.036000
vt 0.000000 0.000000
vt 1.000000 0.000000
vt 1.000000 1.000000
vt 0.000000 1.000000
f 213/213 214/214 215/215 216/216
v 0.897000 -0.047500 -0.036000
v 0.908743 -0.045640 -0.036000
v 0.908743 -0.045640 0.036000
v 0.897000 -0.047500 0.036000
vt 0.000000 0.000000
vt 1.000000 0.000000
vt 1.000000 1.000000
vt 0.000000 1.000000
f 217/217 218/218 219/219 220/220
v 0.908743 -0.045640 -0.036000
v 0.919336 -0.040243 -0.036000
v 0.919336 -0.040243 0.036000
v 0.908743 -0.045640 0.036000
vt 0.000000 0.000000
vt 1.000000 0.000000
vt 1.000000 1.000000
vt 0.000000 1.000000
f 221/221 222/222 223/223 224/224
v 0.919336 -0.040243 -0.036000
v 0.927743 -0.031836 -0.036000
v 0.927743 -0.031836 0.036000
v 0.919336 -0.040243 0.036000
vt 0.000000 0.000000
vt 1.000000 0.000000
vt 1.000000 1.000000
vt 0.000000 1.000000
f 225/225 226/226 227/227 228/228
v 0.927743 -0.031836 -0.036000
v 0.933140 -0.021243 -0.036000
v 0.933140 -0.021243 0.036000
v 0.927743 -0.031836 0.036000
vt 0.000000 0.000000
vt 0.000000 1.000000
vt 1.000000 1.000000
vt 1.000000 0.000000
f 229/229 230/230 231/231 232/232
v 0.933140 -0.021243 -0.036000
v 0.935000 -0.009500 -0.036000
v 0.935000 -0.009500 0.036000
v 0.933140 -0.021243 0.036000
vt 0.000000 0.000000
vt 0.000000 1.000000
vt 1.000000 1.000000
vt 1.000000 0.000000
f 233/233 234/234 235/235 236/236
v 0.935000 -0.009500 -0.036000
v 0.935000 0.009500 -0.036000
v 0.935000 0.009500 0.036000
v 0.935000 -0.009500 0.036000
vt 0.000000 0.000000
vt 0.000000 1.000000
vt 1.000000 1.000000
vt 1.000000 0.000000
f 237/237 238/238 239/239 240/240
v 0.935000 0.009500 0.036000
v 0.933140 0.021243 0.036000
v 0.915070 0.015371 0.055000
v 0.916000 0.009500 0.055000
vt 1.000000 0.000000
vt 0.906680 0.000000
vt 0.000000 1.000000
vt 0.046660 1.000000
f 241/241 242/242 243/243 244/244
v 0.933140 0.021243 0.036000
v 0.927743 0.031836 0.036000
v 0.912371 0.020668 0.055000
v 0.915070 0.015371 0.055000
vt 1.000000 0.000000
vt 0.740115 0.000000
vt 0.000000 1.000000
vt 0.129942 1.000000
f 245/245 246/246 247/247 248/248
v 0.927743 0.031836 0.036000
v 0.919336 0.040243 0.036000
v 0.908168 0.024871 0.055000
v 0.912371 0.020668 0.055000
vt 1.000000 0.570528
vt 0.570528 1.000000
vt 0.000000 0.214736
vt 0.214736 0.000000
f 249/249 250/250 251/251 252/252
v 0.919336 0.040243 0.036000
v 0.908743 0.045640 0.036000
v 0.902871 0.027570 0.055000
v 0.908168 0.024871 0.055000
vt 0.000000 0.740115
vt 0.000000 1.000000
vt 1.000000 0.129942
vt 1.000000 0.000000
f 253/253 254/254 255/255 256/256
v 0.908743 0.045640 0.036000
v 0.897000 0.047500 0.036000
v 0.897000 0.028500 0.055000
v 0.902871 0.027570 0.055000
vt 0.000000 0.906680
vt 0.000000 1.000000
vt 1.000000 0.046660
vt 1.000000 0.000000
f 257/257 258/258 259/259 260/260
v 0.897000 0.047500 0.036000
v -0.897000 0.047500 0.036000
v -0.897000 0.028500 0.055000
v 0.897000 0.028500 0.055000
vt 1.000000 1.000000
vt 0.000000 1.000000
vt 0.000000 0.000000
vt 1.000000 0.000000
f 261/261 262/262 263/263 264/264
v -0.897000 0.047500 0.036000
v -0.908743 0.045640 0.036000
v -0.902871 0.027570 0.055000
v -0.897000 0.028500 0.055000
vt 0.000000 1.000000
vt 0.000000 0.906680
vt 1.000000 0.000000
vt 1.000000 0.046660
f 265/265 266/266 267/267 268/268
v -0.908743 0.045640 0.036000
v -0.919336 0.040243 0.036000
v -0.908168 0.024871 0.055000
v -0.902871 0.027570 0.055000
vt 0.000000 1.000000
vt 0.000000 0.740115
vt 1.000000 0.000000
vt 1.000000 0.129942
f 269/269 270/270 271/271 272/272
v -0.919336 0.040243 0.036000
v -0.927743 0.031836 0.036000
v -0.912371 0.020668 0.055000
v -0.908168 0.024871 0.055000
vt 0.429472 1.000000
vt 0.000000 0.570528
vt 0.785264 0.000000
vt 1.000000 0.214736
f 273/273 274/274 275/275 276/276
v -0.927743 0.031836 0.036000
v -0.933140 0.021243 0.036000
v -0.915070 0.015371 0.055000
v -0.912371 0.020668 0.055000
vt 0.259885 0.000000
vt 0.000000 0.000000
vt 0.870058 1.000000
vt 1.000000 1.000000
f 277/277 278/278 279/279 280/280
v -0.933140 0.021243 0.036000
v -0.935000 0.009500 0.036000
v -0.916000 0.009500 0.055000
v -0.915070 0.015371 0.055000
vt 0.093320 0.000000
vt 0.000000 0.000000
vt 0.953340 1.000000
vt 1.000000 1.000000
f 281/281 282/282 283/283 284/284
v -0.935000 0.009500 0.036000
v -0.935000 -0.009500 0.036000
v -0.916000 -0.009500 0.055000
v -0.916000 0.009500 0.055000
vt 0.000000 0.000000
vt 0.000000 0.000000
vt 1.000000 1.000000
vt 1.000000 1.000000
f 285/285 286/286 287/287 288/288
v -0.935000 -0.009500 0.036000
v -0.933140 -0.021243 0.036000
v -0.915070 -0.015371 0.055000
v -0.916000 -0.009500 0.055000
vt 0.000000 0.000000
vt 0.093320 0.000000
vt 1.000000 1.000000
vt 0.953340 1.000000
f 289/289 290/290 291/291 292/292
v -0.933140 -0.021243 0.036000
v -0.927743 -0.031836 0.036000
v -0.912371 -0.020668 0.055000
v -0.915070 -0.015371 0.055000
vt 0.000000 0.000000
vt 0.259885 0.000000
vt 1.000000 1.000000
vt 0.870058 1.000000
f 293/293 294/294 295/295 296/296
v -0.927743 -0.031836 0.036000
v -0.919336 -0.040243 0.036000
v -0.908168 -0.024871 0.055000
v -0.912371 -0.020668 0.055000
vt 0.000000 0.429472
vt 0.429472 0.000000
vt 1.000000 0.785264
vt 0.785264 1.000000
f 297/297 298/298 299/299 300/300
v -0.919336 -0.040243 0.036000
v -0.908743 -0.045640 0.036000
v -0.902871 -0.027570 0.055000
v -0.908168 -0.024871 0.055000
vt 0.000000 0.259885
vt 0.000000 0.000000
vt 1.000000 0.870058
vt 1.000000 1.000000
f 301/301 302/302 303/303 304/304
v -0.908743 -0.045640 0.036000
v -0.897000 -0.047500 0.036000
v -0.897000 -0.028500 0.055000
v -0.902871 -0.027570 0.055000
vt 0.000000 0.093320
vt 0.000000 0.000000
vt 1.000000 0.953340
vt 1.000000 1.000000
f 305/305 306/306 307/307 308/308
v -0.897000 -0.047500 0.036000
v 0.897000 -0.047500 0.036000
v 0.897000 -0.028500 0.055000
v -0.897000 -0.028500 0.055000
vt 0.000000 0.000000
vt 1.000000 0.000000
vt 1.000000 1.000000
vt 0.000000 1.000000
f 309/309 310/310 311/311 312/312
v 0.897000 -0.047500 0.036000
v 0.908743 -0.045640 0.036000
v 0.902871 -0.027570 0.055000
v 0.897000 -0.028500 0.055000
vt 0.000000 0.000000
vt 0.000000 0.093320
vt 1.000000 1.000000
vt 1.000000 0.953340
f 313/313 314/314 315/315 316/316
v 0.908743 -0.045640 0.036000
v 0.919336 -0.040243 0.036000
v 0.908168 -0.024871 0.055000
v 0.902871 -0.027570 0.055000
vt 0.000000 0.000000
vt 0.000000 0.259885
vt 1.000000 1.000000
vt 1.000000 0.870058
f 317/317 318/318 319/319 320/320
v 0.919336 -0.040243 0.036000
v 0.927743 -0.031836 0.036000
v 0.912371 -0.020668 0.055000
v 0.908168 -0.024871 0.055000
vt 0.570528 0.000000
vt 1.000000 0.429472
vt 0.214736 1.000000
vt 0.000000 0.785264
f 321/321 322/322 323/323 324/324
v 0.927743 -0.031836 0.036000
v 0.933140 -0.021243 0.036000
v 0.915070 -0.015371 0.055000
v 0.912371 -0.020668 0.055000
vt 0.740115 0.000000
vt 1.000000 0.000000
vt 0.129942 1.000000
vt 0.000000 1.000000
f 325/325 326/326 327/327 328/328
v 0.933140 -0.021243 0.036000
v 0.935000 -0.009500 0.036000
v 0.916000 -0.009500 0.055000
v 0.915070 -0.015371 0.055000
vt 0.906680 0.000000
vt 1.000000 0.000000
vt 0.046660 1.000000
vt 0.000000 1.000000
f 329/329 330/330 331/331 332/332
v 0.935000 -0.009500 0.036000
v 0.935000 0.009500 0.036000
v 0.916000 0.009500 0.055000
v 0.916000 -0.009500 0.055000
vt 1.000000 0.000000
vt 1.000000 0.000000
vt 0.000000 1.000000
vt 0.000000 1.000000
f 333/333 334/334 335/335 336/336
g cloth_blank
usemtl teal
v -0.825000 -0.080000 0.000000
v -0.825000 -0.520000 0.000700
v -0.687500 -0.520000 0.021589
v -0.687500 -0.080000 0.016069
vt 0.000000 1.000000
vt 0.000000 0.000000
vt 1.000000 0.000000
vt 1.000000 1.000000
f 337/337 338/338 339/339 340/340
g cloth_back
usemtl teal
v -0.687500 -0.080000 0.016069
v -0.687500 -0.520000 0.021589
v -0.825000 -0.520000 0.000700
v -0.825000 -0.080000 0.000000
vt 1.000000 1.000000
vt 1.000000 0.000000
vt 0.000000 0.000000
vt 0.000000 1.000000
f 341/341 342/342 343/343 344/344
g cloth_blank
usemtl teal
v -0.825000 -0.520000 0.000700
v -0.825000 -0.960000 0.002800
v -0.687500 -0.960000 0.028510
v -0.687500 -0.520000 0.021589
vt 0.000000 1.000000
vt 0.000000 0.000000
vt 1.000000 0.000000
vt 1.000000 1.000000
f 345/345 346/346 347/347 348/348
g cloth_back
usemtl teal
v -0.687500 -0.520000 0.021589
v -0.687500 -0.960000 0.028510
v -0.825000 -0.960000 0.002800
v -0.825000 -0.520000 0.000700
vt 1.000000 1.000000
vt 1.000000 0.000000
vt 0.000000 0.000000
vt 0.000000 1.000000
f 349/349 350/350 351/351 352/352
g cloth_blank
usemtl teal
v -0.825000 -0.960000 0.002800
v -0.825000 -1.400000 0.006300
v -0.687500 -1.400000 0.036831
v -0.687500 -0.960000 0.028510
vt 0.000000 1.000000
vt 0.000000 0.000000
vt 1.000000 0.000000
vt 1.000000 1.000000
f 353/353 354/354 355/355 356/356
g cloth_back
usemtl teal
v -0.687500 -0.960000 0.028510
v -0.687500 -1.400000 0.036831
v -0.825000 -1.400000 0.006300
v -0.825000 -0.960000 0.002800
vt 1.000000 1.000000
vt 1.000000 0.000000
vt 0.000000 0.000000
vt 0.000000 1.000000
f 357/357 358/358 359/359 360/360
g cloth_blank
usemtl teal
v -0.825000 -1.400000 0.006300
v -0.825000 -1.840000 0.011200
v -0.687500 -1.840000 0.046551
v -0.687500 -1.400000 0.036831
vt 0.000000 1.000000
vt 0.000000 0.000000
vt 1.000000 0.000000
vt 1.000000 1.000000
f 361/361 362/362 363/363 364/364
g cloth_back
usemtl teal
v -0.687500 -1.400000 0.036831
v -0.687500 -1.840000 0.046551
v -0.825000 -1.840000 0.011200
v -0.825000 -1.400000 0.006300
vt 1.000000 1.000000
vt 1.000000 0.000000
vt 0.000000 0.000000
vt 0.000000 1.000000
f 365/365 366/366 367/367 368/368
g cloth_blank
usemtl teal
v -0.825000 -1.840000 0.011200
v -0.825000 -2.280000 0.017500
v -0.687500 -2.280000 0.057672
v -0.687500 -1.840000 0.046551
vt 0.000000 1.000000
vt 0.000000 0.000000
vt 1.000000 0.000000
vt 1.000000 1.000000
f 369/369 370/370 371/371 372/372
g cloth_back
usemtl teal
v -0.687500 -1.840000 0.046551
v -0.687500 -2.280000 0.057672
v -0.825000 -2.280000 0.017500
v -0.825000 -1.840000 0.011200
vt 1.000000 1.000000
vt 1.000000 0.000000
vt 0.000000 0.000000
vt 0.000000 1.000000
f 373/373 374/374 375/375 376/376
g cloth_blank
usemtl teal
v -0.825000 -2.280000 0.017500
v -0.825000 -2.720000 0.025200
v -0.687500 -2.720000 0.070193
v -0.687500 -2.280000 0.057672
vt 0.000000 1.000000
vt 0.000000 0.000000
vt 1.000000 0.000000
vt 1.000000 1.000000
f 377/377 378/378 379/379 380/380
g cloth_back
usemtl teal
v -0.687500 -2.280000 0.057672
v -0.687500 -2.720000 0.070193
v -0.825000 -2.720000 0.025200
v -0.825000 -2.280000 0.017500
vt 1.000000 1.000000
vt 1.000000 0.000000
vt 0.000000 0.000000
vt 0.000000 1.000000
f 381/381 382/382 383/383 384/384
g cloth_blank
usemtl teal
v -0.825000 -2.720000 0.025200
v -0.825000 -3.160000 0.034300
v -0.687500 -3.160000 0.084113
v -0.687500 -2.720000 0.070193
vt 0.000000 1.000000
vt 0.000000 0.000000
vt 1.000000 0.000000
vt 1.000000 1.000000
f 385/385 386/386 387/387 388/388
g cloth_back
usemtl teal
v -0.687500 -2.720000 0.070193
v -0.687500 -3.160000 0.084113
v -0.825000 -3.160000 0.034300
v -0.825000 -2.720000 0.025200
vt 1.000000 1.000000
vt 1.000000 0.000000
vt 0.000000 0.000000
vt 0.000000 1.000000
f 389/389 390/390 391/391 392/392
g cloth_blank
usemtl teal
v -0.825000 -3.160000 0.034300
v -0.825000 -3.600000 0.044800
v -0.687500 -3.600000 0.099434
v -0.687500 -3.160000 0.084113
vt 0.000000 1.000000
vt 0.000000 0.000000
vt 1.000000 0.000000
vt 1.000000 1.000000
f 393/393 394/394 395/395 396/396
g cloth_back
usemtl teal
v -0.687500 -3.160000 0.084113
v -0.687500 -3.600000 0.099434
v -0.825000 -3.600000 0.044800
v -0.825000 -3.160000 0.034300
vt 1.000000 1.000000
vt 1.000000 0.000000
vt 0.000000 0.000000
vt 0.000000 1.000000
f 397/397 398/398 399/399 400/400
g cloth_blank
usemtl teal
v -0.825000 -3.600000 0.044800
v -0.825000 -4.040000 0.056700
v -0.687500 -4.040000 0.116154
v -0.687500 -3.600000 0.099434
vt 0.000000 1.000000
vt 0.000000 0.000000
vt 1.000000 0.000000
vt 1.000000 1.000000
f 401/401 402/402 403/403 404/404
g cloth_back
usemtl teal
v -0.687500 -3.600000 0.099434
v -0.687500 -4.040000 0.116154
v -0.825000 -4.040000 0.056700
v -0.825000 -3.600000 0.044800
vt 1.000000 1.000000
vt 1.000000 0.000000
vt 0.000000 0.000000
vt 0.000000 1.000000
f 405/405 406/406 407/407 408/408
g cloth_blank
usemtl teal
v -0.825000 -4.040000 0.056700
v -0.825000 -4.480000 0.070000
v -0.687500 -4.480000 0.134275
v -0.687500 -4.040000 0.116154
vt 0.000000 1.000000
vt 0.000000 0.000000
vt 1.000000 0.000000
vt 1.000000 1.000000
f 409/409 410/410 411/411 412/412
g cloth_back
usemtl teal
v -0.687500 -4.040000 0.116154
v -0.687500 -4.480000 0.134275
v -0.825000 -4.480000 0.070000
v -0.825000 -4.040000 0.056700
vt 1.000000 1.000000
vt 1.000000 0.000000
vt 0.000000 0.000000
vt 0.000000 1.000000
f 413/413 414/414 415/415 416/416
g cloth_blank
usemtl teal
v -0.687500 -0.080000 0.016069
v -0.687500 -0.520000 0.021589
v -0.550000 -0.520000 0.017248
v -0.550000 -0.080000 0.012729
vt 0.000000 1.000000
vt 0.000000 0.000000
vt 1.000000 0.000000
vt 1.000000 1.000000
f 417/417 418/418 419/419 420/420
g cloth_back
usemtl teal
v -0.550000 -0.080000 0.012729
v -0.550000 -0.520000 0.017248
v -0.687500 -0.520000 0.021589
v -0.687500 -0.080000 0.016069
vt 1.000000 1.000000
vt 1.000000 0.000000
vt 0.000000 0.000000
vt 0.000000 1.000000
f 421/421 422/422 423/423 424/424
g cloth_blank
usemtl teal
v -0.687500 -0.520000 0.021589
v -0.687500 -0.960000 0.028510
v -0.550000 -0.960000 0.023166
v -0.550000 -0.520000 0.017248
vt 0.000000 1.000000
vt 0.000000 0.000000
vt 1.000000 0.000000
vt 1.000000 1.000000
f 425/425 426/426 427/427 428/428
g cloth_back
usemtl teal
v -0.550000 -0.520000 0.017248
v -0.550000 -0.960000 0.023166
v -0.687500 -0.960000 0.028510
v -0.687500 -0.520000 0.021589
vt 1.000000 1.000000
vt 1.000000 0.000000
vt 0.000000 0.000000
vt 0.000000 1.000000
f 429/429 430/430 431/431 432/432
g cloth_blank
usemtl teal
v -0.687500 -0.960000 0.028510
v -0.687500 -1.400000 0.036831
v -0.550000 -1.400000 0.030485
v -0.550000 -0.960000 0.023166
vt 0.000000 1.000000
vt 0.000000 0.000000
vt 1.000000 0.000000
vt 1.000000 1.000000
f 433/433 434/434 435/435 436/436
g cloth_back
usemtl teal
v -0.550000 -0.960000 0.023166
v -0.550000 -1.400000 0.030485
v -0.687500 -1.400000 0.036831
v -0.687500 -0.960000 0.028510
vt 1.000000 1.000000
vt 1.000000 0.000000
vt 0.000000 0.000000
vt 0.000000 1.000000
f 437/437 438/438 439/439 440/440
g cloth_blank
usemtl teal
v -0.687500 -1.400000 0.036831
v -0.687500 -1.840000 0.046551
v -0.550000 -1.840000 0.039204
v -0.550000 -1.400000 0.030485
vt 0.000000 1.000000
vt 0.000000 0.000000
vt 1.000000 0.000000
vt 1.000000 1.000000
f 441/441 442/442 443/443 444/444
g cloth_back
usemtl teal
v -0.550000 -1.400000 0.030485
v -0.550000 -1.840000 0.039204
v -0.687500 -1.840000 0.046551
v -0.687500 -1.400000 0.036831
vt 1.000000 1.000000
vt 1.000000 0.000000
vt 0.000000 0.000000
vt 0.000000 1.000000
f 445/445 446/446 447/447 448/448
g cloth_blank
usemtl teal
v -0.687500 -1.840000 0.046551
v -0.687500 -2.280000 0.057672
v -0.550000 -2.280000 0.049323
v -0.550000 -1.840000 0.039204
vt 0.000000 1.000000
vt 0.000000 0.000000
vt 1.000000 0.000000
vt 1.000000 1.000000
f 449/449 450/450 451/451 452/452
g cloth_back
usemtl teal
v -0.550000 -1.840000 0.039204
v -0.550000 -2.280000 0.049323
v -0.687500 -2.280000 0.057672
v -0.687500 -1.840000 0.046551
vt 1.000000 1.000000
vt 1.000000 0.000000
vt 0.000000 0.000000
vt 0.000000 1.000000
f 453/453 454/454 455/455 456/456
g cloth_blank
usemtl teal
v -0.687500 -2.280000 0.057672
v -0.687500 -2.720000 0.070193
v -0.550000 -2.720000 0.060841
v -0.550000 -2.280000 0.049323
vt 0.000000 1.000000
vt 0.000000 0.000000
vt 1.000000 0.000000
vt 1.000000 1.000000
f 457/457 458/458 459/459 460/460
g cloth_back
usemtl teal
v -0.550000 -2.280000 0.049323
v -0.550000 -2.720000 0.060841
v -0.687500 -2.720000 0.070193
v -0.687500 -2.280000 0.057672
vt 1.000000 1.000000
vt 1.000000 0.000000
vt 0.000000 0.000000
vt 0.000000 1.000000
f 461/461 462/462 463/463 464/464
g cloth_blank
usemtl teal
v -0.687500 -2.720000 0.070193
v -0.687500 -3.160000 0.084113
v -0.550000 -3.160000 0.073760
v -0.550000 -2.720000 0.060841
vt 0.000000 1.000000
vt 0.000000 0.000000
vt 1.000000 0.000000
vt 1.000000 1.000000
f 465/465 466/466 467/467 468/468
g cloth_back
usemtl teal
v -0.550000 -2.720000 0.060841
v -0.550000 -3.160000 0.073760
v -0.687500 -3.160000 0.084113
v -0.687500 -2.720000 0.070193
vt 1.000000 1.000000
vt 1.000000 0.000000
vt 0.000000 0.000000
vt 0.000000 1.000000
f 469/469 470/470 471/471 472/472
g cloth_blank
usemtl teal
v -0.687500 -3.160000 0.084113
v -0.687500 -3.600000 0.099434
v -0.550000 -3.600000 0.088079
v -0.550000 -3.160000 0.073760
vt 0.000000 1.000000
vt 0.000000 0.000000
vt 1.000000 0.000000
vt 1.000000 1.000000
f 473/473 474/474 475/475 476/476
g cloth_back
usemtl teal
v -0.550000 -3.160000 0.073760
v -0.550000 -3.600000 0.088079
v -0.687500 -3.600000 0.099434
v -0.687500 -3.160000 0.084113
vt 1.000000 1.000000
vt 1.000000 0.000000
vt 0.000000 0.000000
vt 0.000000 1.000000
f 477/477 478/478 479/479 480/480
g cloth_blank
usemtl teal
v -0.687500 -3.600000 0.099434
v -0.687500 -4.040000 0.116154
v -0.550000 -4.040000 0.103797
v -0.550000 -3.600000 0.088079
vt 0.000000 1.000000
vt 0.000000 0.000000
vt 1.000000 0.000000
vt 1.000000 1.000000
f 481/481 482/482 483/483 484/484
g cloth_back
usemtl teal
v -0.550000 -3.600000 0.088079
v -0.550000 -4.040000 0.103797
v -0.687500 -4.040000 0.116154
v -0.687500 -3.600000 0.099434
vt 1.000000 1.000000
vt 1.000000 0.000000
vt 0.000000 0.000000
vt 0.000000 1.000000
f 485/485 486/486 487/487 488/488
g cloth_blank
usemtl teal
v -0.687500 -4.040000 0.116154
v -0.687500 -4.480000 0.134275
v -0.550000 -4.480000 0.120916
v -0.550000 -4.040000 0.103797
vt 0.000000 1.000000
vt 0.000000 0.000000
vt 1.000000 0.000000
vt 1.000000 1.000000
f 489/489 490/490 491/491 492/492
g cloth_back
usemtl teal
v -0.550000 -4.040000 0.103797
v -0.550000 -4.480000 0.120916
v -0.687500 -4.480000 0.134275
v -0.687500 -4.040000 0.116154
vt 1.000000 1.000000
vt 1.000000 0.000000
vt 0.000000 0.000000
vt 0.000000 1.000000
f 493/493 494/494 495/495 496/496
g cloth_blank
usemtl teal
v -0.550000 -0.080000 0.012729
v -0.550000 -0.520000 0.017248
v -0.412500 -0.520000 -0.007081
v -0.412500 -0.080000 -0.005985
vt 0.000000 1.000000
vt 0.000000 0.000000
vt 1.000000 0.000000
vt 1.000000 1.000000
f 497/497 498/498 499/499 500/500
g cloth_back
usemtl teal
v -0.412500 -0.080000 -0.005985
v -0.412500 -0.520000 -0.007081
v -0.550000 -0.520000 0.017248
v -0.550000 -0.080000 0.012729
vt 1.000000 1.000000
vt 1.000000 0.000000
vt 0.000000 0.000000
vt 0.000000 1.000000
f 501/501 502/502 503/503 504/504
g cloth_blank
usemtl teal
v -0.550000 -0.520000 0.017248
v -0.550000 -0.960000 0.023166
v -0.412500 -0.960000 -0.006777
v -0.412500 -0.520000 -0.007081
vt 0.000000 1.000000
vt 0.000000 0.000000
vt 1.000000 0.000000
vt 1.000000 1.000000
f 505/505 506/506 507/507 508/508
g cloth_back
usemtl teal
v -0.412500 -0.520000 -0.007081
v -0.412500 -0.960000 -0.006777
v -0.550000 -0.960000 0.023166
v -0.550000 -0.520000 0.017248
vt 1.000000 1.000000
vt 1.000000 0.000000
vt 0.000000 0.000000
vt 0.000000 1.000000
f 509/509 510/510 511/511 512/512
g cloth_blank
usemtl teal
v -0.550000 -0.960000 0.023166
v -0.550000 -1.400000 0.030485
v -0.412500 -1.400000 -0.005072
v -0.412500 -0.960000 -0.006777
vt 0.000000 1.000000
vt 0.000000 0.000000
vt 1.000000 0.000000
vt 1.000000 1.000000
f 513/513 514/514 515/515 516/516
g cloth_back
usemtl teal
v -0.412500 -0.960000 -0.006777
v -0.412500 -1.400000 -0.005072
v -0.550000 -1.400000 0.030485
v -0.550000 -0.960000 0.023166
vt 1.000000 1.000000
vt 1.000000 0.000000
vt 0.000000 0.000000
vt 0.000000 1.000000
f 517/517 518/518 519/519 520/520
g cloth_blank
usemtl teal
v -0.550000 -1.400000 0.030485
v -0.550000 -1.840000 0.039204
v -0.412500 -1.840000 -0.001968
v -0.412500 -1.400000 -0.005072
vt 0.000000 1.000000
vt 0.000000 0.000000
vt 1.000000 0.000000
vt 1.000000 1.000000
f 521/521 522/522 523/523 524/524
g cloth_back
usemtl teal
v -0.412500 -1.400000 -0.005072
v -0.412500 -1.840000 -0.001968
v -0.550000 -1.840000 0.039204
v -0.550000 -1.400000 0.030485
vt 1.000000 1.000000
vt 1.000000 0.000000
vt 0.000000 0.000000
vt 0.000000 1.000000
f 525/525 526/526 527/527 528/528
g cloth_blank
usemtl teal
v -0.550000 -1.840000 0.039204
v -0.550000 -2.280000 0.049323
v -0.412500 -2.280000 0.002537
v -0.412500 -1.840000 -0.001968
vt 0.000000 1.000000
vt 0.000000 0.000000
vt 1.000000 0.000000
vt 1.000000 1.000000
f 529/529 530/530 531/531 532/532
g cloth_back
usemtl teal
v -0.412500 -1.840000 -0.001968
v -0.412500 -2.280000 0.002537
v -0.550000 -2.280000 0.049323
v -0.550000 -1.840000 0.039204
vt 1.000000 1.000000
vt 1.000000 0.000000
vt 0.000000 0.000000
vt 0.000000 1.000000
f 533/533 534/534 535/535 536/536
g cloth_blank
usemtl teal
v -0.550000 -2.280000 0.049323
v -0.550000 -2.720000 0.060841
v -0.412500 -2.720000 0.008441
v -0.412500 -2.280000 0.002537
vt 0.000000 1.000000
vt 0.000000 0.000000
vt 1.000000 0.000000
vt 1.000000 1.000000
f 537/537 538/538 539/539 540/540
g cloth_back
usemtl teal
v -0.412500 -2.280000 0.002537
v -0.412500 -2.720000 0.008441
v -0.550000 -2.720000 0.060841
v -0.550000 -2.280000 0.049323
vt 1.000000 1.000000
vt 1.000000 0.000000
vt 0.000000 0.000000
vt 0.000000 1.000000
f 541/541 542/542 543/543 544/544
g cloth_blank
usemtl teal
v -0.550000 -2.720000 0.060841
v -0.550000 -3.160000 0.073760
v -0.412500 -3.160000 0.015745
v -0.412500 -2.720000 0.008441
vt 0.000000 1.000000
vt 0.000000 0.000000
vt 1.000000 0.000000
vt 1.000000 1.000000
f 545/545 546/546 547/547 548/548
g cloth_back
usemtl teal
v -0.412500 -2.720000 0.008441
v -0.412500 -3.160000 0.015745
v -0.550000 -3.160000 0.073760
v -0.550000 -2.720000 0.060841
vt 1.000000 1.000000
vt 1.000000 0.000000
vt 0.000000 0.000000
vt 0.000000 1.000000
f 549/549 550/550 551/551 552/552
g cloth_blank
usemtl teal
v -0.550000 -3.160000 0.073760
v -0.550000 -3.600000 0.088079
v -0.412500 -3.600000 0.024450
v -0.412500 -3.160000 0.015745
vt 0.000000 1.000000
vt 0.000000 0.000000
vt 1.000000 0.000000
vt 1.000000 1.000000
f 553/553 554/554 555/555 556/556
g cloth_back
usemtl teal
v -0.412500 -3.160000 0.015745
v -0.412500 -3.600000 0.024450
v -0.550000 -3.600000 0.088079
v -0.550000 -3.160000 0.073760
vt 1.000000 1.000000
vt 1.000000 0.000000
vt 0.000000 0.000000
vt 0.000000 1.000000
f 557/557 558/558 559/559 560/560
g cloth_blank
usemtl teal
v -0.550000 -3.600000 0.088079
v -0.550000 -4.040000 0.103797
v -0.412500 -4.040000 0.034554
v -0.412500 -3.600000 0.024450
vt 0.000000 1.000000
vt 0.000000 0.000000
vt 1.000000 0.000000
vt 1.000000 1.000000
f 561/561 562/562 563/563 564/564
g cloth_back
usemtl teal
v -0.412500 -3.600000 0.024450
v -0.412500 -4.040000 0.034554
v -0.550000 -4.040000 0.103797
v -0.550000 -3.600000 0.088079
vt 1.000000 1.000000
vt 1.000000 0.000000
vt 0.000000 0.000000
vt 0.000000 1.000000
f 565/565 566/566 567/567 568/568
g cloth_blank
usemtl teal
v -0.550000 -4.040000 0.103797
v -0.550000 -4.480000 0.120916
v -0.412500 -4.480000 0.046059
v -0.412500 -4.040000 0.034554
vt 0.000000 1.000000
vt 0.000000 0.000000
vt 1.000000 0.000000
vt 1.000000 1.000000
f 569/569 570/570 571/571 572/572
g cloth_back
usemtl teal
v -0.412500 -4.040000 0.034554
v -0.412500 -4.480000 0.046059
v -0.550000 -4.480000 0.120916
v -0.550000 -4.040000 0.103797
vt 1.000000 1.000000
vt 1.000000 0.000000
vt 0.000000 0.000000
vt 0.000000 1.000000
f 573/573 574/574 575/575 576/576
g cloth_blank
usemtl teal
v -0.412500 -0.080000 -0.005985
v -0.412500 -0.520000 -0.007081
v -0.275000 -0.520000 -0.022012
v -0.275000 -0.080000 -0.017470
vt 0.000000 1.000000
vt 0.000000 0.000000
vt 1.000000 0.000000
vt 1.000000 1.000000
f 577/577 578/578 579/579 580/580
g cloth_back
usemtl teal
v -0.275000 -0.080000 -0.017470
v -0.275000 -0.520000 -0.022012
v -0.412500 -0.520000 -0.007081
v -0.412500 -0.080000 -0.005985
vt 1.000000 1.000000
vt 1.000000 0.000000
vt 0.000000 0.000000
vt 0.000000 1.000000
f 581/581 582/582 583/583 584/584
g cloth_blank
usemtl teal
v -0.412500 -0.520000 -0.007081
v -0.412500 -0.960000 -0.006777
v -0.275000 -0.960000 -0.025153
v -0.275000 -0.520000 -0.022012
vt 0.000000 1.000000
vt 0.000000 0.000000
vt 1.000000 0.000000
vt 1.000000 1.000000
f 585/585 586/586 587/587 588/588
g cloth_back
usemtl teal
v -0.275000 -0.520000 -0.022012
v -0.275000 -0.960000 -0.025153
v -0.412500 -0.960000 -0.006777
v -0.412500 -0.520000 -0.007081
vt 1.000000 1.000000
vt 1.000000 0.000000
vt 0.000000 0.000000
vt 0.000000 1.000000
f 589/589 590/590 591/591 592/592
g cloth_blank
usemtl teal
v -0.412500 -0.960000 -0.006777
v -0.412500 -1.400000 -0.005072
v -0.275000 -1.400000 -0.026894
v -0.275000 -0.960000 -0.025153
vt 0.000000 1.000000
vt 0.000000 0.000000
vt 1.000000 0.000000
vt 1.000000 1.000000
f 593/593 594/594 595/595 596/596
g cloth_back
usemtl teal
v -0.275000 -0.960000 -0.025153
v -0.275000 -1.400000 -0.026894
v -0.412500 -1.400000 -0.005072
v -0.412500 -0.960000 -0.006777
vt 1.000000 1.000000
vt 1.000000 0.000000
vt 0.000000 0.000000
vt 0.000000 1.000000
f 597/597 598/598 599/599 600/600
g cloth_blank
usemtl teal
v -0.412500 -1.400000 -0.005072
v -0.412500 -1.840000 -0.001968
v -0.275000 -1.840000 -0.027235
v -0.275000 -1.400000 -0.026894
vt 0.000000 1.000000
vt 0.000000 0.000000
vt 1.000000 0.000000
vt 1.000000 1.000000
f 601/601 602/602 603/603 604/604
g cloth_back
usemtl teal
v -0.275000 -1.400000 -0.026894
v -0.275000 -1.840000 -0.027235
v -0.412500 -1.840000 -0.001968
v -0.412500 -1.400000 -0.005072
vt 1.000000 1.000000
vt 1.000000 0.000000
vt 0.000000 0.000000
vt 0.000000 1.000000
f 605/605 606/606 607/607 608/608
g cloth_blank
usemtl teal
v -0.412500 -1.840000 -0.001968
v -0.412500 -2.280000 0.002537
v -0.275000 -2.280000 -0.026176
v -0.275000 -1.840000 -0.027235
vt 0.000000 1.000000
vt 0.000000 0.000000
vt 1.000000 0.000000
vt 1.000000 1.000000
f 609/609 610/610 611/611 612/612
g cloth_back
usemtl teal
v -0.275000 -1.840000 -0.027235
v -0.275000 -2.280000 -0.026176
v -0.412500 -2.280000 0.002537
v -0.412500 -1.840000 -0.001968
vt 1.000000 1.000000
vt 1.000000 0.000000
vt 0.000000 0.000000
vt 0.000000 1.000000
f 613/613 614/614 615/615 616/616
g cloth_blank
usemtl teal
v -0.412500 -2.280000 0.002537
v -0.412500 -2.720000 0.008441
v -0.275000 -2.720000 -0.023717
v -0.275000 -2.280000 -0.026176
vt 0.000000 1.000000
vt 0.000000 0.000000
vt 1.000000 0.000000
vt 1.000000 1.000000
f 617/617 618/618 619/619 620/620
g cloth_back
usemtl teal
v -0.275000 -2.280000 -0.026176
v -0.275000 -2.720000 -0.023717
v -0.412500 -2.720000 0.008441
v -0.412500 -2.280000 0.002537
vt 1.000000 1.000000
vt 1.000000 0.000000
vt 0.000000 0.000000
vt 0.000000 1.000000
f 621/621 622/622 623/623 624/624
g cloth_blank
usemtl teal
v -0.412500 -2.720000 0.008441
v -0.412500 -3.160000 0.015745
v -0.275000 -3.160000 -0.019858
v -0.275000 -2.720000 -0.023717
vt 0.000000 1.000000
vt 0.000000 0.000000
vt 1.000000 0.000000
vt 1.000000 1.000000
f 625/625 626/626 627/627 628/628
g cloth_back
usemtl teal
v -0.275000 -2.720000 -0.023717
v -0.275000 -3.160000 -0.019858
v -0.412500 -3.160000 0.015745
v -0.412500 -2.720000 0.008441
vt 1.000000 1.000000
vt 1.000000 0.000000
vt 0.000000 0.000000
vt 0.000000 1.000000
f 629/629 630/630 631/631 632/632
g cloth_blank
usemtl teal
v -0.412500 -3.160000 0.015745
v -0.412500 -3.600000 0.024450
v -0.275000 -3.600000 -0.014599
v -0.275000 -3.160000 -0.019858
vt 0.000000 1.000000
vt 0.000000 0.000000
vt 1.000000 0.000000
vt 1.000000 1.000000
f 633/633 634/634 635/635 636/636
g cloth_back
usemtl teal
v -0.275000 -3.160000 -0.019858
v -0.275000 -3.600000 -0.014599
v -0.412500 -3.600000 0.024450
v -0.412500 -3.160000 0.015745
vt 1.000000 1.000000
vt 1.000000 0.000000
vt 0.000000 0.000000
vt 0.000000 1.000000
f 637/637 638/638 639/639 640/640
g cloth_blank
usemtl teal
v -0.412500 -3.600000 0.024450
v -0.412500 -4.040000 0.034554
v -0.275000 -4.040000 -0.007940
v -0.275000 -3.600000 -0.014599
vt 0.000000 1.000000
vt 0.000000 0.000000
vt 1.000000 0.000000
vt 1.000000 1.000000
f 641/641 642/642 643/643 644/644
g cloth_back
usemtl teal
v -0.275000 -3.600000 -0.014599
v -0.275000 -4.040000 -0.007940
v -0.412500 -4.040000 0.034554
v -0.412500 -3.600000 0.024450
vt 1.000000 1.000000
vt 1.000000 0.000000
vt 0.000000 0.000000
vt 0.000000 1.000000
f 645/645 646/646 647/647 648/648
g cloth_blank
usemtl teal
v -0.412500 -4.040000 0.034554
v -0.412500 -4.480000 0.046059
v -0.275000 -4.480000 0.000118
v -0.275000 -4.040000 -0.007940
vt 0.000000 1.000000
vt 0.000000 0.000000
vt 1.000000 0.000000
vt 1.000000 1.000000
f 649/649 650/650 651/651 652/652
g cloth_back
usemtl teal
v -0.275000 -4.040000 -0.007940
v -0.275000 -4.480000 0.000118
v -0.412500 -4.480000 0.046059
v -0.412500 -4.040000 0.034554
vt 1.000000 1.000000
vt 1.000000 0.000000
vt 0.000000 0.000000
vt 0.000000 1.000000
f 653/653 654/654 655/655 656/656
g cloth_blank
usemtl teal
v -0.275000 -0.080000 -0.017470
v -0.275000 -0.520000 -0.022012
v -0.137500 -0.520000 -0.009510
v -0.137500 -0.080000 -0.007854
vt 0.000000 1.000000
vt 0.000000 0.000000
vt 1.000000 0.000000
vt 1.000000 1.000000
f 657/657 658/658 659/659 660/660
g cloth_back
usemtl teal
v -0.137500 -0.080000 -0.007854
v -0.137500 -0.520000 -0.009510
v -0.275000 -0.520000 -0.022012
v -0.275000 -0.080000 -0.017470
vt 1.000000 1.000000
vt 1.000000 0.000000
vt 0.000000 0.000000
vt 0.000000 1.000000
f 661/661 662/662 663/663 664/664
g cloth_blank
usemtl teal
v -0.275000 -0.520000 -0.022012
v -0.275000 -0.960000 -0.025153
v -0.137500 -0.960000 -0.009766
v -0.137500 -0.520000 -0.009510
vt 0.000000 1.000000
vt 0.000000 0.000000
vt 1.000000 0.000000
vt 1.000000 1.000000
f 665/665 666/666 667/667 668/668
g cloth_back
usemtl teal
v -0.137500 -0.520000 -0.009510
v -0.137500 -0.960000 -0.009766
v -0.275000 -0.960000 -0.025153
v -0.275000 -0.520000 -0.022012
vt 1.000000 1.000000
vt 1.000000 0.000000
vt 0.000000 0.000000
vt 0.000000 1.000000
f 669/669 670/670 671/671 672/672
g cloth_blank
usemtl teal
v -0.275000 -0.960000 -0.025153
v -0.275000 -1.400000 -0.026894
v -0.137500 -1.400000 -0.008623
v -0.137500 -0.960000 -0.009766
vt 0.000000 1.000000
vt 0.000000 0.000000
vt 1.000000 0.000000
vt 1.000000 1.000000
f 673/673 674/674 675/675 676/676
g cloth_back
usemtl teal
v -0.137500 -0.960000 -0.009766
v -0.137500 -1.400000 -0.008623
v -0.275000 -1.400000 -0.026894
v -0.275000 -0.960000 -0.025153
vt 1.000000 1.000000
vt 1.000000 0.000000
vt 0.000000 0.000000
vt 0.000000 1.000000
f 677/677 678/678 679/679 680/680
g cloth_blank
usemtl teal
v -0.275000 -1.400000 -0.026894
v -0.275000 -1.840000 -0.027235
v -0.137500 -1.840000 -0.006079
v -0.137500 -1.400000 -0.008623
vt 0.000000 1.000000
vt 0.000000 0.000000
vt 1.000000 0.000000
vt 1.000000 1.000000
f 681/681 682/682 683/683 684/684
g cloth_back
usemtl teal
v -0.137500 -1.400000 -0.008623
v -0.137500 -1.840000 -0.006079
v -0.275000 -1.840000 -0.027235
v -0.275000 -1.400000 -0.026894
vt 1.000000 1.000000
vt 1.000000 0.000000
vt 0.000000 0.000000
vt 0.000000 1.000000
f 685/685 686/686 687/687 688/688
g cloth_blank
usemtl teal
v -0.275000 -1.840000 -0.027235
v -0.275000 -2.280000 -0.026176
v -0.137500 -2.280000 -0.002135
v -0.137500 -1.840000 -0.006079
vt 0.000000 1.000000
vt 0.000000 0.000000
vt 1.000000 0.000000
vt 1.000000 1.000000
f 689/689 690/690 691/691 692/692
g cloth_back
usemtl teal
v -0.137500 -1.840000 -0.006079
v -0.137500 -2.280000 -0.002135
v -0.275000 -2.280000 -0.026176
v -0.275000 -1.840000 -0.027235
vt 1.000000 1.000000
vt 1.000000 0.000000
vt 0.000000 0.000000
vt 0.000000 1.000000
f 693/693 694/694 695/695 696/696
g cloth_blank
usemtl teal
v -0.275000 -2.280000 -0.026176
v -0.275000 -2.720000 -0.023717
v -0.137500 -2.720000 0.003209
v -0.137500 -2.280000 -0.002135
vt 0.000000 1.000000
vt 0.000000 0.000000
vt 1.000000 0.000000
vt 1.000000 1.000000
f 697/697 698/698 699/699 700/700
g cloth_back
usemtl teal
v -0.137500 -2.280000 -0.002135
v -0.137500 -2.720000 0.003209
v -0.275000 -2.720000 -0.023717
v -0.275000 -2.280000 -0.026176
vt 1.000000 1.000000
vt 1.000000 0.000000
vt 0.000000 0.000000
vt 0.000000 1.000000
f 701/701 702/702 703/703 704/704
g cloth_blank
usemtl teal
v -0.275000 -2.720000 -0.023717
v -0.275000 -3.160000 -0.019858
v -0.137500 -3.160000 0.009953
v -0.137500 -2.720000 0.003209
vt 0.000000 1.000000
vt 0.000000 0.000000
vt 1.000000 0.000000
vt 1.000000 1.000000
f 705/705 706/706 707/707 708/708
g cloth_back
usemtl teal
v -0.137500 -2.720000 0.003209
v -0.137500 -3.160000 0.009953
v -0.275000 -3.160000 -0.019858
v -0.275000 -2.720000 -0.023717
vt 1.000000 1.000000
vt 1.000000 0.000000
vt 0.000000 0.000000
vt 0.000000 1.000000
f 709/709 710/710 711/711 712/712
g cloth_blank
usemtl teal
v -0.275000 -3.160000 -0.019858
v -0.275000 -3.600000 -0.014599
v -0.137500 -3.600000 0.018096
v -0.137500 -3.160000 0.009953
vt 0.000000 1.000000
vt 0.000000 0.000000
vt 1.000000 0.000000
vt 1.000000 1.000000
f 713/713 714/714 715/715 716/716
g cloth_back
usemtl teal
v -0.137500 -3.160000 0.009953
v -0.137500 -3.600000 0.018096
v -0.275000 -3.600000 -0.014599
v -0.275000 -3.160000 -0.019858
vt 1.000000 1.000000
vt 1.000000 0.000000
vt 0.000000 0.000000
vt 0.000000 1.000000
f 717/717 718/718 719/719 720/720
g cloth_blank
usemtl teal
v -0.275000 -3.600000 -0.014599
v -0.275000 -4.040000 -0.007940
v -0.137500 -4.040000 0.027640
v -0.137500 -3.600000 0.018096
vt 0.000000 1.000000
vt 0.000000 0.000000
vt 1.000000 0.000000
vt 1.000000 1.000000
f 721/721 722/722 723/723 724/724
g cloth_back
usemtl teal
v -0.137500 -3.600000 0.018096
v -0.137500 -4.040000 0.027640
v -0.275000 -4.040000 -0.007940
v -0.275000 -3.600000 -0.014599
vt 1.000000 1.000000
vt 1.000000 0.000000
vt 0.000000 0.000000
vt 0.000000 1.000000
f 725/725 726/726 727/727 728/728
g cloth_blank
usemtl teal
v -0.275000 -4.040000 -0.007940
v -0.275000 -4.480000 0.000118
v -0.137500 -4.480000 0.038584
v -0.137500 -4.040000 0.027640
vt 0.000000 1.000000
vt 0.000000 0.000000
vt 1.000000 0.000000
vt 1.000000 1.000000
f 729/729 730/730 731/731 732/732
g cloth_back
usemtl teal
v -0.137500 -4.040000 0.027640
v -0.137500 -4.480000 0.038584
v -0.275000 -4.480000 0.000118
v -0.275000 -4.040000 -0.007940
vt 1.000000 1.000000
vt 1.000000 0.000000
vt 0.000000 0.000000
vt 0.000000 1.000000
f 733/733 734/734 735/735 736/736
g cloth_blank
usemtl teal
v -0.137500 -0.080000 -0.007854
v -0.137500 -0.520000 -0.009510
v -0.000000 -0.520000 0.015323
v -0.000000 -0.080000 0.011249
vt 0.000000 1.000000
vt 0.000000 0.000000
vt 1.000000 0.000000
vt 1.000000 1.000000
f 737/737 738/738 739/739 740/740
g cloth_back
usemtl teal
v -0.000000 -0.080000 0.011249
v -0.000000 -0.520000 0.015323
v -0.137500 -0.520000 -0.009510
v -0.137500 -0.080000 -0.007854
vt 1.000000 1.000000
vt 1.000000 0.000000
vt 0.000000 0.000000
vt 0.000000 1.000000
f 741/741 742/742 743/743 744/744
g cloth_blank
usemtl teal
v -0.137500 -0.520000 -0.009510
v -0.137500 -0.960000 -0.009766
v -0.000000 -0.960000 0.020798
v -0.000000 -0.520000 0.015323
vt 0.000000 1.000000
vt 0.000000 0.000000
vt 1.000000 0.000000
vt 1.000000 1.000000
f 745/745 746/746 747/747 748/748
g cloth_back
usemtl teal
v -0.000000 -0.520000 0.015323
v -0.000000 -0.960000 0.020798
v -0.137500 -0.960000 -0.009766
v -0.137500 -0.520000 -0.009510
vt 1.000000 1.000000
vt 1.000000 0.000000
vt 0.000000 0.000000
vt 0.000000 1.000000
f 749/749 750/750 751/751 752/752
g cloth_blank
usemtl teal
v -0.137500 -0.960000 -0.009766
v -0.137500 -1.400000 -0.008623
v -0.000000 -1.400000 0.027673
v -0.000000 -0.960000 0.020798
vt 0.000000 1.000000
vt 0.000000 0.000000
vt 1.000000 0.000000
vt 1.000000 1.000000
f 753/753 754/754 755/755 756/756
g cloth_back
usemtl teal
v -0.000000 -0.960000 0.020798
v -0.000000 -1.400000 0.027673
v -0.137500 -1.400000 -0.008623
v -0.137500 -0.960000 -0.009766
vt 1.000000 1.000000
vt 1.000000 0.000000
vt 0.000000 0.000000
vt 0.000000 1.000000
f 757/757 758/758 759/759 760/760
g cloth_blank
usemtl teal
v -0.137500 -1.400000 -0.008623
v -0.137500 -1.840000 -0.006079
v -0.000000 -1.840000 0.035947
v -0.000000 -1.400000 0.027673
vt 0.000000 1.000000
vt 0.000000 0.000000
vt 1.000000 0.000000
vt 1.000000 1.000000
f 761/761 762/762 763/763 764/764
g cloth_back
usemtl teal
v -0.000000 -1.400000 0.027673
v -0.000000 -1.840000 0.035947
v -0.137500 -1.840000 -0.006079
v -0.137500 -1.400000 -0.008623
vt 1.000000 1.000000
vt 1.000000 0.000000
vt 0.000000 0.000000
vt 0.000000 1.000000
f 765/765 766/766 767/767 768/768
g cloth_blank
usemtl teal
v -0.137500 -1.840000 -0.006079
v -0.137500 -2.280000 -0.002135
v -0.000000 -2.280000 0.045622
v -0.000000 -1.840000 0.035947
vt 0.000000 1.000000
vt 0.000000 0.000000
vt 1.000000 0.000000
vt 1.000000 1.000000
f 769/769 770/770 771/771 772/772
g cloth_back
usemtl teal
v -0.000000 -1.840000 0.035947
v -0.000000 -2.280000 0.045622
v -0.137500 -2.280000 -0.002135
v -0.137500 -1.840000 -0.006079
vt 1.000000 1.000000
vt 1.000000 0.000000
vt 0.000000 0.000000
vt 0.000000 1.000000
f 773/773 774/774 775/775 776/776
g cloth_blank
usemtl teal
v -0.137500 -2.280000 -0.002135
v -0.137500 -2.720000 0.003209
v -0.000000 -2.720000 0.056697
v -0.000000 -2.280000 0.045622
vt 0.000000 1.000000
vt 0.000000 0.000000
vt 1.000000 0.000000
vt 1.000000 1.000000
f 777/777 778/778 779/779 780/780
g cloth_back
usemtl teal
v -0.000000 -2.280000 0.045622
v -0.000000 -2.720000 0.056697
v -0.137500 -2.720000 0.003209
v -0.137500 -2.280000 -0.002135
vt 1.000000 1.000000
vt 1.000000 0.000000
vt 0.000000 0.000000
vt 0.000000 1.000000
f 781/781 782/782 783/783 784/784
g cloth_blank
usemtl teal
v -0.137500 -2.720000 0.003209
v -0.137500 -3.160000 0.009953
v -0.000000 -3.160000 0.069171
v -0.000000 -2.720000 0.056697
vt 0.000000 1.000000
vt 0.000000 0.000000
vt 1.000000 0.000000
vt 1.000000 1.000000
f 785/785 786/786 787/787 788/788
g cloth_back
usemtl teal
v -0.000000 -2.720000 0.056697
v -0.000000 -3.160000 0.069171
v -0.137500 -3.160000 0.009953
v -0.137500 -2.720000 0.003209
vt 1.000000 1.000000
vt 1.000000 0.000000
vt 0.000000 0.000000
vt 0.000000 1.000000
f 789/789 790/790 791/791 792/792
g cloth_blank
usemtl teal
v -0.137500 -3.160000 0.009953
v -0.137500 -3.600000 0.018096
v -0.000000 -3.600000 0.083046
v -0.000000 -3.160000 0.069171
vt 0.000000 1.000000
vt 0.000000 0.000000
vt 1.000000 0.000000
vt 1.000000 1.000000
f 793/793 794/794 795/795 796/796
g cloth_back
usemtl teal
v -0.000000 -3.160000 0.069171
v -0.000000 -3.600000 0.083046
v -0.137500 -3.600000 0.018096
v -0.137500 -3.160000 0.009953
vt 1.000000 1.000000
vt 1.000000 0.000000
vt 0.000000 0.000000
vt 0.000000 1.000000
f 797/797 798/798 799/799 800/800
g cloth_blank
usemtl teal
v -0.137500 -3.600000 0.018096
v -0.137500 -4.040000 0.027640
v -0.000000 -4.040000 0.098320
v -0.000000 -3.600000 0.083046
vt 0.000000 1.000000
vt 0.000000 0.000000
vt 1.000000 0.000000
vt 1.000000 1.000000
f 801/801 802/802 803/803 804/804
g cloth_back
usemtl teal
v -0.000000 -3.600000 0.083046
v -0.000000 -4.040000 0.098320
v -0.137500 -4.040000 0.027640
v -0.137500 -3.600000 0.018096
vt 1.000000 1.000000
vt 1.000000 0.000000
vt 0.000000 0.000000
vt 0.000000 1.000000
f 805/805 806/806 807/807 808/808
g cloth_blank
usemtl teal
v -0.137500 -4.040000 0.027640
v -0.137500 -4.480000 0.038584
v -0.000000 -4.480000 0.114995
v -0.000000 -4.040000 0.098320
vt 0.000000 1.000000
vt 0.000000 0.000000
vt 1.000000 0.000000
vt 1.000000 1.000000
f 809/809 810/810 811/811 812/812
g cloth_back
usemtl teal
v -0.000000 -4.040000 0.098320
v -0.000000 -4.480000 0.114995
v -0.137500 -4.480000 0.038584
v -0.137500 -4.040000 0.027640
vt 1.000000 1.000000
vt 1.000000 0.000000
vt 0.000000 0.000000
vt 0.000000 1.000000
f 813/813 814/814 815/815 816/816
g cloth_blank
usemtl teal
v -0.000000 -0.080000 0.011249
v -0.000000 -0.520000 0.015323
v 0.137500 -0.520000 0.022494
v 0.137500 -0.080000 0.016765
vt 0.000000 1.000000
vt 0.000000 0.000000
vt 1.000000 0.000000
vt 1.000000 1.000000
f 817/817 818/818 819/819 820/820
g cloth_back
usemtl teal
v 0.137500 -0.080000 0.016765
v 0.137500 -0.520000 0.022494
v -0.000000 -0.520000 0.015323
v -0.000000 -0.080000 0.011249
vt 1.000000 1.000000
vt 1.000000 0.000000
vt 0.000000 0.000000
vt 0.000000 1.000000
f 821/821 822/822 823/823 824/824
g cloth_blank
usemtl teal
v -0.000000 -0.520000 0.015323
v -0.000000 -0.960000 0.020798
v 0.137500 -0.960000 0.029624
v 0.137500 -0.520000 0.022494
vt 0.000000 1.000000
vt 0.000000 0.000000
vt 1.000000 0.000000
vt 1.000000 1.000000
f 825/825 826/826 827/827 828/828
g cloth_back
usemtl teal
v 0.137500 -0.520000 0.022494
v 0.137500 -0.960000 0.029624
v -0.000000 -0.960000 0.020798
v -0.000000 -0.520000 0.015323
vt 1.000000 1.000000
vt 1.000000 0.000000
vt 0.000000 0.000000
vt 0.000000 1.000000
f 829/829 830/830 831/831 832/832
g cloth_blank
usemtl teal
v -0.000000 -0.960000 0.020798
v -0.000000 -1.400000 0.027673
v 0.137500 -1.400000 0.038153
v 0.137500 -0.960000 0.029624
vt 0.000000 1.000000
vt 0.000000 0.000000
vt 1.000000 0.000000
vt 1.000000 1.000000
f 833/833 834/834 835/835 836/836
g cloth_back
usemtl teal
v 0.137500 -0.960000 0.029624
v 0.137500 -1.400000 0.038153
v -0.000000 -1.400000 0.027673
v -0.000000 -0.960000 0.020798
vt 1.000000 1.000000
vt 1.000000 0.000000
vt 0.000000 0.000000
vt 0.000000 1.000000
f 837/837 838/838 839/839 840/840
g cloth_blank
usemtl teal
v -0.000000 -1.400000 0.027673
v -0.000000 -1.840000 0.035947
v 0.137500 -1.840000 0.048083
v 0.137500 -1.400000 0.038153
vt 0.000000 1.000000
vt 0.000000 0.000000
vt 1.000000 0.000000
vt 1.000000 1.000000
f 841/841 842/842 843/843 844/844
g cloth_back
usemtl teal
v 0.137500 -1.400000 0.038153
v 0.137500 -1.840000 0.048083
v -0.000000 -1.840000 0.035947
v -0.000000 -1.400000 0.027673
vt 1.000000 1.000000
vt 1.000000 0.000000
vt 0.000000 0.000000
vt 0.000000 1.000000
f 845/845 846/846 847/847 848/848
g cloth_blank
usemtl teal
v -0.000000 -1.840000 0.035947
v -0.000000 -2.280000 0.045622
v 0.137500 -2.280000 0.059412
v 0.137500 -1.840000 0.048083
vt 0.000000 1.000000
vt 0.000000 0.000000
vt 1.000000 0.000000
vt 1.000000 1.000000
f 849/849 850/850 851/851 852/852
g cloth_back
usemtl teal
v 0.137500 -1.840000 0.048083
v 0.137500 -2.280000 0.059412
v -0.000000 -2.280000 0.045622
v -0.000000 -1.840000 0.035947
vt 1.000000 1.000000
vt 1.000000 0.000000
vt 0.000000 0.000000
vt 0.000000 1.000000
f 853/853 854/854 855/855 856/856
g cloth_blank
usemtl teal
v -0.000000 -2.280000 0.045622
v -0.000000 -2.720000 0.056697
v 0.137500 -2.720000 0.072141
v 0.137500 -2.280000 0.059412
vt 0.000000 1.000000
vt 0.000000 0.000000
vt 1.000000 0.000000
vt 1.000000 1.000000
f 857/857 858/858 859/859 860/860
g cloth_back
usemtl teal
v 0.137500 -2.280000 0.059412
v 0.137500 -2.720000 0.072141
v -0.000000 -2.720000 0.056697
v -0.000000 -2.280000 0.045622
vt 1.000000 1.000000
vt 1.000000 0.000000
vt 0.000000 0.000000
vt 0.000000 1.000000
f 861/861 862/862 863/863 864/864
g cloth_blank
usemtl teal
v -0.000000 -2.720000 0.056697
v -0.000000 -3.160000 0.069171
v 0.137500 -3.160000 0.086271
v 0.137500 -2.720000 0.072141
vt 0.000000 1.000000
vt 0.000000 0.000000
vt 1.000000 0.000000
vt 1.000000 1.000000
f 865/865 866/866 867/867 868/868
g cloth_back
usemtl teal
v 0.137500 -2.720000 0.072141
v 0.137500 -3.160000 0.086271
v -0.000000 -3.160000 0.069171
v -0.000000 -2.720000 0.056697
vt 1.000000 1.000000
vt 1.000000 0.000000
vt 0.000000 0.000000
vt 0.000000 1.000000
f 869/869 870/870 871/871 872/872
g cloth_blank
usemtl teal
v -0.000000 -3.160000 0.069171
v -0.000000 -3.600000 0.083046
v 0.137500 -3.600000 0.101800
v 0.137500 -3.160000 0.086271
vt 0.000000 1.000000
vt 0.000000 0.000000
vt 1.000000 0.000000
vt 1.000000 1.000000
f 873/873 874/874 875/875 876/876
g cloth_back
usemtl teal
v 0.137500 -3.160000 0.086271
v 0.137500 -3.600000 0.101800
v -0.000000 -3.600000 0.083046
v -0.000000 -3.160000 0.069171
vt 1.000000 1.000000
vt 1.000000 0.000000
vt 0.000000 0.000000
vt 0.000000 1.000000
f 877/877 878/878 879/879 880/880
g cloth_blank
usemtl teal
v -0.000000 -3.600000 0.083046
v -0.000000 -4.040000 0.098320
v 0.137500 -4.040000 0.118730
v 0.137500 -3.600000 0.101800
vt 0.000000 1.000000
vt 0.000000 0.000000
vt 1.000000 0.000000
vt 1.000000 1.000000
f 881/881 882/882 883/883 884/884
g cloth_back
usemtl teal
v 0.137500 -3.600000 0.101800
v 0.137500 -4.040000 0.118730
v -0.000000 -4.040000 0.098320
v -0.000000 -3.600000 0.083046
vt 1.000000 1.000000
vt 1.000000 0.000000
vt 0.000000 0.000000
vt 0.000000 1.000000
f 885/885 886/886 887/887 888/888
g cloth_blank
usemtl teal
v -0.000000 -4.040000 0.098320
v -0.000000 -4.480000 0.114995
v 0.137500 -4.480000 0.137059
v 0.137500 -4.040000 0.118730
vt 0.000000 1.000000
vt 0.000000 0.000000
vt 1.000000 0.000000
vt 1.000000 1.000000
f 889/889 890/890 891/891 892/892
g cloth_back
usemtl teal
v 0.137500 -4.040000 0.118730
v 0.137500 -4.480000 0.137059
v -0.000000 -4.480000 0.114995
v -0.000000 -4.040000 0.098320
vt 1.000000 1.000000
vt 1.000000 0.000000
vt 0.000000 0.000000
vt 0.000000 1.000000
f 893/893 894/894 895/895 896/896
g cloth_blank
usemtl teal
v 0.137500 -0.080000 0.016765
v 0.137500 -0.520000 0.022494
v 0.275000 -0.520000 0.003341
v 0.275000 -0.080000 0.002032
vt 0.000000 1.000000
vt 0.000000 0.000000
vt 1.000000 0.000000
vt 1.000000 1.000000
f 897/897 898/898 899/899 900/900
g cloth_back
usemtl teal
v 0.275000 -0.080000 0.002032
v 0.275000 -0.520000 0.003341
v 0.137500 -0.520000 0.022494
v 0.137500 -0.080000 0.016765
vt 1.000000 1.000000
vt 1.000000 0.000000
vt 0.000000 0.000000
vt 0.000000 1.000000
f 901/901 902/902 903/903 904/904
g cloth_blank
usemtl teal
v 0.137500 -0.520000 0.022494
v 0.137500 -0.960000 0.029624
v 0.275000 -0.960000 0.006051
v 0.275000 -0.520000 0.003341
vt 0.000000 1.000000
vt 0.000000 0.000000
vt 1.000000 0.000000
vt 1.000000 1.000000
f 905/905 906/906 907/907 908/908
g cloth_back
usemtl teal
v 0.275000 -0.520000 0.003341
v 0.275000 -0.960000 0.006051
v 0.137500 -0.960000 0.029624
v 0.137500 -0.520000 0.022494
vt 1.000000 1.000000
vt 1.000000 0.000000
vt 0.000000 0.000000
vt 0.000000 1.000000
f 909/909 910/910 911/911 912/912
g cloth_blank
usemtl teal
v 0.137500 -0.960000 0.029624
v 0.137500 -1.400000 0.038153
v 0.275000 -1.400000 0.010160
v 0.275000 -0.960000 0.006051
vt 0.000000 1.000000
vt 0.000000 0.000000
vt 1.000000 0.000000
vt 1.000000 1.000000
f 913/913 914/914 915/915 916/916
g cloth_back
usemtl teal
v 0.275000 -0.960000 0.006051
v 0.275000 -1.400000 0.010160
v 0.137500 -1.400000 0.038153
v 0.137500 -0.960000 0.029624
vt 1.000000 1.000000
vt 1.000000 0.000000
vt 0.000000 0.000000
vt 0.000000 1.000000
f 917/917 918/918 919/919 920/920
g cloth_blank
usemtl teal
v 0.137500 -1.400000 0.038153
v 0.137500 -1.840000 0.048083
v 0.275000 -1.840000 0.015670
v 0.275000 -1.400000 0.010160
vt 0.000000 1.000000
vt 0.000000 0.000000
vt 1.000000 0.000000
vt 1.000000 1.000000
f 921/921 922/922 923/923 924/924
g cloth_back
usemtl teal
v 0.275000 -1.400000 0.010160
v 0.275000 -1.840000 0.015670
v 0.137500 -1.840000 0.048083
v 0.137500 -1.400000 0.038153
vt 1.000000 1.000000
vt 1.000000 0.000000
vt 0.000000 0.000000
vt 0.000000 1.000000
f 925/925 926/926 927/927 928/928
g cloth_blank
usemtl teal
v 0.137500 -1.840000 0.048083
v 0.137500 -2.280000 0.059412
v 0.275000 -2.280000 0.022579
v 0.275000 -1.840000 0.015670
vt 0.000000 1.000000
vt 0.000000 0.000000
vt 1.000000 0.000000
vt 1.000000 1.000000
f 929/929 930/930 931/931 932/932
g cloth_back
usemtl teal
v 0.275000 -1.840000 0.015670
v 0.275000 -2.280000 0.022579
v 0.137500 -2.280000 0.059412
v 0.137500 -1.840000 0.048083
vt 1.000000 1.000000
vt 1.000000 0.000000
vt 0.000000 0.000000
vt 0.000000 1.000000
f 933/933 934/934 935/935 936/936
g cloth_blank
usemtl teal
v 0.137500 -2.280000 0.059412
v 0.137500 -2.720000 0.072141
v 0.275000 -2.720000 0.030889
v 0.275000 -2.280000 0.022579
vt 0.000000 1.000000
vt 0.000000 0.000000
vt 1.000000 0.000000
vt 1.000000 1.000000
f 937/937 938/938 939/939 940/940
g cloth_back
usemtl teal
v 0.275000 -2.280000 0.022579
v 0.275000 -2.720000 0.030889
v 0.137500 -2.720000 0.072141
v 0.137500 -2.280000 0.059412
vt 1.000000 1.000000
vt 1.000000 0.000000
vt 0.000000 0.000000
vt 0.000000 1.000000
f 941/941 942/942 943/943 944/944
g cloth_blank
usemtl teal
v 0.137500 -2.720000 0.072141
v 0.137500 -3.160000 0.086271
v 0.275000 -3.160000 0.040598
v 0.275000 -2.720000 0.030889
vt 0.000000 1.000000
vt 0.000000 0.000000
vt 1.000000 0.000000
vt 1.000000 1.000000
f 945/945 946/946 947/947 948/948
g cloth_back
usemtl teal
v 0.275000 -2.720000 0.030889
v 0.275000 -3.160000 0.040598
v 0.137500 -3.160000 0.086271
v 0.137500 -2.720000 0.072141
vt 1.000000 1.000000
vt 1.000000 0.000000
vt 0.000000 0.000000
vt 0.000000 1.000000
f 949/949 950/950 951/951 952/952
g cloth_blank
usemtl teal
v 0.137500 -3.160000 0.086271
v 0.137500 -3.600000 0.101800
v 0.275000 -3.600000 0.051708
v 0.275000 -3.160000 0.040598
vt 0.000000 1.000000
vt 0.000000 0.000000
vt 1.000000 0.000000
vt 1.000000 1.000000
f 953/953 954/954 955/955 956/956
g cloth_back
usemtl teal
v 0.275000 -3.160000 0.040598
v 0.275000 -3.600000 0.051708
v 0.137500 -3.600000 0.101800
v 0.137500 -3.160000 0.086271
vt 1.000000 1.000000
vt 1.000000 0.000000
vt 0.000000 0.000000
vt 0.000000 1.000000
f 957/957 958/958 959/959 960/960
g cloth_blank
usemtl teal
v 0.137500 -3.600000 0.101800
v 0.137500 -4.040000 0.118730
v 0.275000 -4.040000 0.064217
v 0.275000 -3.600000 0.051708
vt 0.000000 1.000000
vt 0.000000 0.000000
vt 1.000000 0.000000
vt 1.000000 1.000000
f 961/961 962/962 963/963 964/964
g cloth_back
usemtl teal
v 0.275000 -3.600000 0.051708
v 0.275000 -4.040000 0.064217
v 0.137500 -4.040000 0.118730
v 0.137500 -3.600000 0.101800
vt 1.000000 1.000000
vt 1.000000 0.000000
vt 0.000000 0.000000
vt 0.000000 1.000000
f 965/965 966/966 967/967 968/968
g cloth_blank
usemtl teal
v 0.137500 -4.040000 0.118730
v 0.137500 -4.480000 0.137059
v 0.275000 -4.480000 0.078127
v 0.275000 -4.040000 0.064217
vt 0.000000 1.000000
vt 0.000000 0.000000
vt 1.000000 0.000000
vt 1.000000 1.000000
f 969/969 970/970 971/971 972/972
g cloth_back
usemtl teal
v 0.275000 -4.040000 0.064217
v 0.275000 -4.480000 0.078127
v 0.137500 -4.480000 0.137059
v 0.137500 -4.040000 0.118730
vt 1.000000 1.000000
vt 1.000000 0.000000
vt 0.000000 0.000000
vt 0.000000 1.000000
f 973/973 974/974 975/975 976/976
g cloth_blank
usemtl teal
v 0.275000 -0.080000 0.002032
v 0.275000 -0.520000 0.003341
v 0.412500 -0.520000 -0.019002
v 0.412500 -0.080000 -0.015155
vt 0.000000 1.000000
vt 0.000000 0.000000
vt 1.000000 0.000000
vt 1.000000 1.000000
f 977/977 978/978 979/979 980/980
g cloth_back
usemtl teal
v 0.412500 -0.080000 -0.015155
v 0.412500 -0.520000 -0.019002
v 0.275000 -0.520000 0.003341
v 0.275000 -0.080000 0.002032
vt 1.000000 1.000000
vt 1.000000 0.000000
vt 0.000000 0.000000
vt 0.000000 1.000000
f 981/981 982/982 983/983 984/984
g cloth_blank
usemtl teal
v 0.275000 -0.520000 0.003341
v 0.275000 -0.960000 0.006051
v 0.412500 -0.960000 -0.021449
v 0.412500 -0.520000 -0.019002
vt 0.000000 1.000000
vt 0.000000 0.000000
vt 1.000000 0.000000
vt 1.000000 1.000000
f 985/985 986/986 987/987 988/988
g cloth_back
usemtl teal
v 0.412500 -0.520000 -0.019002
v 0.412500 -0.960000 -0.021449
v 0.275000 -0.960000 0.006051
v 0.275000 -0.520000 0.003341
vt 1.000000 1.000000
vt 1.000000 0.000000
vt 0.000000 0.000000
vt 0.000000 1.000000
f 989/989 990/990 991/991 992/992
g cloth_blank
usemtl teal
v 0.275000 -0.960000 0.006051
v 0.275000 -1.400000 0.010160
v 0.412500 -1.400000 -0.022495
v 0.412500 -0.960000 -0.021449
vt 0.000000 1.000000
vt 0.000000 0.000000
vt 1.000000 0.000000
vt 1.000000 1.000000
f 993/993 994/994 995/995 996/996
g cloth_back
usemtl teal
v 0.412500 -0.960000 -0.021449
v 0.412500 -1.400000 -0.022495
v 0.275000 -1.400000 0.010160
v 0.275000 -0.960000 0.006051
vt 1.000000 1.000000
vt 1.000000 0.000000
vt 0.000000 0.000000
vt 0.000000 1.000000
f 997/997 998/998 999/999 1000/1000
g cloth_blank
usemtl teal
v 0.275000 -1.400000 0.010160
v 0.275000 -1.840000 0.015670
v 0.412500 -1.840000 -0.022142
v 0.412500 -1.400000 -0.022495
vt 0.000000 1.000000
vt 0.000000 0.000000
vt 1.000000 0.000000
vt 1.000000 1.000000
f 1001/1001 1002/1002 1003/1003 1004/1004
g cloth_back
usemtl teal
v 0.412500 -1.400000 -0.022495
v 0.412500 -1.840000 -0.022142
v 0.275000 -1.840000 0.015670
v 0.275000 -1.400000 0.010160
vt 1.000000 1.000000
vt 1.000000 0.000000
vt 0.000000 0.000000
vt 0.000000 1.000000
f 1005/1005 1006/1006 1007/1007 1008/1008
g cloth_blank
usemtl teal
v 0.275000 -1.840000 0.015670
v 0.275000 -2.280000 0.022579
v 0.412500 -2.280000 -0.020389
v 0.412500 -1.840000 -0.022142
vt 0.000000 1.000000
vt 0.000000 0.000000
vt 1.000000 0.000000
vt 1.000000 1.000000
f 1009/1009 1010/1010 1011/1011 1012/1012
g cloth_back
usemtl teal
v 0.412500 -1.840000 -0.022142
v 0.412500 -2.280000 -0.020389
v 0.275000 -2.280000 0.022579
v 0.275000 -1.840000 0.015670
vt 1.000000 1.000000
vt 1.000000 0.000000
vt 0.000000 0.000000
vt 0.000000 1.000000
f 1013/1013 1014/1014 1015/1015 1016/1016
g cloth_blank
usemtl teal
v 0.275000 -2.280000 0.022579
v 0.275000 -2.720000 0.030889
v 0.412500 -2.720000 -0.017235
v 0.412500 -2.280000 -0.020389
vt 0.000000 1.000000
vt 0.000000 0.000000
vt 1.000000 0.000000
vt 1.000000 1.000000
f 1017/1017 1018/1018 1019/1019 1020/1020
g cloth_back
usemtl teal
v 0.412500 -2.280000 -0.020389
v 0.412500 -2.720000 -0.017235
v 0.275000 -2.720000 0.030889
v 0.275000 -2.280000 0.022579
vt 1.000000 1.000000
vt 1.000000 0.000000
vt 0.000000 0.000000
vt 0.000000 1.000000
f 1021/1021 1022/1022 1023/1023 1024/1024
g cloth_blank
usemtl teal
v 0.275000 -2.720000 0.030889
v 0.275000 -3.160000 0.040598
v 0.412500 -3.160000 -0.012682
v 0.412500 -2.720000 -0.017235
vt 0.000000 1.000000
vt 0.000000 0.000000
vt 1.000000 0.000000
vt 1.000000 1.000000
f 1025/1025 1026/1026 1027/1027 1028/1028
g cloth_back
usemtl teal
v 0.412500 -2.720000 -0.017235
v 0.412500 -3.160000 -0.012682
v 0.275000 -3.160000 0.040598
v 0.275000 -2.720000 0.030889
vt 1.000000 1.000000
vt 1.000000 0.000000
vt 0.000000 0.000000
vt 0.000000 1.000000
f 1029/1029 1030/1030 1031/1031 1032/1032
g cloth_blank
usemtl teal
v 0.275000 -3.160000 0.040598
v 0.275000 -3.600000 0.051708
v 0.412500 -3.600000 -0.006729
v 0.412500 -3.160000 -0.012682
vt 0.000000 1.000000
vt 0.000000 0.000000
vt 1.000000 0.000000
vt 1.000000 1.000000
f 1033/1033 1034/1034 1035/1035 1036/1036
g cloth_back
usemtl teal
v 0.412500 -3.160000 -0.012682
v 0.412500 -3.600000 -0.006729
v 0.275000 -3.600000 0.051708
v 0.275000 -3.160000 0.040598
vt 1.000000 1.000000
vt 1.000000 0.000000
vt 0.000000 0.000000
vt 0.000000 1.000000
f 1037/1037 1038/1038 1039/1039 1040/1040
g cloth_blank
usemtl teal
v 0.275000 -3.600000 0.051708
v 0.275000 -4.040000 0.064217
v 0.412500 -4.040000 0.000625
v 0.412500 -3.600000 -0.006729
vt 0.000000 1.000000
vt 0.000000 0.000000
vt 1.000000 0.000000
vt 1.000000 1.000000
f 1041/1041 1042/1042 1043/1043 1044/1044
g cloth_back
usemtl teal
v 0.412500 -3.600000 -0.006729
v 0.412500 -4.040000 0.000625
v 0.275000 -4.040000 0.064217
v 0.275000 -3.600000 0.051708
vt 1.000000 1.000000
vt 1.000000 0.000000
vt 0.000000 0.000000
vt 0.000000 1.000000
f 1045/1045 1046/1046 1047/1047 1048/1048
g cloth_blank
usemtl teal
v 0.275000 -4.040000 0.064217
v 0.275000 -4.480000 0.078127
v 0.412500 -4.480000 0.009378
v 0.412500 -4.040000 0.000625
vt 0.000000 1.000000
vt 0.000000 0.000000
vt 1.000000 0.000000
vt 1.000000 1.000000
f 1049/1049 1050/1050 1051/1051 1052/1052
g cloth_back
usemtl teal
v 0.412500 -4.040000 0.000625
v 0.412500 -4.480000 0.009378
v 0.275000 -4.480000 0.078127
v 0.275000 -4.040000 0.064217
vt 1.000000 1.000000
vt 1.000000 0.000000
vt 0.000000 0.000000
vt 0.000000 1.000000
f 1053/1053 1054/1054 1055/1055 1056/1056
g cloth_blank
usemtl teal
v 0.412500 -0.080000 -0.015155
v 0.412500 -0.520000 -0.019002
v 0.550000 -0.520000 -0.017548
v 0.550000 -0.080000 -0.014037
vt 0.000000 1.000000
vt 0.000000 0.000000
vt 1.000000 0.000000
vt 1.000000 1.000000
f 1057/1057 1058/1058 1059/1059 1060/1060
g cloth_back
usemtl teal
v 0.550000 -0.080000 -0.014037
v 0.550000 -0.520000 -0.017548
v 0.412500 -0.520000 -0.019002
v 0.412500 -0.080000 -0.015155
vt 1.000000 1.000000
vt 1.000000 0.000000
vt 0.000000 0.000000
vt 0.000000 1.000000
f 1061/1061 1062/1062 1063/1063 1064/1064
g cloth_blank
usemtl teal
v 0.412500 -0.520000 -0.019002
v 0.412500 -0.960000 -0.021449
v 0.550000 -0.960000 -0.019659
v 0.550000 -0.520000 -0.017548
vt 0.000000 1.000000
vt 0.000000 0.000000
vt 1.000000 0.000000
vt 1.000000 1.000000
f 1065/1065 1066/1066 1067/1067 1068/1068
g cloth_back
usemtl teal
v 0.550000 -0.520000 -0.017548
v 0.550000 -0.960000 -0.019659
v 0.412500 -0.960000 -0.021449
v 0.412500 -0.520000 -0.019002
vt 1.000000 1.000000
vt 1.000000 0.000000
vt 0.000000 0.000000
vt 0.000000 1.000000
f 1069/1069 1070/1070 1071/1071 1072/1072
g cloth_blank
usemtl teal
v 0.412500 -0.960000 -0.021449
v 0.412500 -1.400000 -0.022495
v 0.550000 -1.400000 -0.020371
v 0.550000 -0.960000 -0.019659
vt 0.000000 1.000000
vt 0.000000 0.000000
vt 1.000000 0.000000
vt 1.000000 1.000000
f 1073/1073 1074/1074 1075/1075 1076/1076
g cloth_back
usemtl teal
v 0.550000 -0.960000 -0.019659
v 0.550000 -1.400000 -0.020371
v 0.412500 -1.400000 -0.022495
v 0.412500 -0.960000 -0.021449
vt 1.000000 1.000000
vt 1.000000 0.000000
vt 0.000000 0.000000
vt 0.000000 1.000000
f 1077/1077 1078/1078 1079/1079 1080/1080
g cloth_blank
usemtl teal
v 0.412500 -1.400000 -0.022495
v 0.412500 -1.840000 -0.022142
v 0.550000 -1.840000 -0.019682
v 0.550000 -1.400000 -0.020371
vt 0.000000 1.000000
vt 0.000000 0.000000
vt 1.000000 0.000000
vt 1.000000 1.000000
f 1081/1081 1082/1082 1083/1083 1084/1084
g cloth_back
usemtl teal
v 0.550000 -1.400000 -0.020371
v 0.550000 -1.840000 -0.019682
v 0.412500 -1.840000 -0.022142
v 0.412500 -1.400000 -0.022495
vt 1.000000 1.000000
vt 1.000000 0.000000
vt 0.000000 0.000000
vt 0.000000 1.000000
f 1085/1085 1086/1086 1087/1087 1088/1088
g cloth_blank
usemtl teal
v 0.412500 -1.840000 -0.022142
v 0.412500 -2.280000 -0.020389
v 0.550000 -2.280000 -0.017593
v 0.550000 -1.840000 -0.019682
vt 0.000000 1.000000
vt 0.000000 0.000000
vt 1.000000 0.000000
vt 1.000000 1.000000
f 1089/1089 1090/1090 1091/1091 1092/1092
g cloth_back
usemtl teal
v 0.550000 -1.840000 -0.019682
v 0.550000 -2.280000 -0.017593
v 0.412500 -2.280000 -0.020389
v 0.412500 -1.840000 -0.022142
vt 1.000000 1.000000
vt 1.000000 0.000000
vt 0.000000 0.000000
vt 0.000000 1.000000
f 1093/1093 1094/1094 1095/1095 1096/1096
g cloth_blank
usemtl teal
v 0.412500 -2.280000 -0.020389
v 0.412500 -2.720000 -0.017235
v 0.550000 -2.720000 -0.014104
v 0.550000 -2.280000 -0.017593
vt 0.000000 1.000000
vt 0.000000 0.000000
vt 1.000000 0.000000
vt 1.000000 1.000000
f 1097/1097 1098/1098 1099/1099 1100/1100
g cloth_back
usemtl teal
v 0.550000 -2.280000 -0.017593
v 0.550000 -2.720000 -0.014104
v 0.412500 -2.720000 -0.017235
v 0.412500 -2.280000 -0.020389
vt 1.000000 1.000000
vt 1.000000 0.000000
vt 0.000000 0.000000
vt 0.000000 1.000000
f 1101/1101 1102/1102 1103/1103 1104/1104
g cloth_blank
usemtl teal
v 0.412500 -2.720000 -0.017235
v 0.412500 -3.160000 -0.012682
v 0.550000 -3.160000 -0.009215
v 0.550000 -2.720000 -0.014104
vt 0.000000 1.000000
vt 0.000000 0.000000
vt 1.000000 0.000000
vt 1.000000 1.000000
f 1105/1105 1106/1106 1107/1107 1108/1108
g cloth_back
usemtl teal
v 0.550000 -2.720000 -0.014104
v 0.550000 -3.160000 -0.009215
v 0.412500 -3.160000 -0.012682
v 0.412500 -2.720000 -0.017235
vt 1.000000 1.000000
vt 1.000000 0.000000
vt 0.000000 0.000000
vt 0.000000 1.000000
f 1109/1109 1110/1110 1111/1111 1112/1112
g cloth_blank
usemtl teal
v 0.412500 -3.160000 -0.012682
v 0.412500 -3.600000 -0.006729
v 0.550000 -3.600000 -0.002926
v 0.550000 -3.160000 -0.009215
vt 0.000000 1.000000
vt 0.000000 0.000000
vt 1.000000 0.000000
vt 1.000000 1.000000
f 1113/1113 1114/1114 1115/1115 1116/1116
g cloth_back
usemtl teal
v 0.550000 -3.160000 -0.009215
v 0.550000 -3.600000 -0.002926
v 0.412500 -3.600000 -0.006729
v 0.412500 -3.160000 -0.012682
vt 1.000000 1.000000
vt 1.000000 0.000000
vt 0.000000 0.000000
vt 0.000000 1.000000
f 1117/1117 1118/1118 1119/1119 1120/1120
g cloth_blank
usemtl teal
v 0.412500 -3.600000 -0.006729
v 0.412500 -4.040000 0.000625
v 0.550000 -4.040000 0.004763
v 0.550000 -3.600000 -0.002926
vt 0.000000 1.000000
vt 0.000000 0.000000
vt 1.000000 0.000000
vt 1.000000 1.000000
f 1121/1121 1122/1122 1123/1123 1124/1124
g cloth_back
usemtl teal
v 0.550000 -3.600000 -0.002926
v 0.550000 -4.040000 0.004763
v 0.412500 -4.040000 0.000625
v 0.412500 -3.600000 -0.006729
vt 1.000000 1.000000
vt 1.000000 0.000000
vt 0.000000 0.000000
vt 0.000000 1.000000
f 1125/1125 1126/1126 1127/1127 1128/1128
g cloth_blank
usemtl teal
v 0.412500 -4.040000 0.000625
v 0.412500 -4.480000 0.009378
v 0.550000 -4.480000 0.013851
v 0.550000 -4.040000 0.004763
vt 0.000000 1.000000
vt 0.000000 0.000000
vt 1.000000 0.000000
vt 1.000000 1.000000
f 1129/1129 1130/1130 1131/1131 1132/1132
g cloth_back
usemtl teal
v 0.550000 -4.040000 0.004763
v 0.550000 -4.480000 0.013851
v 0.412500 -4.480000 0.009378
v 0.412500 -4.040000 0.000625
vt 1.000000 1.000000
vt 1.000000 0.000000
vt 0.000000 0.000000
vt 0.000000 1.000000
f 1133/1133 1134/1134 1135/1135 1136/1136
g cloth_blank
usemtl teal
v 0.550000 -0.080000 -0.014037
v 0.550000 -0.520000 -0.017548
v 0.687500 -0.520000 0.005947
v 0.687500 -0.080000 0.004036
vt 0.000000 1.000000
vt 0.000000 0.000000
vt 1.000000 0.000000
vt 1.000000 1.000000
f 1137/1137 1138/1138 1139/1139 1140/1140
g cloth_back
usemtl teal
v 0.687500 -0.080000 0.004036
v 0.687500 -0.520000 0.005947
v 0.550000 -0.520000 -0.017548
v 0.550000 -0.080000 -0.014037
vt 1.000000 1.000000
vt 1.000000 0.000000
vt 0.000000 0.000000
vt 0.000000 1.000000
f 1141/1141 1142/1142 1143/1143 1144/1144
g cloth_blank
usemtl teal
v 0.550000 -0.520000 -0.017548
v 0.550000 -0.960000 -0.019659
v 0.687500 -0.959999 0.009257
v 0.687500 -0.520000 0.005947
vt 0.000000 1.000000
vt 0.000000 0.000000
vt 1.000000 0.000001
vt 1.000000 1.000000
f 1145/1145 1146/1146 1147/1147 1148/1148
g cloth_back
usemtl teal
v 0.687500 -0.520000 0.005947
v 0.687500 -0.959999 0.009257
v 0.550000 -0.960000 -0.019659
v 0.550000 -0.520000 -0.017548
vt 1.000000 1.000000
vt 1.000000 0.000001
vt 0.000000 0.000000
vt 0.000000 1.000000
f 1149/1149 1150/1150 1151/1151 1152/1152
g cloth_blank
usemtl teal
v 0.550000 -0.960000 -0.019659
v 0.550000 -1.400000 -0.020371
v 0.687500 -1.399987 0.013968
v 0.687500 -0.959999 0.009257
vt 0.000000 0.999999
vt 0.000000 0.000000
vt 1.000000 0.000030
vt 1.000000 1.000000
f 1153/1153 1154/1154 1155/1155 1156/1156
g cloth_back
usemtl teal
v 0.687500 -0.959999 0.009257
v 0.687500 -1.399987 0.013968
v 0.550000 -1.400000 -0.020371
v 0.550000 -0.960000 -0.019659
vt 1.000000 1.000000
vt 1.000000 0.000030
vt 0.000000 0.000000
vt 0.000000 0.999999
f 1157/1157 1158/1158 1159/1159 1160/1160
g cloth_blank
usemtl teal
v 0.550000 -1.400000 -0.020371
v 0.550000 -1.840000 -0.019682
v 0.687500 -1.839869 0.020079
v 0.687500 -1.399987 0.013968
vt 0.000000 0.999970
vt 0.000000 0.000000
vt 1.000000 0.000298
vt 1.000000 1.000000
f 1161/1161 1162/1162 1163/1163 1164/1164
g cloth_back
usemtl teal
v 0.687500 -1.399987 0.013968
v 0.687500 -1.839869 0.020079
v 0.550000 -1.840000 -0.019682
v 0.550000 -1.400000 -0.020371
vt 1.000000 1.000000
vt 1.000000 0.000298
vt 0.000000 0.000000
vt 0.000000 0.999970
f 1165/1165 1166/1166 1167/1167 1168/1168
g cloth_blank
usemtl teal
v 0.550000 -1.840000 -0.019682
v 0.550000 -2.280000 -0.017593
v 0.687500 -2.279219 0.027589
v 0.687500 -1.839869 0.020079
vt 0.000000 0.999702
vt 0.000000 0.000000
vt 1.000000 0.001775
vt 1.000000 1.000000
f 1169/1169 1170/1170 1171/1171 1172/1172
g cloth_back
usemtl teal
v 0.687500 -1.839869 0.020079
v 0.687500 -2.279219 0.027589
v 0.550000 -2.280000 -0.017593
v 0.550000 -1.840000 -0.019682
vt 1.000000 1.000000
vt 1.000000 0.001775
vt 0.000000 0.000000
vt 0.000000 0.999702
f 1173/1173 1174/1174 1175/1175 1176/1176
g cloth_blank
usemtl teal
v 0.550000 -2.280000 -0.017593
v 0.550000 -2.720000 -0.014104
v 0.687500 -2.716641 0.036500
v 0.687500 -2.279219 0.027589
vt 0.000000 0.998228
vt 0.000000 0.000000
vt 1.000000 0.007621
vt 1.000000 1.000000
f 1177/1177 1178/1178 1179/1179 1180/1180
g cloth_back
usemtl teal
v 0.687500 -2.279219 0.027589
v 0.687500 -2.716641 0.036500
v 0.550000 -2.720000 -0.014104
v 0.550000 -2.280000 -0.017593
vt 1.000000 1.000000
vt 1.000000 0.007621
vt 0.000000 0.000000
vt 0.000000 0.998228
f 1181/1181 1182/1182 1183/1183 1184/1184
g cloth_blank
usemtl teal
v 0.550000 -2.720000 -0.014104
v 0.550000 -3.160000 -0.009215
v 0.687500 -3.148470 0.046811
v 0.687500 -2.716641 0.036500
vt 0.000000 0.992423
vt 0.000000 0.000000
vt 1.000000 0.026005
vt 1.000000 1.000000
f 1185/1185 1186/1186 1187/1187 1188/1188
g cloth_back
usemtl teal
v 0.687500 -2.716641 0.036500
v 0.687500 -3.148470 0.046811
v 0.550000 -3.160000 -0.009215
v 0.550000 -2.720000 -0.014104
vt 1.000000 1.000000
vt 1.000000 0.026005
vt 0.000000 0.000000
vt 0.000000 0.992423
f 1189/1189 1190/1190 1191/1191 1192/1192
g cloth_blank
usemtl teal
v 0.550000 -3.160000 -0.009215
v 0.550000 -3.600000 -0.002926
v 0.687500 -3.566446 0.058522
v 0.687500 -3.148470 0.046811
vt 0.000000 0.974465
vt 0.000000 0.000000
vt 1.000000 0.074313
vt 1.000000 1.000000
f 1193/1193 1194/1194 1195/1195 1196/1196
g cloth_back
usemtl teal
v 0.687500 -3.148470 0.046811
v 0.687500 -3.566446 0.058522
v 0.550000 -3.600000 -0.002926
v 0.550000 -3.160000 -0.009215
vt 1.000000 1.000000
vt 1.000000 0.074313
vt 0.000000 0.000000
vt 0.000000 0.974465
f 1197/1197 1198/1198 1199/1199 1200/1200
g cloth_blank
usemtl teal
v 0.550000 -3.600000 -0.002926
v 0.550000 -4.040000 0.004763
v 0.687500 -3.953907 0.071632
v 0.687500 -3.566446 0.058522
vt 0.000000 0.929143
vt 0.000000 0.000000
vt 1.000000 0.181803
vt 1.000000 1.000000
f 1201/1201 1202/1202 1203/1203 1204/1204
g cloth_back
usemtl teal
v 0.687500 -3.566446 0.058522
v 0.687500 -3.953907 0.071632
v 0.550000 -4.040000 0.004763
v 0.550000 -3.600000 -0.002926
vt 1.000000 1.000000
vt 1.000000 0.181803
vt 0.000000 0.000000
vt 0.000000 0.929143
f 1205/1205 1206/1206 1207/1207 1208/1208
g cloth_blank
usemtl teal
v 0.550000 -4.040000 0.004763
v 0.550000 -4.480000 0.013851
v 0.687500 -4.280000 0.086143
v 0.687500 -3.953907 0.071632
vt 0.000000 0.836353
vt 0.000000 0.000000
vt 1.000000 0.380161
vt 1.000000 1.000000
f 1209/1209 1210/1210 1211/1211 1212/1212
g cloth_back
usemtl teal
v 0.687500 -3.953907 0.071632
v 0.687500 -4.280000 0.086143
v 0.550000 -4.480000 0.013851
v 0.550000 -4.040000 0.004763
vt 1.000000 1.000000
vt 1.000000 0.380161
vt 0.000000 0.000000
vt 0.000000 0.836353
f 1213/1213 1214/1214 1215/1215 1216/1216
g cloth_blank
usemtl teal
v 0.687500 -0.080000 0.004036
v 0.687500 -0.520000 0.005947
v 0.825000 -0.520000 0.023104
v 0.825000 -0.080000 0.017234
vt 0.000000 1.000000
vt 0.000000 0.000000
vt 1.000000 0.000000
vt 1.000000 1.000000
f 1217/1217 1218/1218 1219/1219 1220/1220
g cloth_back
usemtl teal
v 0.825000 -0.080000 0.017234
v 0.825000 -0.520000 0.023104
v 0.687500 -0.520000 0.005947
v 0.687500 -0.080000 0.004036
vt 1.000000 1.000000
vt 1.000000 0.000000
vt 0.000000 0.000000
vt 0.000000 1.000000
f 1221/1221 1222/1222 1223/1223 1224/1224
g cloth_blank
usemtl teal
v 0.687500 -0.520000 0.005947
v 0.687500 -0.959999 0.009257
v 0.825000 -0.960000 0.030375
v 0.825000 -0.520000 0.023104
vt 0.000000 1.000000
vt 0.000000 0.000001
vt 1.000000 0.000000
vt 1.000000 1.000000
f 1225/1225 1226/1226 1227/1227 1228/1228
g cloth_back
usemtl teal
v 0.825000 -0.520000 0.023104
v 0.825000 -0.960000 0.030375
v 0.687500 -0.959999 0.009257
v 0.687500 -0.520000 0.005947
vt 1.000000 1.000000
vt 1.000000 0.000000
vt 0.000000 0.000001
vt 0.000000 1.000000
f 1229/1229 1230/1230 1231/1231 1232/1232
g cloth_blank
usemtl teal
v 0.687500 -0.959999 0.009257
v 0.687500 -1.399987 0.013968
v 0.825000 -1.399993 0.039045
v 0.825000 -0.960000 0.030375
vt 0.000000 1.000000
vt 0.000000 0.000015
vt 1.000000 0.000000
vt 1.000000 0.999999
f 1233/1233 1234/1234 1235/1235 1236/1236
g cloth_back
usemtl teal
v 0.825000 -0.960000 0.030375
v 0.825000 -1.399993 0.039045
v 0.687500 -1.399987 0.013968
v 0.687500 -0.959999 0.009257
vt 1.000000 0.999999
vt 1.000000 0.000000
vt 0.000000 0.000015
vt 0.000000 1.000000
f 1237/1237 1238/1238 1239/1239 1240/1240
g cloth_blank
usemtl teal
v 0.687500 -1.399987 0.013968
v 0.687500 -1.839869 0.020079
v 0.825000 -1.839934 0.049115
v 0.825000 -1.399993 0.039045
vt 0.000000 1.000000
vt 0.000000 0.000149
vt 1.000000 0.000000
vt 1.000000 0.999985
f 1241/1241 1242/1242 1243/1243 1244/1244
g cloth_back
usemtl teal
v 0.825000 -1.399993 0.039045
v 0.825000 -1.839934 0.049115
v 0.687500 -1.839869 0.020079
v 0.687500 -1.399987 0.013968
vt 1.000000 0.999985
vt 1.000000 0.000000
vt 0.000000 0.000149
vt 0.000000 1.000000
f 1245/1245 1246/1246 1247/1247 1248/1248
g cloth_blank
usemtl teal
v 0.687500 -1.839869 0.020079
v 0.687500 -2.279219 0.027589
v 0.825000 -2.279609 0.060585
v 0.825000 -1.839934 0.049115
vt 0.000000 1.000000
vt 0.000000 0.000888
vt 1.000000 0.000000
vt 1.000000 0.999851
f 1249/1249 1250/1250 1251/1251 1252/1252
g cloth_back
usemtl teal
v 0.825000 -1.839934 0.049115
v 0.825000 -2.279609 0.060585
v 0.687500 -2.279219 0.027589
v 0.687500 -1.839869 0.020079
vt 1.000000 0.999851
vt 1.000000 0.000000
vt 0.000000 0.000888
vt 0.000000 1.000000
f 1253/1253 1254/1254 1255/1255 1256/1256
g cloth_blank
usemtl teal
v 0.687500 -2.279219 0.027589
v 0.687500 -2.716641 0.036500
v 0.825000 -2.718320 0.073456
v 0.825000 -2.279609 0.060585
vt 0.000000 1.000000
vt 0.000000 0.003825
vt 1.000000 0.000000
vt 1.000000 0.999110
f 1257/1257 1258/1258 1259/1259 1260/1260
g cloth_back
usemtl teal
v 0.825000 -2.279609 0.060585
v 0.825000 -2.718320 0.073456
v 0.687500 -2.716641 0.036500
v 0.687500 -2.279219 0.027589
vt 1.000000 0.999110
vt 1.000000 0.000000
vt 0.000000 0.003825
vt 0.000000 1.000000
f 1261/1261 1262/1262 1263/1263 1264/1264
g cloth_blank
usemtl teal
v 0.687500 -2.716641 0.036500
v 0.687500 -3.148470 0.046811
v 0.825000 -3.154235 0.087726
v 0.825000 -2.718320 0.073456
vt 0.000000 1.000000
vt 0.000000 0.013174
vt 1.000000 0.000000
vt 1.000000 0.996162
f 1265/1265 1266/1266 1267/1267 1268/1268
g cloth_back
usemtl teal
v 0.825000 -2.718320 0.073456
v 0.825000 -3.154235 0.087726
v 0.687500 -3.148470 0.046811
v 0.687500 -2.716641 0.036500
vt 1.000000 0.996162
vt 1.000000 0.000000
vt 0.000000 0.013174
vt 0.000000 1.000000
f 1269/1269 1270/1270 1271/1271 1272/1272
g cloth_blank
usemtl teal
v 0.687500 -3.148470 0.046811
v 0.687500 -3.566446 0.058522
v 0.825000 -3.583223 0.103396
v 0.825000 -3.154235 0.087726
vt 0.000000 1.000000
vt 0.000000 0.038590
vt 1.000000 0.000000
vt 1.000000 0.986740
f 1273/1273 1274/1274 1275/1275 1276/1276
g cloth_back
usemtl teal
v 0.825000 -3.154235 0.087726
v 0.825000 -3.583223 0.103396
v 0.687500 -3.566446 0.058522
v 0.687500 -3.148470 0.046811
vt 1.000000 0.986740
vt 1.000000 0.000000
vt 0.000000 0.038590
vt 0.000000 1.000000
f 1277/1277 1278/1278 1279/1279 1280/1280
g cloth_blank
usemtl teal
v 0.687500 -3.566446 0.058522
v 0.687500 -3.953907 0.071632
v 0.825000 -3.996953 0.120466
v 0.825000 -3.583223 0.103396
vt 0.000000 1.000000
vt 0.000000 0.099991
vt 1.000000 0.000000
vt 1.000000 0.961029
f 1281/1281 1282/1282 1283/1283 1284/1284
g cloth_back
usemtl teal
v 0.825000 -3.583223 0.103396
v 0.825000 -3.996953 0.120466
v 0.687500 -3.953907 0.071632
v 0.687500 -3.566446 0.058522
vt 1.000000 0.961029
vt 1.000000 0.000000
vt 0.000000 0.099991
vt 0.000000 1.000000
f 1285/1285 1286/1286 1287/1287 1288/1288
g cloth_blank
usemtl teal
v 0.687500 -3.953907 0.071632
v 0.687500 -4.280000 0.086143
v 0.825000 -4.380000 0.138937
v 0.825000 -3.996953 0.120466
vt 0.000000 1.000000
vt 0.000000 0.234690
vt 1.000000 0.000000
vt 1.000000 0.898974
f 1289/1289 1290/1290 1291/1291 1292/1292
g cloth_back
usemtl teal
v 0.825000 -3.996953 0.120466
v 0.825000 -4.380000 0.138937
v 0.687500 -4.280000 0.086143
v 0.687500 -3.953907 0.071632
vt 1.000000 0.898974
vt 1.000000 0.000000
vt 0.000000 0.234690
vt 0.000000 1.000000
f 1293/1293 1294/1294 1295/1295 1296/1296
g ceiling_suspension
usemtl metal
v -0.635000 0.040000 0.000000
v -0.635000 1.700000 0.000000
v -0.639393 1.700000 -0.010607
v -0.639393 0.040000 -0.010607
vt 1.000000 0.000000
vt 1.000000 1.000000
vt 0.000000 1.000000
vt 0.000000 0.000000
f 1297/1297 1298/1298 1299/1299 1300/1300
v -0.639393 0.040000 -0.010607
v -0.639393 1.700000 -0.010607
v -0.650000 1.700000 -0.015000
v -0.650000 0.040000 -0.015000
vt 1.000000 0.000000
vt 1.000000 1.000000
vt 0.000000 1.000000
vt 0.000000 0.000000
f 1301/1301 1302/1302 1303/1303 1304/1304
v -0.650000 0.040000 -0.015000
v -0.650000 1.700000 -0.015000
v -0.660607 1.700000 -0.010607
v -0.660607 0.040000 -0.010607
vt 1.000000 0.000000
vt 1.000000 1.000000
vt 0.000000 1.000000
vt 0.000000 0.000000
f 1305/1305 1306/1306 1307/1307 1308/1308
v -0.660607 0.040000 -0.010607
v -0.660607 1.700000 -0.010607
v -0.665000 1.700000 -0.000000
v -0.665000 0.040000 -0.000000
vt 0.000000 0.000000
vt 0.000000 1.000000
vt 1.000000 1.000000
vt 1.000000 0.000000
f 1309/1309 1310/1310 1311/1311 1312/1312
v -0.665000 0.040000 -0.000000
v -0.665000 1.700000 -0.000000
v -0.660607 1.700000 0.010607
v -0.660607 0.040000 0.010607
vt 0.000000 0.000000
vt 0.000000 1.000000
vt 1.000000 1.000000
vt 1.000000 0.000000
f 1313/1313 1314/1314 1315/1315 1316/1316
v -0.660607 0.040000 0.010607
v -0.660607 1.700000 0.010607
v -0.650000 1.700000 0.015000
v -0.650000 0.040000 0.015000
vt 0.000000 0.000000
vt 0.000000 1.000000
vt 1.000000 1.000000
vt 1.000000 0.000000
f 1317/1317 1318/1318 1319/1319 1320/1320
v -0.650000 0.040000 0.015000
v -0.650000 1.700000 0.015000
v -0.639393 1.700000 0.010607
v -0.639393 0.040000 0.010607
vt 0.000000 0.000000
vt 0.000000 1.000000
vt 1.000000 1.000000
vt 1.000000 0.000000
f 1321/1321 1322/1322 1323/1323 1324/1324
v -0.639393 0.040000 0.010607
v -0.639393 1.700000 0.010607
v -0.635000 1.700000 0.000000
v -0.635000 0.040000 0.000000
vt 1.000000 0.000000
vt 1.000000 1.000000
vt 0.000000 1.000000
vt 0.000000 0.000000
f 1325/1325 1326/1326 1327/1327 1328/1328
v 0.665000 0.040000 0.000000
v 0.665000 1.700000 0.000000
v 0.660607 1.700000 -0.010607
v 0.660607 0.040000 -0.010607
vt 1.000000 0.000000
vt 1.000000 1.000000
vt 0.000000 1.000000
vt 0.000000 0.000000
f 1329/1329 1330/1330 1331/1331 1332/1332
v 0.660607 0.040000 -0.010607
v 0.660607 1.700000 -0.010607
v 0.650000 1.700000 -0.015000
v 0.650000 0.040000 -0.015000
vt 1.000000 0.000000
vt 1.000000 1.000000
vt 0.000000 1.000000
vt 0.000000 0.000000
f 1333/1333 1334/1334 1335/1335 1336/1336
v 0.650000 0.040000 -0.015000
v 0.650000 1.700000 -0.015000
v 0.639393 1.700000 -0.010607
v 0.639393 0.040000 -0.010607
vt 1.000000 0.000000
vt 1.000000 1.000000
vt 0.000000 1.000000
vt 0.000000 0.000000
f 1337/1337 1338/1338 1339/1339 1340/1340
v 0.639393 0.040000 -0.010607
v 0.639393 1.700000 -0.010607
v 0.635000 1.700000 -0.000000
v 0.635000 0.040000 -0.000000
vt 0.000000 0.000000
vt 0.000000 1.000000
vt 1.000000 1.000000
vt 1.000000 0.000000
f 1341/1341 1342/1342 1343/1343 1344/1344
v 0.635000 0.040000 -0.000000
v 0.635000 1.700000 -0.000000
v 0.639393 1.700000 0.010607
v 0.639393 0.040000 0.010607
vt 0.000000 0.000000
vt 0.000000 1.000000
vt 1.000000 1.000000
vt 1.000000 0.000000
f 1345/1345 1346/1346 1347/1347 1348/1348
v 0.639393 0.040000 0.010607
v 0.639393 1.700000 0.010607
v 0.650000 1.700000 0.015000
v 0.650000 0.040000 0.015000
vt 0.000000 0.000000
vt 0.000000 1.000000
vt 1.000000 1.000000
vt 1.000000 0.000000
f 1349/1349 1350/1350 1351/1351 1352/1352
v 0.650000 0.040000 0.015000
v 0.650000 1.700000 0.015000
v 0.660607 1.700000 0.010607
v 0.660607 0.040000 0.010607
vt 0.000000 0.000000
vt 0.000000 1.000000
vt 1.000000 1.000000
vt 1.000000 0.000000
f 1353/1353 1354/1354 1355/1355 1356/1356
v 0.660607 0.040000 0.010607
v 0.660607 1.700000 0.010607
v 0.665000 1.700000 0.000000
v 0.665000 0.040000 0.000000
vt 1.000000 0.000000
vt 1.000000 1.000000
vt 0.000000 1.000000
vt 0.000000 0.000000
f 1357/1357 1358/1358 1359/1359 1360/1360
g bottom_hem
usemtl brass
v -0.826044 -4.480000 0.094978
v 0.823956 -4.380000 0.163915
v 0.825330 -4.397645 0.156643
v -0.824670 -4.497645 0.087707
vt 0.000000 0.149988
vt 0.999168 1.000000
vt 1.000000 0.850012
vt 0.000832 0.000000
f 1361/1361 1362/1362 1363/1363 1364/1364
v -0.824670 -4.497645 0.087707
v 0.825330 -4.397645 0.156643
v 0.826510 -4.404954 0.139000
v -0.823490 -4.504954 0.070063
vt 0.000000 0.068111
vt 0.999285 1.000000
vt 1.000000 0.931889
vt 0.000715 0.000000
f 1365/1365 1366/1366 1367/1367 1368/1368
v -0.823490 -4.504954 0.070063
v 0.826510 -4.404954 0.139000
v 0.826805 -4.397645 0.121319
v -0.823195 -4.497645 0.052382
vt 0.000000 0.000000
vt 0.999821 0.931889
vt 1.000000 1.000000
vt 0.000179 0.068111
f 1369/1369 1370/1370 1371/1371 1372/1372
v -0.823195 -4.497645 0.052382
v 0.826805 -4.397645 0.121319
v 0.826044 -4.380000 0.113958
v -0.823956 -4.480000 0.045022
vt 0.000462 0.000000
vt 1.000000 0.850012
vt 0.999538 1.000000
vt 0.000000 0.149988
f 1373/1373 1374/1374 1375/1375 1376/1376
v -0.823956 -4.480000 0.045022
v 0.826044 -4.380000 0.113958
v 0.824670 -4.362355 0.121230
v -0.825330 -4.462355 0.052293
vt 0.000832 0.000000
vt 1.000000 0.850012
vt 0.999168 1.000000
vt 0.000000 0.149988
f 1377/1377 1378/1378 1379/1379 1380/1380
v -0.825330 -4.462355 0.052293
v 0.824670 -4.362355 0.121230
v 0.823490 -4.355046 0.138873
v -0.826510 -4.455046 0.069937
vt 0.000715 0.000000
vt 1.000000 0.931889
vt 0.999285 1.000000
vt 0.000000 0.068111
f 1381/1381 1382/1382 1383/1383 1384/1384
v -0.826510 -4.455046 0.069937
v 0.823490 -4.355046 0.138873
v 0.823195 -4.362355 0.156554
v -0.826805 -4.462355 0.087618
vt 0.000179 0.068111
vt 1.000000 1.000000
vt 0.999821 0.931889
vt 0.000000 0.000000
f 1385/1385 1386/1386 1387/1387 1388/1388
v -0.826805 -4.462355 0.087618
v 0.823195 -4.362355 0.156554
v 0.823956 -4.380000 0.163915
v -0.826044 -4.480000 0.094978
vt 0.000000 0.149988
vt 0.999538 1.000000
vt 1.000000 0.850012
vt 0.000462 0.000000
f 1389/1389 1390/1390 1391/1391 1392/1392
