# Rounded authored office prop; metres, Y-up
mtllib refined_palette.mtl
s 1
g calendar_backing
usemtl ivory
v 0.128000 0.014000 -0.012500
v 0.127413 0.010292 -0.012500
v 0.125708 0.006947 -0.012500
v 0.123053 0.004292 -0.012500
v 0.119708 0.002587 -0.012500
v 0.116000 0.002000 -0.012500
v -0.116000 0.002000 -0.012500
v -0.119708 0.002587 -0.012500
v -0.123053 0.004292 -0.012500
v -0.125708 0.006947 -0.012500
v -0.127413 0.010292 -0.012500
v -0.128000 0.014000 -0.012500
v -0.128000 0.386000 -0.012500
v -0.127413 0.389708 -0.012500
v -0.125708 0.393053 -0.012500
v -0.123053 0.395708 -0.012500
v -0.119708 0.397413 -0.012500
v -0.116000 0.398000 -0.012500
v 0.116000 0.398000 -0.012500
v 0.119708 0.397413 -0.012500
v 0.123053 0.395708 -0.012500
v 0.125708 0.393053 -0.012500
v 0.127413 0.389708 -0.012500
v 0.128000 0.386000 -0.012500
vt 1.000000 0.030303
vt 0.997706 0.020939
vt 0.991048 0.012491
vt 0.980677 0.005787
vt 0.967610 0.001483
vt 0.953125 0.000000
vt 0.046875 0.000000
vt 0.032390 0.001483
vt 0.019323 0.005787
vt 0.008952 0.012491
vt 0.002294 0.020939
vt 0.000000 0.030303
vt 0.000000 0.969697
vt 0.002294 0.979061
vt 0.008952 0.987509
vt 0.019323 0.994213
vt 0.032390 0.998517
vt 0.046875 1.000000
vt 0.953125 1.000000
vt 0.967610 0.998517
vt 0.980677 0.994213
vt 0.991048 0.987509
vt 0.997706 0.979061
vt 1.000000 0.969697
f 1/1 2/2 3/3 4/4 5/5 6/6 7/7 8/8 9/9 10/10 11/11 12/12 13/13 14/14 15/15 16/16 17/17 18/18 19/19 20/20 21/21 22/22 23/23 24/24
v 0.128000 0.386000 0.022500
v 0.127413 0.389708 0.022500
v 0.125708 0.393053 0.022500
v 0.123053 0.395708 0.022500
v 0.119708 0.397413 0.022500
v 0.116000 0.398000 0.022500
v -0.116000 0.398000 0.022500
v -0.119708 0.397413 0.022500
v -0.123053 0.395708 0.022500
v -0.125708 0.393053 0.022500
v -0.127413 0.389708 0.022500
v -0.128000 0.386000 0.022500
v -0.128000 0.014000 0.022500
v -0.127413 0.010292 0.022500
v -0.125708 0.006947 0.022500
v -0.123053 0.004292 0.022500
v -0.119708 0.002587 0.022500
v -0.116000 0.002000 0.022500
v 0.116000 0.002000 0.022500
v 0.119708 0.002587 0.022500
v 0.123053 0.004292 0.022500
v 0.125708 0.006947 0.022500
v 0.127413 0.010292 0.022500
v 0.128000 0.014000 0.022500
vt 1.000000 0.969697
vt 0.997706 0.979061
vt 0.991048 0.987509
vt 0.980677 0.994213
vt 0.967610 0.998517
vt 0.953125 1.000000
vt 0.046875 1.000000
vt 0.032390 0.998517
vt 0.019323 0.994213
vt 0.008952 0.987509
vt 0.002294 0.979061
vt 0.000000 0.969697
vt 0.000000 0.030303
vt 0.002294 0.020939
vt 0.008952 0.012491
vt 0.019323 0.005787
vt 0.032390 0.001483
vt 0.046875 0.000000
vt 0.953125 0.000000
vt 0.967610 0.001483
vt 0.980677 0.005787
vt 0.991048 0.012491
vt 0.997706 0.020939
vt 1.000000 0.030303
f 25/25 26/26 27/27 28/28 29/29 30/30 31/31 32/32 33/33 34/34 35/35 36/36 37/37 38/38 39/39 40/40 41/41 42/42 43/43 44/44 45/45 46/46 47/47 48/48
v 0.128000 0.386000 -0.012500
v 0.127413 0.389708 -0.012500
v 0.138825 0.393416 -0.000500
v 0.140000 0.386000 -0.000500
vt 0.046660 0.000000
vt 0.000000 0.000000
vt 0.906680 1.000000
vt 1.000000 1.000000
f 49/49 50/50 51/51 52/52
v 0.127413 0.389708 -0.012500
v 0.125708 0.393053 -0.012500
v 0.135416 0.400107 -0.000500
v 0.138825 0.393416 -0.000500
vt 0.129942 0.000000
vt 0.000000 0.000000
vt 0.740115 1.000000
vt 1.000000 1.000000
f 53/53 54/54 55/55 56/56
v 0.125708 0.393053 -0.012500
v 0.123053 0.395708 -0.012500
v 0.130107 0.405416 -0.000500
v 0.135416 0.400107 -0.000500
vt 0.214736 0.000000
vt 0.000000 0.214736
vt 0.570528 1.000000
vt 1.000000 0.570528
f 57/57 58/58 59/59 60/60
v 0.123053 0.395708 -0.012500
v 0.119708 0.397413 -0.012500
v 0.123416 0.408825 -0.000500
v 0.130107 0.405416 -0.000500
vt 0.000000 0.000000
vt 0.000000 0.129942
vt 1.000000 1.000000
vt 1.000000 0.740115
f 61/61 62/62 63/63 64/64
v 0.119708 0.397413 -0.012500
v 0.116000 0.398000 -0.012500
v 0.116000 0.410000 -0.000500
v 0.123416 0.408825 -0.000500
vt 0.000000 0.000000
vt 0.000000 0.046660
vt 1.000000 1.000000
vt 1.000000 0.906680
f 65/65 66/66 67/67 68/68
v 0.116000 0.398000 -0.012500
v -0.116000 0.398000 -0.012500
v -0.116000 0.410000 -0.000500
v 0.116000 0.410000 -0.000500
vt 1.000000 0.000000
vt 0.000000 0.000000
vt 0.000000 1.000000
vt 1.000000 1.000000
f 69/69 70/70 71/71 72/72
v -0.116000 0.398000 -0.012500
v -0.119708 0.397413 -0.012500
v -0.123416 0.408825 -0.000500
v -0.116000 0.410000 -0.000500
vt 0.000000 0.046660
vt 0.000000 0.000000
vt 1.000000 0.906680
vt 1.000000 1.000000
f 73/73 74/74 75/75 76/76
v -0.119708 0.397413 -0.012500
v -0.123053 0.395708 -0.012500
v -0.130107 0.405416 -0.000500
v -0.123416 0.408825 -0.000500
vt 0.000000 0.129942
vt 0.000000 0.000000
vt 1.000000 0.740115
vt 1.000000 1.000000
f 77/77 78/78 79/79 80/80
v -0.123053 0.395708 -0.012500
v -0.125708 0.393053 -0.012500
v -0.135416 0.400107 -0.000500
v -0.130107 0.405416 -0.000500
vt 1.000000 0.214736
vt 0.785264 0.000000
vt 0.000000 0.570528
vt 0.429472 1.000000
f 81/81 82/82 83/83 84/84
v -0.125708 0.393053 -0.012500
v -0.127413 0.389708 -0.012500
v -0.138825 0.393416 -0.000500
v -0.135416 0.400107 -0.000500
vt 1.000000 0.000000
vt 0.870058 0.000000
vt 0.000000 1.000000
vt 0.259885 1.000000
f 85/85 86/86 87/87 88/88
v -0.127413 0.389708 -0.012500
v -0.128000 0.386000 -0.012500
v -0.140000 0.386000 -0.000500
v -0.138825 0.393416 -0.000500
vt 1.000000 0.000000
vt 0.953340 0.000000
vt 0.000000 1.000000
vt 0.093320 1.000000
f 89/89 90/90 91/91 92/92
v -0.128000 0.386000 -0.012500
v -0.128000 0.014000 -0.012500
v -0.140000 0.014000 -0.000500
v -0.140000 0.386000 -0.000500
vt 1.000000 1.000000
vt 1.000000 0.000000
vt 0.000000 0.000000
vt 0.000000 1.000000
f 93/93 94/94 95/95 96/96
v -0.128000 0.014000 -0.012500
v -0.127413 0.010292 -0.012500
v -0.138825 0.006584 -0.000500
v -0.140000 0.014000 -0.000500
vt 0.953340 0.000000
vt 1.000000 0.000000
vt 0.093320 1.000000
vt 0.000000 1.000000
f 97/97 98/98 99/99 100/100
v -0.127413 0.010292 -0.012500
v -0.125708 0.006947 -0.012500
v -0.135416 -0.000107 -0.000500
v -0.138825 0.006584 -0.000500
vt 0.870058 0.000000
vt 1.000000 0.000000
vt 0.259885 1.000000
vt 0.000000 1.000000
f 101/101 102/102 103/103 104/104
v -0.125708 0.006947 -0.012500
v -0.123053 0.004292 -0.012500
v -0.130107 -0.005416 -0.000500
v -0.135416 -0.000107 -0.000500
vt 0.785264 1.000000
vt 1.000000 0.785264
vt 0.429472 0.000000
vt 0.000000 0.429472
f 105/105 106/106 107/107 108/108
v -0.123053 0.004292 -0.012500
v -0.119708 0.002587 -0.012500
v -0.123416 -0.008825 -0.000500
v -0.130107 -0.005416 -0.000500
vt 0.000000 1.000000
vt 0.000000 0.870058
vt 1.000000 0.000000
vt 1.000000 0.259885
f 109/109 110/110 111/111 112/112
v -0.119708 0.002587 -0.012500
v -0.116000 0.002000 -0.012500
v -0.116000 -0.010000 -0.000500
v -0.123416 -0.008825 -0.000500
vt 0.000000 1.000000
vt 0.000000 0.953340
vt 1.000000 0.000000
vt 1.000000 0.093320
f 113/113 114/114 115/115 116/116
v -0.116000 0.002000 -0.012500
v 0.116000 0.002000 -0.012500
v 0.116000 -0.010000 -0.000500
v -0.116000 -0.010000 -0.000500
vt 0.000000 1.000000
vt 1.000000 1.000000
vt 1.000000 0.000000
vt 0.000000 0.000000
f 117/117 118/118 119/119 120/120
v 0.116000 0.002000 -0.012500
v 0.119708 0.002587 -0.012500
v 0.123416 -0.008825 -0.000500
v 0.116000 -0.010000 -0.000500
vt 0.000000 0.953340
vt 0.000000 1.000000
vt 1.000000 0.093320
vt 1.000000 0.000000
f 121/121 122/122 123/123 124/124
v 0.119708 0.002587 -0.012500
v 0.123053 0.004292 -0.012500
v 0.130107 -0.005416 -0.000500
v 0.123416 -0.008825 -0.000500
vt 0.000000 0.870058
vt 0.000000 1.000000
vt 1.000000 0.259885
vt 1.000000 0.000000
f 125/125 126/126 127/127 128/128
v 0.123053 0.004292 -0.012500
v 0.125708 0.006947 -0.012500
v 0.135416 -0.000107 -0.000500
v 0.130107 -0.005416 -0.000500
vt 0.000000 0.785264
vt 0.214736 1.000000
vt 1.000000 0.429472
vt 0.570528 0.000000
f 129/129 130/130 131/131 132/132
v 0.125708 0.006947 -0.012500
v 0.127413 0.010292 -0.012500
v 0.138825 0.006584 -0.000500
v 0.135416 -0.000107 -0.000500
vt 0.000000 0.000000
vt 0.129942 0.000000
vt 1.000000 1.000000
vt 0.740115 1.000000
f 133/133 134/134 135/135 136/136
v 0.127413 0.010292 -0.012500
v 0.128000 0.014000 -0.012500
v 0.140000 0.014000 -0.000500
v 0.138825 0.006584 -0.000500
vt 0.000000 0.000000
vt 0.046660 0.000000
vt 1.000000 1.000000
vt 0.906680 1.000000
f 137/137 138/138 139/139 140/140
v 0.128000 0.014000 -0.012500
v 0.128000 0.386000 -0.012500
v 0.140000 0.386000 -0.000500
v 0.140000 0.014000 -0.000500
vt 0.000000 0.000000
vt 0.000000 1.000000
vt 1.000000 1.000000
vt 1.000000 0.000000
f 141/141 142/142 143/143 144/144
v 0.140000 0.386000 -0.000500
v 0.138825 0.393416 -0.000500
v 0.138825 0.393416 0.010500
v 0.140000 0.386000 0.010500
vt 0.000000 0.000000
vt 0.000000 1.000000
vt 1.000000 1.000000
vt 1.000000 0.000000
f 145/145 146/146 147/147 148/148
v 0.138825 0.393416 -0.000500
v 0.135416 0.400107 -0.000500
v 0.135416 0.400107 0.010500
v 0.138825 0.393416 0.010500
vt 0.000000 0.000000
vt 0.000000 1.000000
vt 1.000000 1.000000
vt 1.000000 0.000000
f 149/149 150/150 151/151 152/152
v 0.135416 0.400107 -0.000500
v 0.130107 0.405416 -0.000500
v 0.130107 0.405416 0.010500
v 0.135416 0.400107 0.010500
vt 0.000000 0.000000
vt 0.000000 1.000000
vt 1.000000 1.000000
vt 1.000000 0.000000
f 153/153 154/154 155/155 156/156
v 0.130107 0.405416 -0.000500
v 0.123416 0.408825 -0.000500
v 0.123416 0.408825 0.010500
v 0.130107 0.405416 0.010500
vt 1.000000 0.000000
vt 0.000000 0.000000
vt 0.000000 1.000000
vt 1.000000 1.000000
f 157/157 158/158 159/159 160/160
v 0.123416 0.408825 -0.000500
v 0.116000 0.410000 -0.000500
v 0.116000 0.410000 0.010500
v 0.123416 0.408825 0.010500
vt 1.000000 0.000000
vt 0.000000 0.000000
vt 0.000000 1.000000
vt 1.000000 1.000000
f 161/161 162/162 163/163 164/164
v 0.116000 0.410000 -0.000500
v -0.116000 0.410000 -0.000500
v -0.116000 0.410000 0.010500
v 0.116000 0.410000 0.010500
vt 1.000000 0.000000
vt 0.000000 0.000000
vt 0.000000 1.000000
vt 1.000000 1.000000
f 165/165 166/166 167/167 168/168
v -0.116000 0.410000 -0.000500
v -0.123416 0.408825 -0.000500
v -0.123416 0.408825 0.010500
v -0.116000 0.410000 0.010500
vt 1.000000 0.000000
vt 0.000000 0.000000
vt 0.000000 1.000000
vt 1.000000 1.000000
f 169/169 170/170 171/171 172/172
v -0.123416 0.408825 -0.000500
v -0.130107 0.405416 -0.000500
v -0.130107 0.405416 0.010500
v -0.123416 0.408825 0.010500
vt 1.000000 0.000000
vt 0.000000 0.000000
vt 0.000000 1.000000
vt 1.000000 1.000000
f 173/173 174/174 175/175 176/176
v -0.130107 0.405416 -0.000500
v -0.135416 0.400107 -0.000500
v -0.135416 0.400107 0.010500
v -0.130107 0.405416 0.010500
vt 0.000000 1.000000
vt 0.000000 0.000000
vt 1.000000 0.000000
vt 1.000000 1.000000
f 177/177 178/178 179/179 180/180
v -0.135416 0.400107 -0.000500
v -0.138825 0.393416 -0.000500
v -0.138825 0.393416 0.010500
v -0.135416 0.400107 0.010500
vt 0.000000 1.000000
vt 0.000000 0.000000
vt 1.000000 0.000000
vt 1.000000 1.000000
f 181/181 182/182 183/183 184/184
v -0.138825 0.393416 -0.000500
v -0.140000 0.386000 -0.000500
v -0.140000 0.386000 0.010500
v -0.138825 0.393416 0.010500
vt 0.000000 1.000000
vt 0.000000 0.000000
vt 1.000000 0.000000
vt 1.000000 1.000000
f 185/185 186/186 187/187 188/188
v -0.140000 0.386000 -0.000500
v -0.140000 0.014000 -0.000500
v -0.140000 0.014000 0.010500
v -0.140000 0.386000 0.010500
vt 0.000000 1.000000
vt 0.000000 0.000000
vt 1.000000 0.000000
vt 1.000000 1.000000
f 189/189 190/190 191/191 192/192
v -0.140000 0.014000 -0.000500
v -0.138825 0.006584 -0.000500
v -0.138825 0.006584 0.010500
v -0.140000 0.014000 0.010500
vt 0.000000 1.000000
vt 0.000000 0.000000
vt 1.000000 0.000000
vt 1.000000 1.000000
f 193/193 194/194 195/195 196/196
v -0.138825 0.006584 -0.000500
v -0.135416 -0.000107 -0.000500
v -0.135416 -0.000107 0.010500
v -0.138825 0.006584 0.010500
vt 0.000000 1.000000
vt 0.000000 0.000000
vt 1.000000 0.000000
vt 1.000000 1.000000
f 197/197 198/198 199/199 200/200
v -0.135416 -0.000107 -0.000500
v -0.130107 -0.005416 -0.000500
v -0.130107 -0.005416 0.010500
v -0.135416 -0.000107 0.010500
vt 0.000000 0.000000
vt 1.000000 0.000000
vt 1.000000 1.000000
vt 0.000000 1.000000
f 201/201 202/202 203/203 204/204
v -0.130107 -0.005416 -0.000500
v -0.123416 -0.008825 -0.000500
v -0.123416 -0.008825 0.010500
v -0.130107 -0.005416 0.010500
vt 0.000000 0.000000
vt 1.000000 0.000000
vt 1.000000 1.000000
vt 0.000000 1.000000
f 205/205 206/206 207/207 208/208
v -0.123416 -0.008825 -0.000500
v -0.116000 -0.010000 -0.000500
v -0.116000 -0.010000 0.010500
v -0.123416 -0.008825 0.010500
vt 0.000000 0.000000
vt 1.000000 0.000000
vt 1.000000 1.000000
vt 0.000000 1.000000
f 209/209 210/210 211/211 212/212
v -0.116000 -0.010000 -0.000500
v 0.116000 -0.010000 -0.000500
v 0.116000 -0.010000 0.010500
v -0.116000 -0.010000 0.010500
vt 0.000000 0.000000
vt 1.000000 0.000000
vt 1.000000 1.000000
vt 0.000000 1.000000
f 213/213 214/214 215/215 216/216
v 0.116000 -0.010000 -0.000500
v 0.123416 -0.008825 -0.000500
v 0.123416 -0.008825 0.010500
v 0.116000 -0.010000 0.010500
vt 0.000000 0.000000
vt 1.000000 0.000000
vt 1.000000 1.000000
vt 0.000000 1.000000
f 217/217 218/218 219/219 220/220
v 0.123416 -0.008825 -0.000500
v 0.130107 -0.005416 -0.000500
v 0.130107 -0.005416 0.010500
v 0.123416 -0.008825 0.010500
vt 0.000000 0.000000
vt 1.000000 0.000000
vt 1.000000 1.000000
vt 0.000000 1.000000
f 221/221 222/222 223/223 224/224
v 0.130107 -0.005416 -0.000500
v 0.135416 -0.000107 -0.000500
v 0.135416 -0.000107 0.010500
v 0.130107 -0.005416 0.010500
vt 0.000000 0.000000
vt 1.000000 0.000000
vt 1.000000 1.000000
vt 0.000000 1.000000
f 225/225 226/226 227/227 228/228
v 0.135416 -0.000107 -0.000500
v 0.138825 0.006584 -0.000500
v 0.138825 0.006584 0.010500
v 0.135416 -0.000107 0.010500
vt 0.000000 0.000000
vt 0.000000 1.000000
vt 1.000000 1.000000
vt 1.000000 0.000000
f 229/229 230/230 231/231 232/232
v 0.138825 0.006584 -0.000500
v 0.140000 0.014000 -0.000500
v 0.140000 0.014000 0.010500
v 0.138825 0.006584 0.010500
vt 0.000000 0.000000
vt 0.000000 1.000000
vt 1.000000 1.000000
vt 1.000000 0.000000
f 233/233 234/234 235/235 236/236
v 0.140000 0.014000 -0.000500
v 0.140000 0.386000 -0.000500
v 0.140000 0.386000 0.010500
v 0.140000 0.014000 0.010500
vt 0.000000 0.000000
vt 0.000000 1.000000
vt 1.000000 1.000000
vt 1.000000 0.000000
f 237/237 238/238 239/239 240/240
v 0.140000 0.386000 0.010500
v 0.138825 0.393416 0.010500
v 0.127413 0.389708 0.022500
v 0.128000 0.386000 0.022500
vt 1.000000 0.000000
vt 0.906680 0.000000
vt 0.000000 1.000000
vt 0.046660 1.000000
f 241/241 242/242 243/243 244/244
v 0.138825 0.393416 0.010500
v 0.135416 0.400107 0.010500
v 0.125708 0.393053 0.022500
v 0.127413 0.389708 0.022500
vt 1.000000 0.000000
vt 0.740115 0.000000
vt 0.000000 1.000000
vt 0.129942 1.000000
f 245/245 246/246 247/247 248/248
v 0.135416 0.400107 0.010500
v 0.130107 0.405416 0.010500
v 0.123053 0.395708 0.022500
v 0.125708 0.393053 0.022500
vt 1.000000 0.570528
vt 0.570528 1.000000
vt 0.000000 0.214736
vt 0.214736 0.000000
f 249/249 250/250 251/251 252/252
v 0.130107 0.405416 0.010500
v 0.123416 0.408825 0.010500
v 0.119708 0.397413 0.022500
v 0.123053 0.395708 0.022500
vt 0.000000 0.740115
vt 0.000000 1.000000
vt 1.000000 0.129942
vt 1.000000 0.000000
f 253/253 254/254 255/255 256/256
v 0.123416 0.408825 0.010500
v 0.116000 0.410000 0.010500
v 0.116000 0.398000 0.022500
v 0.119708 0.397413 0.022500
vt 0.000000 0.906680
vt 0.000000 1.000000
vt 1.000000 0.046660
vt 1.000000 0.000000
f 257/257 258/258 259/259 260/260
v 0.116000 0.410000 0.010500
v -0.116000 0.410000 0.010500
v -0.116000 0.398000 0.022500
v 0.116000 0.398000 0.022500
vt 1.000000 1.000000
vt 0.000000 1.000000
vt 0.000000 0.000000
vt 1.000000 0.000000
f 261/261 262/262 263/263 264/264
v -0.116000 0.410000 0.010500
v -0.123416 0.408825 0.010500
v -0.119708 0.397413 0.022500
v -0.116000 0.398000 0.022500
vt 0.000000 1.000000
vt 0.000000 0.906680
vt 1.000000 0.000000
vt 1.000000 0.046660
f 265/265 266/266 267/267 268/268
v -0.123416 0.408825 0.010500
v -0.130107 0.405416 0.010500
v -0.123053 0.395708 0.022500
v -0.119708 0.397413 0.022500
vt 0.000000 1.000000
vt 0.000000 0.740115
vt 1.000000 0.000000
vt 1.000000 0.129942
f 269/269 270/270 271/271 272/272
v -0.130107 0.405416 0.010500
v -0.135416 0.400107 0.010500
v -0.125708 0.393053 0.022500
v -0.123053 0.395708 0.022500
vt 0.429472 1.000000
vt 0.000000 0.570528
vt 0.785264 0.000000
vt 1.000000 0.214736
f 273/273 274/274 275/275 276/276
v -0.135416 0.400107 0.010500
v -0.138825 0.393416 0.010500
v -0.127413 0.389708 0.022500
v -0.125708 0.393053 0.022500
vt 0.259885 0.000000
vt 0.000000 0.000000
vt 0.870058 1.000000
vt 1.000000 1.000000
f 277/277 278/278 279/279 280/280
v -0.138825 0.393416 0.010500
v -0.140000 0.386000 0.010500
v -0.128000 0.386000 0.022500
v -0.127413 0.389708 0.022500
vt 0.093320 0.000000
vt 0.000000 0.000000
vt 0.953340 1.000000
vt 1.000000 1.000000
f 281/281 282/282 283/283 284/284
v -0.140000 0.386000 0.010500
v -0.140000 0.014000 0.010500
v -0.128000 0.014000 0.022500
v -0.128000 0.386000 0.022500
vt 0.000000 1.000000
vt 0.000000 0.000000
vt 1.000000 0.000000
vt 1.000000 1.000000
f 285/285 286/286 287/287 288/288
v -0.140000 0.014000 0.010500
v -0.138825 0.006584 0.010500
v -0.127413 0.010292 0.022500
v -0.128000 0.014000 0.022500
vt 0.000000 0.000000
vt 0.093320 0.000000
vt 1.000000 1.000000
vt 0.953340 1.000000
f 289/289 290/290 291/291 292/292
v -0.138825 0.006584 0.010500
v -0.135416 -0.000107 0.010500
v -0.125708 0.006947 0.022500
v -0.127413 0.010292 0.022500
vt 0.000000 0.000000
vt 0.259885 0.000000
vt 1.000000 1.000000
vt 0.870058 1.000000
f 293/293 294/294 295/295 296/296
v -0.135416 -0.000107 0.010500
v -0.130107 -0.005416 0.010500
v -0.123053 0.004292 0.022500
v -0.125708 0.006947 0.022500
vt 0.000000 0.429472
vt 0.429472 0.000000
vt 1.000000 0.785264
vt 0.785264 1.000000
f 297/297 298/298 299/299 300/300
v -0.130107 -0.005416 0.010500
v -0.123416 -0.008825 0.010500
v -0.119708 0.002587 0.022500
v -0.123053 0.004292 0.022500
vt 0.000000 0.259885
vt 0.000000 0.000000
vt 1.000000 0.870058
vt 1.000000 1.000000
f 301/301 302/302 303/303 304/304
v -0.123416 -0.008825 0.010500
v -0.116000 -0.010000 0.010500
v -0.116000 0.002000 0.022500
v -0.119708 0.002587 0.022500
vt 0.000000 0.093320
vt 0.000000 0.000000
vt 1.000000 0.953340
vt 1.000000 1.000000
f 305/305 306/306 307/307 308/308
v -0.116000 -0.010000 0.010500
v 0.116000 -0.010000 0.010500
v 0.116000 0.002000 0.022500
v -0.116000 0.002000 0.022500
vt 0.000000 0.000000
vt 1.000000 0.000000
vt 1.000000 1.000000
vt 0.000000 1.000000
f 309/309 310/310 311/311 312/312
v 0.116000 -0.010000 0.010500
v 0.123416 -0.008825 0.010500
v 0.119708 0.002587 0.022500
v 0.116000 0.002000 0.022500
vt 0.000000 0.000000
vt 0.000000 0.093320
vt 1.000000 1.000000
vt 1.000000 0.953340
f 313/313 314/314 315/315 316/316
v 0.123416 -0.008825 0.010500
v 0.130107 -0.005416 0.010500
v 0.123053 0.004292 0.022500
v 0.119708 0.002587 0.022500
vt 0.000000 0.000000
vt 0.000000 0.259885
vt 1.000000 1.000000
vt 1.000000 0.870058
f 317/317 318/318 319/319 320/320
v 0.130107 -0.005416 0.010500
v 0.135416 -0.000107 0.010500
v 0.125708 0.006947 0.022500
v 0.123053 0.004292 0.022500
vt 0.570528 0.000000
vt 1.000000 0.429472
vt 0.214736 1.000000
vt 0.000000 0.785264
f 321/321 322/322 323/323 324/324
v 0.135416 -0.000107 0.010500
v 0.138825 0.006584 0.010500
v 0.127413 0.010292 0.022500
v 0.125708 0.006947 0.022500
vt 0.740115 0.000000
vt 1.000000 0.000000
vt 0.129942 1.000000
vt 0.000000 1.000000
f 325/325 326/326 327/327 328/328
v 0.138825 0.006584 0.010500
v 0.140000 0.014000 0.010500
v 0.128000 0.014000 0.022500
v 0.127413 0.010292 0.022500
vt 0.906680 0.000000
vt 1.000000 0.000000
vt 0.046660 1.000000
vt 0.000000 1.000000
f 329/329 330/330 331/331 332/332
v 0.140000 0.014000 0.010500
v 0.140000 0.386000 0.010500
v 0.128000 0.386000 0.022500
v 0.128000 0.014000 0.022500
vt 1.000000 0.000000
vt 1.000000 1.000000
vt 0.000000 1.000000
vt 0.000000 0.000000
f 333/333 334/334 335/335 336/336
g runtime_calendar
usemtl paper
v 0.115000 0.033000 -0.014000
v 0.114853 0.032073 -0.014000
v 0.114427 0.031237 -0.014000
v 0.113763 0.030573 -0.014000
v 0.112927 0.030147 -0.014000
v 0.112000 0.030000 -0.014000
v -0.112000 0.030000 -0.014000
v -0.112927 0.030147 -0.014000
v -0.113763 0.030573 -0.014000
v -0.114427 0.031237 -0.014000
v -0.114853 0.032073 -0.014000
v -0.115000 0.033000 -0.014000
v -0.115000 0.367000 -0.014000
v -0.114853 0.367927 -0.014000
v -0.114427 0.368763 -0.014000
v -0.113763 0.369427 -0.014000
v -0.112927 0.369853 -0.014000
v -0.112000 0.370000 -0.014000
v 0.112000 0.370000 -0.014000
v 0.112927 0.369853 -0.014000
v 0.113763 0.369427 -0.014000
v 0.114427 0.368763 -0.014000
v 0.114853 0.367927 -0.014000
v 0.115000 0.367000 -0.014000
vt 1.000000 0.008824
vt 0.999362 0.006097
vt 0.997509 0.003637
vt 0.994623 0.001685
vt 0.990987 0.000432
vt 0.986957 0.000000
vt 0.013043 0.000000
vt 0.009013 0.000432
vt 0.005377 0.001685
vt 0.002491 0.003637
vt 0.000638 0.006097
vt 0.000000 0.008824
vt 0.000000 0.991176
vt 0.000638 0.993903
vt 0.002491 0.996363
vt 0.005377 0.998315
vt 0.009013 0.999568
vt 0.013043 1.000000
vt 0.986957 1.000000
vt 0.990987 0.999568
vt 0.994623 0.998315
vt 0.997509 0.996363
vt 0.999362 0.993903
vt 1.000000 0.991176
f 337/337 338/338 339/339 340/340 341/341 342/342 343/343 344/344 345/345 346/346 347/347 348/348 349/349 350/350 351/351 352/352 353/353 354/354 355/355 356/356 357/357 358/358 359/359 360/360
g binding
usemtl teal
v 0.126500 0.379500 -0.036500
v 0.126206 0.377646 -0.036500
v 0.125354 0.375973 -0.036500
v 0.124027 0.374646 -0.036500
v 0.122354 0.373794 -0.036500
v 0.120500 0.373500 -0.036500
v -0.120500 0.373500 -0.036500
v -0.122354 0.373794 -0.036500
v -0.124027 0.374646 -0.036500
v -0.125354 0.375973 -0.036500
v -0.126206 0.377646 -0.036500
v -0.126500 0.379500 -0.036500
v -0.126500 0.390500 -0.036500
v -0.126206 0.392354 -0.036500
v -0.125354 0.394027 -0.036500
v -0.124027 0.395354 -0.036500
v -0.122354 0.396206 -0.036500
v -0.120500 0.396500 -0.036500
v 0.120500 0.396500 -0.036500
v 0.122354 0.396206 -0.036500
v 0.124027 0.395354 -0.036500
v 0.125354 0.394027 -0.036500
v 0.126206 0.392354 -0.036500
v 0.126500 0.390500 -0.036500
vt 1.000000 0.260870
vt 0.998839 0.180256
vt 0.995471 0.107534
vt 0.990224 0.049822
vt 0.983613 0.012768
vt 0.976285 0.000000
vt 0.023715 0.000000
vt 0.016387 0.012768
vt 0.009776 0.049822
vt 0.004529 0.107534
vt 0.001161 0.180256
vt 0.000000 0.260870
vt 0.000000 0.739130
vt 0.001161 0.819744
vt 0.004529 0.892466
vt 0.009776 0.950178
vt 0.016387 0.987232
vt 0.023715 1.000000
vt 0.976285 1.000000
vt 0.983613 0.987232
vt 0.990224 0.950178
vt 0.995471 0.892466
vt 0.998839 0.819744
vt 1.000000 0.739130
f 361/361 362/362 363/363 364/364 365/365 366/366 367/367 368/368 369/369 370/370 371/371 372/372 373/373 374/374 375/375 376/376 377/377 378/378 379/379 380/380 381/381 382/382 383/383 384/384
v 0.126500 0.390500 -0.013500
v 0.126206 0.392354 -0.013500
v 0.125354 0.394027 -0.013500
v 0.124027 0.395354 -0.013500
v 0.122354 0.396206 -0.013500
v 0.120500 0.396500 -0.013500
v -0.120500 0.396500 -0.013500
v -0.122354 0.396206 -0.013500
v -0.124027 0.395354 -0.013500
v -0.125354 0.394027 -0.013500
v -0.126206 0.392354 -0.013500
v -0.126500 0.390500 -0.013500
v -0.126500 0.379500 -0.013500
v -0.126206 0.377646 -0.013500
v -0.125354 0.375973 -0.013500
v -0.124027 0.374646 -0.013500
v -0.122354 0.373794 -0.013500
v -0.120500 0.373500 -0.013500
v 0.120500 0.373500 -0.013500
v 0.122354 0.373794 -0.013500
v 0.124027 0.374646 -0.013500
v 0.125354 0.375973 -0.013500
v 0.126206 0.377646 -0.013500
v 0.126500 0.379500 -0.013500
vt 1.000000 0.739130
vt 0.998839 0.819744
vt 0.995471 0.892466
vt 0.990224 0.950178
vt 0.983613 0.987232
vt 0.976285 1.000000
vt 0.023715 1.000000
vt 0.016387 0.987232
vt 0.009776 0.950178
vt 0.004529 0.892466
vt 0.001161 0.819744
vt 0.000000 0.739130
vt 0.000000 0.260870
vt 0.001161 0.180256
vt 0.004529 0.107534
vt 0.009776 0.049822
vt 0.016387 0.012768
vt 0.023715 0.000000
vt 0.976285 0.000000
vt 0.983613 0.012768
vt 0.990224 0.049822
vt 0.995471 0.107534
vt 0.998839 0.180256
vt 1.000000 0.260870
f 385/385 386/386 387/387 388/388 389/389 390/390 391/391 392/392 393/393 394/394 395/395 396/396 397/397 398/398 399/399 400/400 401/401 402/402 403/403 404/404 405/405 406/406 407/407 408/408
v 0.126500 0.390500 -0.036500
v 0.126206 0.392354 -0.036500
v 0.131913 0.394208 -0.030500
v 0.132500 0.390500 -0.030500
vt 0.046660 0.000000
vt 0.000000 0.000000
vt 0.906680 1.000000
vt 1.000000 1.000000
f 409/409 410/410 411/411 412/412
v 0.126206 0.392354 -0.036500
v 0.125354 0.394027 -0.036500
v 0.130208 0.397553 -0.030500
v 0.131913 0.394208 -0.030500
vt 0.129942 0.000000
vt 0.000000 0.000000
vt 0.740115 1.000000
vt 1.000000 1.000000
f 413/413 414/414 415/415 416/416
v 0.125354 0.394027 -0.036500
v 0.124027 0.395354 -0.036500
v 0.127553 0.400208 -0.030500
v 0.130208 0.397553 -0.030500
vt 0.214736 0.000000
vt 0.000000 0.214736
vt 0.570528 1.000000
vt 1.000000 0.570528
f 417/417 418/418 419/419 420/420
v 0.124027 0.395354 -0.036500
v 0.122354 0.396206 -0.036500
v 0.124208 0.401913 -0.030500
v 0.127553 0.400208 -0.030500
vt 0.000000 0.000000
vt 0.000000 0.129942
vt 1.000000 1.000000
vt 1.000000 0.740115
f 421/421 422/422 423/423 424/424
v 0.122354 0.396206 -0.036500
v 0.120500 0.396500 -0.036500
v 0.120500 0.402500 -0.030500
v 0.124208 0.401913 -0.030500
vt 0.000000 0.000000
vt 0.000000 0.046660
vt 1.000000 1.000000
vt 1.000000 0.906680
f 425/425 426/426 427/427 428/428
v 0.120500 0.396500 -0.036500
v -0.120500 0.396500 -0.036500
v -0.120500 0.402500 -0.030500
v 0.120500 0.402500 -0.030500
vt 1.000000 0.000000
vt 0.000000 0.000000
vt 0.000000 1.000000
vt 1.000000 1.000000
f 429/429 430/430 431/431 432/432
v -0.120500 0.396500 -0.036500
v -0.122354 0.396206 -0.036500
v -0.124208 0.401913 -0.030500
v -0.120500 0.402500 -0.030500
vt 0.000000 0.046660
vt 0.000000 0.000000
vt 1.000000 0.906680
vt 1.000000 1.000000
f 433/433 434/434 435/435 436/436
v -0.122354 0.396206 -0.036500
v -0.124027 0.395354 -0.036500
v -0.127553 0.400208 -0.030500
v -0.124208 0.401913 -0.030500
vt 0.000000 0.129942
vt 0.000000 0.000000
vt 1.000000 0.740115
vt 1.000000 1.000000
f 437/437 438/438 439/439 440/440
v -0.124027 0.395354 -0.036500
v -0.125354 0.394027 -0.036500
v -0.130208 0.397553 -0.030500
v -0.127553 0.400208 -0.030500
vt 1.000000 0.214736
vt 0.785264 0.000000
vt 0.000000 0.570528
vt 0.429472 1.000000
f 441/441 442/442 443/443 444/444
v -0.125354 0.394027 -0.036500
v -0.126206 0.392354 -0.036500
v -0.131913 0.394208 -0.030500
v -0.130208 0.397553 -0.030500
vt 1.000000 0.000000
vt 0.870058 0.000000
vt 0.000000 1.000000
vt 0.259885 1.000000
f 445/445 446/446 447/447 448/448
v -0.126206 0.392354 -0.036500
v -0.126500 0.390500 -0.036500
v -0.132500 0.390500 -0.030500
v -0.131913 0.394208 -0.030500
vt 1.000000 0.000000
vt 0.953340 0.000000
vt 0.000000 1.000000
vt 0.093320 1.000000
f 449/449 450/450 451/451 452/452
v -0.126500 0.390500 -0.036500
v -0.126500 0.379500 -0.036500
v -0.132500 0.379500 -0.030500
v -0.132500 0.390500 -0.030500
vt 1.000000 1.000000
vt 1.000000 0.000000
vt 0.000000 0.000000
vt 0.000000 1.000000
f 453/453 454/454 455/455 456/456
v -0.126500 0.379500 -0.036500
v -0.126206 0.377646 -0.036500
v -0.131913 0.375792 -0.030500
v -0.132500 0.379500 -0.030500
vt 0.953340 0.000000
vt 1.000000 0.000000
vt 0.093320 1.000000
vt 0.000000 1.000000
f 457/457 458/458 459/459 460/460
v -0.126206 0.377646 -0.036500
v -0.125354 0.375973 -0.036500
v -0.130208 0.372447 -0.030500
v -0.131913 0.375792 -0.030500
vt 0.870058 0.000000
vt 1.000000 0.000000
vt 0.259885 1.000000
vt 0.000000 1.000000
f 461/461 462/462 463/463 464/464
v -0.125354 0.375973 -0.036500
v -0.124027 0.374646 -0.036500
v -0.127553 0.369792 -0.030500
v -0.130208 0.372447 -0.030500
vt 0.785264 1.000000
vt 1.000000 0.785264
vt 0.429472 0.000000
vt 0.000000 0.429472
f 465/465 466/466 467/467 468/468
v -0.124027 0.374646 -0.036500
v -0.122354 0.373794 -0.036500
v -0.124208 0.368087 -0.030500
v -0.127553 0.369792 -0.030500
vt 0.000000 1.000000
vt 0.000000 0.870058
vt 1.000000 0.000000
vt 1.000000 0.259885
f 469/469 470/470 471/471 472/472
v -0.122354 0.373794 -0.036500
v -0.120500 0.373500 -0.036500
v -0.120500 0.367500 -0.030500
v -0.124208 0.368087 -0.030500
vt 0.000000 1.000000
vt 0.000000 0.953340
vt 1.000000 0.000000
vt 1.000000 0.093320
f 473/473 474/474 475/475 476/476
v -0.120500 0.373500 -0.036500
v 0.120500 0.373500 -0.036500
v 0.120500 0.367500 -0.030500
v -0.120500 0.367500 -0.030500
vt 0.000000 1.000000
vt 1.000000 1.000000
vt 1.000000 0.000000
vt 0.000000 0.000000
f 477/477 478/478 479/479 480/480
v 0.120500 0.373500 -0.036500
v 0.122354 0.373794 -0.036500
v 0.124208 0.368087 -0.030500
v 0.120500 0.367500 -0.030500
vt 0.000000 0.953340
vt 0.000000 1.000000
vt 1.000000 0.093320
vt 1.000000 0.000000
f 481/481 482/482 483/483 484/484
v 0.122354 0.373794 -0.036500
v 0.124027 0.374646 -0.036500
v 0.127553 0.369792 -0.030500
v 0.124208 0.368087 -0.030500
vt 0.000000 0.870058
vt 0.000000 1.000000
vt 1.000000 0.259885
vt 1.000000 0.000000
f 485/485 486/486 487/487 488/488
v 0.124027 0.374646 -0.036500
v 0.125354 0.375973 -0.036500
v 0.130208 0.372447 -0.030500
v 0.127553 0.369792 -0.030500
vt 0.000000 0.785264
vt 0.214736 1.000000
vt 1.000000 0.429472
vt 0.570528 0.000000
f 489/489 490/490 491/491 492/492
v 0.125354 0.375973 -0.036500
v 0.126206 0.377646 -0.036500
v 0.131913 0.375792 -0.030500
v 0.130208 0.372447 -0.030500
vt 0.000000 0.000000
vt 0.129942 0.000000
vt 1.000000 1.000000
vt 0.740115 1.000000
f 493/493 494/494 495/495 496/496
v 0.126206 0.377646 -0.036500
v 0.126500 0.379500 -0.036500
v 0.132500 0.379500 -0.030500
v 0.131913 0.375792 -0.030500
vt 0.000000 0.000000
vt 0.046660 0.000000
vt 1.000000 1.000000
vt 0.906680 1.000000
f 497/497 498/498 499/499 500/500
v 0.126500 0.379500 -0.036500
v 0.126500 0.390500 -0.036500
v 0.132500 0.390500 -0.030500
v 0.132500 0.379500 -0.030500
vt 0.000000 0.000000
vt 0.000000 1.000000
vt 1.000000 1.000000
vt 1.000000 0.000000
f 501/501 502/502 503/503 504/504
v 0.132500 0.390500 -0.030500
v 0.131913 0.394208 -0.030500
v 0.131913 0.394208 -0.019500
v 0.132500 0.390500 -0.019500
vt 0.000000 0.000000
vt 0.000000 1.000000
vt 1.000000 1.000000
vt 1.000000 0.000000
f 505/505 506/506 507/507 508/508
v 0.131913 0.394208 -0.030500
v 0.130208 0.397553 -0.030500
v 0.130208 0.397553 -0.019500
v 0.131913 0.394208 -0.019500
vt 0.000000 0.000000
vt 0.000000 1.000000
vt 1.000000 1.000000
vt 1.000000 0.000000
f 509/509 510/510 511/511 512/512
v 0.130208 0.397553 -0.030500
v 0.127553 0.400208 -0.030500
v 0.127553 0.400208 -0.019500
v 0.130208 0.397553 -0.019500
vt 0.000000 0.000000
vt 0.000000 1.000000
vt 1.000000 1.000000
vt 1.000000 0.000000
f 513/513 514/514 515/515 516/516
v 0.127553 0.400208 -0.030500
v 0.124208 0.401913 -0.030500
v 0.124208 0.401913 -0.019500
v 0.127553 0.400208 -0.019500
vt 1.000000 0.000000
vt 0.000000 0.000000
vt 0.000000 1.000000
vt 1.000000 1.000000
f 517/517 518/518 519/519 520/520
v 0.124208 0.401913 -0.030500
v 0.120500 0.402500 -0.030500
v 0.120500 0.402500 -0.019500
v 0.124208 0.401913 -0.019500
vt 1.000000 0.000000
vt 0.000000 0.000000
vt 0.000000 1.000000
vt 1.000000 1.000000
f 521/521 522/522 523/523 524/524
v 0.120500 0.402500 -0.030500
v -0.120500 0.402500 -0.030500
v -0.120500 0.402500 -0.019500
v 0.120500 0.402500 -0.019500
vt 1.000000 0.000000
vt 0.000000 0.000000
vt 0.000000 1.000000
vt 1.000000 1.000000
f 525/525 526/526 527/527 528/528
v -0.120500 0.402500 -0.030500
v -0.124208 0.401913 -0.030500
v -0.124208 0.401913 -0.019500
v -0.120500 0.402500 -0.019500
vt 1.000000 0.000000
vt 0.000000 0.000000
vt 0.000000 1.000000
vt 1.000000 1.000000
f 529/529 530/530 531/531 532/532
v -0.124208 0.401913 -0.030500
v -0.127553 0.400208 -0.030500
v -0.127553 0.400208 -0.019500
v -0.124208 0.401913 -0.019500
vt 1.000000 0.000000
vt 0.000000 0.000000
vt 0.000000 1.000000
vt 1.000000 1.000000
f 533/533 534/534 535/535 536/536
v -0.127553 0.400208 -0.030500
v -0.130208 0.397553 -0.030500
v -0.130208 0.397553 -0.019500
v -0.127553 0.400208 -0.019500
vt 0.000000 1.000000
vt 0.000000 0.000000
vt 1.000000 0.000000
vt 1.000000 1.000000
f 537/537 538/538 539/539 540/540
v -0.130208 0.397553 -0.030500
v -0.131913 0.394208 -0.030500
v -0.131913 0.394208 -0.019500
v -0.130208 0.397553 -0.019500
vt 0.000000 1.000000
vt 0.000000 0.000000
vt 1.000000 0.000000
vt 1.000000 1.000000
f 541/541 542/542 543/543 544/544
v -0.131913 0.394208 -0.030500
v -0.132500 0.390500 -0.030500
v -0.132500 0.390500 -0.019500
v -0.131913 0.394208 -0.019500
vt 0.000000 1.000000
vt 0.000000 0.000000
vt 1.000000 0.000000
vt 1.000000 1.000000
f 545/545 546/546 547/547 548/548
v -0.132500 0.390500 -0.030500
v -0.132500 0.379500 -0.030500
v -0.132500 0.379500 -0.019500
v -0.132500 0.390500 -0.019500
vt 0.000000 1.000000
vt 0.000000 0.000000
vt 1.000000 0.000000
vt 1.000000 1.000000
f 549/549 550/550 551/551 552/552
v -0.132500 0.379500 -0.030500
v -0.131913 0.375792 -0.030500
v -0.131913 0.375792 -0.019500
v -0.132500 0.379500 -0.019500
vt 0.000000 1.000000
vt 0.000000 0.000000
vt 1.000000 0.000000
vt 1.000000 1.000000
f 553/553 554/554 555/555 556/556
v -0.131913 0.375792 -0.030500
v -0.130208 0.372447 -0.030500
v -0.130208 0.372447 -0.019500
v -0.131913 0.375792 -0.019500
vt 0.000000 1.000000
vt 0.000000 0.000000
vt 1.000000 0.000000
vt 1.000000 1.000000
f 557/557 558/558 559/559 560/560
v -0.130208 0.372447 -0.030500
v -0.127553 0.369792 -0.030500
v -0.127553 0.369792 -0.019500
v -0.130208 0.372447 -0.019500
vt 0.000000 1.000000
vt 0.000000 0.000000
vt 1.000000 0.000000
vt 1.000000 1.000000
f 561/561 562/562 563/563 564/564
v -0.127553 0.369792 -0.030500
v -0.124208 0.368087 -0.030500
v -0.124208 0.368087 -0.019500
v -0.127553 0.369792 -0.019500
vt 0.000000 0.000000
vt 1.000000 0.000000
vt 1.000000 1.000000
vt 0.000000 1.000000
f 565/565 566/566 567/567 568/568
v -0.124208 0.368087 -0.030500
v -0.120500 0.367500 -0.030500
v -0.120500 0.367500 -0.019500
v -0.124208 0.368087 -0.019500
vt 0.000000 0.000000
vt 1.000000 0.000000
vt 1.000000 1.000000
vt 0.000000 1.000000
f 569/569 570/570 571/571 572/572
v -0.120500 0.367500 -0.030500
v 0.120500 0.367500 -0.030500
v 0.120500 0.367500 -0.019500
v -0.120500 0.367500 -0.019500
vt 0.000000 0.000000
vt 1.000000 0.000000
vt 1.000000 1.000000
vt 0.000000 1.000000
f 573/573 574/574 575/575 576/576
v 0.120500 0.367500 -0.030500
v 0.124208 0.368087 -0.030500
v 0.124208 0.368087 -0.019500
v 0.120500 0.367500 -0.019500
vt 0.000000 0.000000
vt 1.000000 0.000000
vt 1.000000 1.000000
vt 0.000000 1.000000
f 577/577 578/578 579/579 580/580
v 0.124208 0.368087 -0.030500
v 0.127553 0.369792 -0.030500
v 0.127553 0.369792 -0.019500
v 0.124208 0.368087 -0.019500
vt 0.000000 0.000000
vt 1.000000 0.000000
vt 1.000000 1.000000
vt 0.000000 1.000000
f 581/581 582/582 583/583 584/584
v 0.127553 0.369792 -0.030500
v 0.130208 0.372447 -0.030500
v 0.130208 0.372447 -0.019500
v 0.127553 0.369792 -0.019500
vt 0.000000 0.000000
vt 0.000000 1.000000
vt 1.000000 1.000000
vt 1.000000 0.000000
f 585/585 586/586 587/587 588/588
v 0.130208 0.372447 -0.030500
v 0.131913 0.375792 -0.030500
v 0.131913 0.375792 -0.019500
v 0.130208 0.372447 -0.019500
vt 0.000000 0.000000
vt 0.000000 1.000000
vt 1.000000 1.000000
vt 1.000000 0.000000
f 589/589 590/590 591/591 592/592
v 0.131913 0.375792 -0.030500
v 0.132500 0.379500 -0.030500
v 0.132500 0.379500 -0.019500
v 0.131913 0.375792 -0.019500
vt 0.000000 0.000000
vt 0.000000 1.000000
vt 1.000000 1.000000
vt 1.000000 0.000000
f 593/593 594/594 595/595 596/596
v 0.132500 0.379500 -0.030500
v 0.132500 0.390500 -0.030500
v 0.132500 0.390500 -0.019500
v 0.132500 0.379500 -0.019500
vt 0.000000 0.000000
vt 0.000000 1.000000
vt 1.000000 1.000000
vt 1.000000 0.000000
f 597/597 598/598 599/599 600/600
v 0.132500 0.390500 -0.019500
v 0.131913 0.394208 -0.019500
v 0.126206 0.392354 -0.013500
v 0.126500 0.390500 -0.013500
vt 1.000000 0.000000
vt 0.906680 0.000000
vt 0.000000 1.000000
vt 0.046660 1.000000
f 601/601 602/602 603/603 604/604
v 0.131913 0.394208 -0.019500
v 0.130208 0.397553 -0.019500
v 0.125354 0.394027 -0.013500
v 0.126206 0.392354 -0.013500
vt 1.000000 0.000000
vt 0.740115 0.000000
vt 0.000000 1.000000
vt 0.129942 1.000000
f 605/605 606/606 607/607 608/608
v 0.130208 0.397553 -0.019500
v 0.127553 0.400208 -0.019500
v 0.124027 0.395354 -0.013500
v 0.125354 0.394027 -0.013500
vt 1.000000 0.570528
vt 0.570528 1.000000
vt 0.000000 0.214736
vt 0.214736 0.000000
f 609/609 610/610 611/611 612/612
v 0.127553 0.400208 -0.019500
v 0.124208 0.401913 -0.019500
v 0.122354 0.396206 -0.013500
v 0.124027 0.395354 -0.013500
vt 0.000000 0.740115
vt 0.000000 1.000000
vt 1.000000 0.129942
vt 1.000000 0.000000
f 613/613 614/614 615/615 616/616
v 0.124208 0.401913 -0.019500
v 0.120500 0.402500 -0.019500
v 0.120500 0.396500 -0.013500
v 0.122354 0.396206 -0.013500
vt 0.000000 0.906680
vt 0.000000 1.000000
vt 1.000000 0.046660
vt 1.000000 0.000000
f 617/617 618/618 619/619 620/620
v 0.120500 0.402500 -0.019500
v -0.120500 0.402500 -0.019500
v -0.120500 0.396500 -0.013500
v 0.120500 0.396500 -0.013500
vt 1.000000 1.000000
vt 0.000000 1.000000
vt 0.000000 0.000000
vt 1.000000 0.000000
f 621/621 622/622 623/623 624/624
v -0.120500 0.402500 -0.019500
v -0.124208 0.401913 -0.019500
v -0.122354 0.396206 -0.013500
v -0.120500 0.396500 -0.013500
vt 0.000000 1.000000
vt 0.000000 0.906680
vt 1.000000 0.000000
vt 1.000000 0.046660
f 625/625 626/626 627/627 628/628
v -0.124208 0.401913 -0.019500
v -0.127553 0.400208 -0.019500
v -0.124027 0.395354 -0.013500
v -0.122354 0.396206 -0.013500
vt 0.000000 1.000000
vt 0.000000 0.740115
vt 1.000000 0.000000
vt 1.000000 0.129942
f 629/629 630/630 631/631 632/632
v -0.127553 0.400208 -0.019500
v -0.130208 0.397553 -0.019500
v -0.125354 0.394027 -0.013500
v -0.124027 0.395354 -0.013500
vt 0.429472 1.000000
vt 0.000000 0.570528
vt 0.785264 0.000000
vt 1.000000 0.214736
f 633/633 634/634 635/635 636/636
v -0.130208 0.397553 -0.019500
v -0.131913 0.394208 -0.019500
v -0.126206 0.392354 -0.013500
v -0.125354 0.394027 -0.013500
vt 0.259885 0.000000
vt 0.000000 0.000000
vt 0.870058 1.000000
vt 1.000000 1.000000
f 637/637 638/638 639/639 640/640
v -0.131913 0.394208 -0.019500
v -0.132500 0.390500 -0.019500
v -0.126500 0.390500 -0.013500
v -0.126206 0.392354 -0.013500
vt 0.093320 0.000000
vt 0.000000 0.000000
vt 0.953340 1.000000
vt 1.000000 1.000000
f 641/641 642/642 643/643 644/644
v -0.132500 0.390500 -0.019500
v -0.132500 0.379500 -0.019500
v -0.126500 0.379500 -0.013500
v -0.126500 0.390500 -0.013500
vt 0.000000 1.000000
vt 0.000000 0.000000
vt 1.000000 0.000000
vt 1.000000 1.000000
f 645/645 646/646 647/647 648/648
v -0.132500 0.379500 -0.019500
v -0.131913 0.375792 -0.019500
v -0.126206 0.377646 -0.013500
v -0.126500 0.379500 -0.013500
vt 0.000000 0.000000
vt 0.093320 0.000000
vt 1.000000 1.000000
vt 0.953340 1.000000
f 649/649 650/650 651/651 652/652
v -0.131913 0.375792 -0.019500
v -0.130208 0.372447 -0.019500
v -0.125354 0.375973 -0.013500
v -0.126206 0.377646 -0.013500
vt 0.000000 0.000000
vt 0.259885 0.000000
vt 1.000000 1.000000
vt 0.870058 1.000000
f 653/653 654/654 655/655 656/656
v -0.130208 0.372447 -0.019500
v -0.127553 0.369792 -0.019500
v -0.124027 0.374646 -0.013500
v -0.125354 0.375973 -0.013500
vt 0.000000 0.429472
vt 0.429472 0.000000
vt 1.000000 0.785264
vt 0.785264 1.000000
f 657/657 658/658 659/659 660/660
v -0.127553 0.369792 -0.019500
v -0.124208 0.368087 -0.019500
v -0.122354 0.373794 -0.013500
v -0.124027 0.374646 -0.013500
vt 0.000000 0.259885
vt 0.000000 0.000000
vt 1.000000 0.870058
vt 1.000000 1.000000
f 661/661 662/662 663/663 664/664
v -0.124208 0.368087 -0.019500
v -0.120500 0.367500 -0.019500
v -0.120500 0.373500 -0.013500
v -0.122354 0.373794 -0.013500
vt 0.000000 0.093320
vt 0.000000 0.000000
vt 1.000000 0.953340
vt 1.000000 1.000000
f 665/665 666/666 667/667 668/668
v -0.120500 0.367500 -0.019500
v 0.120500 0.367500 -0.019500
v 0.120500 0.373500 -0.013500
v -0.120500 0.373500 -0.013500
vt 0.000000 0.000000
vt 1.000000 0.000000
vt 1.000000 1.000000
vt 0.000000 1.000000
f 669/669 670/670 671/671 672/672
v 0.120500 0.367500 -0.019500
v 0.124208 0.368087 -0.019500
v 0.122354 0.373794 -0.013500
v 0.120500 0.373500 -0.013500
vt 0.000000 0.000000
vt 0.000000 0.093320
vt 1.000000 1.000000
vt 1.000000 0.953340
f 673/673 674/674 675/675 676/676
v 0.124208 0.368087 -0.019500
v 0.127553 0.369792 -0.019500
v 0.124027 0.374646 -0.013500
v 0.122354 0.373794 -0.013500
vt 0.000000 0.000000
vt 0.000000 0.259885
vt 1.000000 1.000000
vt 1.000000 0.870058
f 677/677 678/678 679/679 680/680
v 0.127553 0.369792 -0.019500
v 0.130208 0.372447 -0.019500
v 0.125354 0.375973 -0.013500
v 0.124027 0.374646 -0.013500
vt 0.570528 0.000000
vt 1.000000 0.429472
vt 0.214736 1.000000
vt 0.000000 0.785264
f 681/681 682/682 683/683 684/684
v 0.130208 0.372447 -0.019500
v 0.131913 0.375792 -0.019500
v 0.126206 0.377646 -0.013500
v 0.125354 0.375973 -0.013500
vt 0.740115 0.000000
vt 1.000000 0.000000
vt 0.129942 1.000000
vt 0.000000 1.000000
f 685/685 686/686 687/687 688/688
v 0.131913 0.375792 -0.019500
v 0.132500 0.379500 -0.019500
v 0.126500 0.379500 -0.013500
v 0.126206 0.377646 -0.013500
vt 0.906680 0.000000
vt 1.000000 0.000000
vt 0.046660 1.000000
vt 0.000000 1.000000
f 689/689 690/690 691/691 692/692
v 0.132500 0.379500 -0.019500
v 0.132500 0.390500 -0.019500
v 0.126500 0.390500 -0.013500
v 0.126500 0.379500 -0.013500
vt 1.000000 0.000000
vt 1.000000 1.000000
vt 0.000000 1.000000
vt 0.000000 0.000000
f 693/693 694/694 695/695 696/696
g calendar_pins
usemtl brass
v -0.077206 0.385500 -0.047500
v -0.080500 0.382206 -0.047500
v -0.085000 0.381000 -0.047500
v -0.089500 0.382206 -0.047500
v -0.092794 0.385500 -0.047500
v -0.094000 0.390000 -0.047500
v -0.092794 0.394500 -0.047500
v -0.089500 0.397794 -0.047500
v -0.085000 0.399000 -0.047500
v -0.080500 0.397794 -0.047500
v -0.077206 0.394500 -0.047500
v -0.076000 0.390000 -0.047500
vt 0.933013 0.250000
vt 0.750000 0.066987
vt 0.500000 0.000000
vt 0.250000 0.066987
vt 0.066987 0.250000
vt 0.000000 0.500000
vt 0.066987 0.750000
vt 0.250000 0.933013
vt 0.500000 1.000000
vt 0.750000 0.933013
vt 0.933013 0.750000
vt 1.000000 0.500000
f 697/697 698/698 699/699 700/700 701/701 702/702 703/703 704/704 705/705 706/706 707/707 708/708
v -0.076000 0.390000 -0.034500
v -0.077206 0.394500 -0.034500
v -0.080500 0.397794 -0.034500
v -0.085000 0.399000 -0.034500
v -0.089500 0.397794 -0.034500
v -0.092794 0.394500 -0.034500
v -0.094000 0.390000 -0.034500
v -0.092794 0.385500 -0.034500
v -0.089500 0.382206 -0.034500
v -0.085000 0.381000 -0.034500
v -0.080500 0.382206 -0.034500
v -0.077206 0.385500 -0.034500
vt 1.000000 0.500000
vt 0.933013 0.750000
vt 0.750000 0.933013
vt 0.500000 1.000000
vt 0.250000 0.933013
vt 0.066987 0.750000
vt 0.000000 0.500000
vt 0.066987 0.250000
vt 0.250000 0.066987
vt 0.500000 0.000000
vt 0.750000 0.066987
vt 0.933013 0.250000
f 709/709 710/710 711/711 712/712 713/713 714/714 715/715 716/716 717/717 718/718 719/719 720/720
v -0.076000 0.390000 -0.047500
v -0.077206 0.394500 -0.047500
v -0.077206 0.394500 -0.034500
v -0.076000 0.390000 -0.034500
vt 0.000000 0.000000
vt 0.000000 1.000000
vt 1.000000 1.000000
vt 1.000000 0.000000
f 721/721 722/722 723/723 724/724
v -0.077206 0.394500 -0.047500
v -0.080500 0.397794 -0.047500
v -0.080500 0.397794 -0.034500
v -0.077206 0.394500 -0.034500
vt 1.000000 0.000000
vt 0.000000 0.000000
vt 0.000000 1.000000
vt 1.000000 1.000000
f 725/725 726/726 727/727 728/728
v -0.080500 0.397794 -0.047500
v -0.085000 0.399000 -0.047500
v -0.085000 0.399000 -0.034500
v -0.080500 0.397794 -0.034500
vt 1.000000 0.000000
vt 0.000000 0.000000
vt 0.000000 1.000000
vt 1.000000 1.000000
f 729/729 730/730 731/731 732/732
v -0.085000 0.399000 -0.047500
v -0.089500 0.397794 -0.047500
v -0.089500 0.397794 -0.034500
v -0.085000 0.399000 -0.034500
vt 1.000000 0.000000
vt 0.000000 0.000000
vt 0.000000 1.000000
vt 1.000000 1.000000
f 733/733 734/734 735/735 736/736
v -0.089500 0.397794 -0.047500
v -0.092794 0.394500 -0.047500
v -0.092794 0.394500 -0.034500
v -0.089500 0.397794 -0.034500
vt 1.000000 0.000000
vt 0.000000 0.000000
vt 0.000000 1.000000
vt 1.000000 1.000000
f 737/737 738/738 739/739 740/740
v -0.092794 0.394500 -0.047500
v -0.094000 0.390000 -0.047500
v -0.094000 0.390000 -0.034500
v -0.092794 0.394500 -0.034500
vt 0.000000 1.000000
vt 0.000000 0.000000
vt 1.000000 0.000000
vt 1.000000 1.000000
f 741/741 742/742 743/743 744/744
v -0.094000 0.390000 -0.047500
v -0.092794 0.385500 -0.047500
v -0.092794 0.385500 -0.034500
v -0.094000 0.390000 -0.034500
vt 0.000000 1.000000
vt 0.000000 0.000000
vt 1.000000 0.000000
vt 1.000000 1.000000
f 745/745 746/746 747/747 748/748
v -0.092794 0.385500 -0.047500
v -0.089500 0.382206 -0.047500
v -0.089500 0.382206 -0.034500
v -0.092794 0.385500 -0.034500
vt 0.000000 0.000000
vt 1.000000 0.000000
vt 1.000000 1.000000
vt 0.000000 1.000000
f 749/749 750/750 751/751 752/752
v -0.089500 0.382206 -0.047500
v -0.085000 0.381000 -0.047500
v -0.085000 0.381000 -0.034500
v -0.089500 0.382206 -0.034500
vt 0.000000 0.000000
vt 1.000000 0.000000
vt 1.000000 1.000000
vt 0.000000 1.000000
f 753/753 754/754 755/755 756/756
v -0.085000 0.381000 -0.047500
v -0.080500 0.382206 -0.047500
v -0.080500 0.382206 -0.034500
v -0.085000 0.381000 -0.034500
vt 0.000000 0.000000
vt 1.000000 0.000000
vt 1.000000 1.000000
vt 0.000000 1.000000
f 757/757 758/758 759/759 760/760
v -0.080500 0.382206 -0.047500
v -0.077206 0.385500 -0.047500
v -0.077206 0.385500 -0.034500
v -0.080500 0.382206 -0.034500
vt 0.000000 0.000000
vt 1.000000 0.000000
vt 1.000000 1.000000
vt 0.000000 1.000000
f 761/761 762/762 763/763 764/764
v -0.077206 0.385500 -0.047500
v -0.076000 0.390000 -0.047500
v -0.076000 0.390000 -0.034500
v -0.077206 0.385500 -0.034500
vt 0.000000 0.000000
vt 0.000000 1.000000
vt 1.000000 1.000000
vt 1.000000 0.000000
f 765/765 766/766 767/767 768/768
v 0.092794 0.385500 -0.047500
v 0.089500 0.382206 -0.047500
v 0.085000 0.381000 -0.047500
v 0.080500 0.382206 -0.047500
v 0.077206 0.385500 -0.047500
v 0.076000 0.390000 -0.047500
v 0.077206 0.394500 -0.047500
v 0.080500 0.397794 -0.047500
v 0.085000 0.399000 -0.047500
v 0.089500 0.397794 -0.047500
v 0.092794 0.394500 -0.047500
v 0.094000 0.390000 -0.047500
vt 0.933013 0.250000
vt 0.750000 0.066987
vt 0.500000 0.000000
vt 0.250000 0.066987
vt 0.066987 0.250000
vt 0.000000 0.500000
vt 0.066987 0.750000
vt 0.250000 0.933013
vt 0.500000 1.000000
vt 0.750000 0.933013
vt 0.933013 0.750000
vt 1.000000 0.500000
f 769/769 770/770 771/771 772/772 773/773 774/774 775/775 776/776 777/777 778/778 779/779 780/780
v 0.094000 0.390000 -0.034500
v 0.092794 0.394500 -0.034500
v 0.089500 0.397794 -0.034500
v 0.085000 0.399000 -0.034500
v 0.080500 0.397794 -0.034500
v 0.077206 0.394500 -0.034500
v 0.076000 0.390000 -0.034500
v 0.077206 0.385500 -0.034500
v 0.080500 0.382206 -0.034500
v 0.085000 0.381000 -0.034500
v 0.089500 0.382206 -0.034500
v 0.092794 0.385500 -0.034500
vt 1.000000 0.500000
vt 0.933013 0.750000
vt 0.750000 0.933013
vt 0.500000 1.000000
vt 0.250000 0.933013
vt 0.066987 0.750000
vt 0.000000 0.500000
vt 0.066987 0.250000
vt 0.250000 0.066987
vt 0.500000 0.000000
vt 0.750000 0.066987
vt 0.933013 0.250000
f 781/781 782/782 783/783 784/784 785/785 786/786 787/787 788/788 789/789 790/790 791/791 792/792
v 0.094000 0.390000 -0.047500
v 0.092794 0.394500 -0.047500
v 0.092794 0.394500 -0.034500
v 0.094000 0.390000 -0.034500
vt 0.000000 0.000000
vt 0.000000 1.000000
vt 1.000000 1.000000
vt 1.000000 0.000000
f 793/793 794/794 795/795 796/796
v 0.092794 0.394500 -0.047500
v 0.089500 0.397794 -0.047500
v 0.089500 0.397794 -0.034500
v 0.092794 0.394500 -0.034500
vt 1.000000 0.000000
vt 0.000000 0.000000
vt 0.000000 1.000000
vt 1.000000 1.000000
f 797/797 798/798 799/799 800/800
v 0.089500 0.397794 -0.047500
v 0.085000 0.399000 -0.047500
v 0.085000 0.399000 -0.034500
v 0.089500 0.397794 -0.034500
vt 1.000000 0.000000
vt 0.000000 0.000000
vt 0.000000 1.000000
vt 1.000000 1.000000
f 801/801 802/802 803/803 804/804
v 0.085000 0.399000 -0.047500
v 0.080500 0.397794 -0.047500
v 0.080500 0.397794 -0.034500
v 0.085000 0.399000 -0.034500
vt 1.000000 0.000000
vt 0.000000 0.000000
vt 0.000000 1.000000
vt 1.000000 1.000000
f 805/805 806/806 807/807 808/808
v 0.080500 0.397794 -0.047500
v 0.077206 0.394500 -0.047500
v 0.077206 0.394500 -0.034500
v 0.080500 0.397794 -0.034500
vt 1.000000 0.000000
vt 0.000000 0.000000
vt 0.000000 1.000000
vt 1.000000 1.000000
f 809/809 810/810 811/811 812/812
v 0.077206 0.394500 -0.047500
v 0.076000 0.390000 -0.047500
v 0.076000 0.390000 -0.034500
v 0.077206 0.394500 -0.034500
vt 0.000000 1.000000
vt 0.000000 0.000000
vt 1.000000 0.000000
vt 1.000000 1.000000
f 813/813 814/814 815/815 816/816
v 0.076000 0.390000 -0.047500
v 0.077206 0.385500 -0.047500
v 0.077206 0.385500 -0.034500
v 0.076000 0.390000 -0.034500
vt 0.000000 1.000000
vt 0.000000 0.000000
vt 1.000000 0.000000
vt 1.000000 1.000000
f 817/817 818/818 819/819 820/820
v 0.077206 0.385500 -0.047500
v 0.080500 0.382206 -0.047500
v 0.080500 0.382206 -0.034500
v 0.077206 0.385500 -0.034500
vt 0.000000 0.000000
vt 1.000000 0.000000
vt 1.000000 1.000000
vt 0.000000 1.000000
f 821/821 822/822 823/823 824/824
v 0.080500 0.382206 -0.047500
v 0.085000 0.381000 -0.047500
v 0.085000 0.381000 -0.034500
v 0.080500 0.382206 -0.034500
vt 0.000000 0.000000
vt 1.000000 0.000000
vt 1.000000 1.000000
vt 0.000000 1.000000
f 825/825 826/826 827/827 828/828
v 0.085000 0.381000 -0.047500
v 0.089500 0.382206 -0.047500
v 0.089500 0.382206 -0.034500
v 0.085000 0.381000 -0.034500
vt 0.000000 0.000000
vt 1.000000 0.000000
vt 1.000000 1.000000
vt 0.000000 1.000000
f 829/829 830/830 831/831 832/832
v 0.089500 0.382206 -0.047500
v 0.092794 0.385500 -0.047500
v 0.092794 0.385500 -0.034500
v 0.089500 0.382206 -0.034500
vt 0.000000 0.000000
vt 1.000000 0.000000
vt 1.000000 1.000000
vt 0.000000 1.000000
f 833/833 834/834 835/835 836/836
v 0.092794 0.385500 -0.047500
v 0.094000 0.390000 -0.047500
v 0.094000 0.390000 -0.034500
v 0.092794 0.385500 -0.034500
vt 0.000000 0.000000
vt 0.000000 1.000000
vt 1.000000 1.000000
vt 1.000000 0.000000
f 837/837 838/838 839/839 840/840
