# Rounded authored office prop; metres, Y-up
mtllib refined_palette.mtl
s 1
g casing
usemtl ivory
v 0.195000 0.040000 -0.060000
v 0.193776 0.032275 -0.060000
v 0.190225 0.025305 -0.060000
v 0.184695 0.019775 -0.060000
v 0.177725 0.016224 -0.060000
v 0.170000 0.015000 -0.060000
v -0.170000 0.015000 -0.060000
v -0.177725 0.016224 -0.060000
v -0.184695 0.019775 -0.060000
v -0.190225 0.025305 -0.060000
v -0.193776 0.032275 -0.060000
v -0.195000 0.040000 -0.060000
v -0.195000 0.180000 -0.060000
v -0.193776 0.187725 -0.060000
v -0.190225 0.194695 -0.060000
v -0.184695 0.200225 -0.060000
v -0.177725 0.203776 -0.060000
v -0.170000 0.205000 -0.060000
v 0.170000 0.205000 -0.060000
v 0.177725 0.203776 -0.060000
v 0.184695 0.200225 -0.060000
v 0.190225 0.194695 -0.060000
v 0.193776 0.187725 -0.060000
v 0.195000 0.180000 -0.060000
vt 1.000000 0.131579
vt 0.996863 0.090919
vt 0.987757 0.054239
vt 0.973576 0.025129
vt 0.955706 0.006440
vt 0.935897 0.000000
vt 0.064103 0.000000
vt 0.044294 0.006440
vt 0.026424 0.025129
vt 0.012243 0.054239
vt 0.003137 0.090919
vt 0.000000 0.131579
vt 0.000000 0.868421
vt 0.003137 0.909081
vt 0.012243 0.945761
vt 0.026424 0.974871
vt 0.044294 0.993560
vt 0.064103 1.000000
vt 0.935897 1.000000
vt 0.955706 0.993560
vt 0.973576 0.974871
vt 0.987757 0.945761
vt 0.996863 0.909081
vt 1.000000 0.868421
f 1/1 2/2 3/3 4/4 5/5 6/6 7/7 8/8 9/9 10/10 11/11 12/12 13/13 14/14 15/15 16/16 17/17 18/18 19/19 20/20 21/21 22/22 23/23 24/24
v 0.195000 0.180000 0.080000
v 0.193776 0.187725 0.080000
v 0.190225 0.194695 0.080000
v 0.184695 0.200225 0.080000
v 0.177725 0.203776 0.080000
v 0.170000 0.205000 0.080000
v -0.170000 0.205000 0.080000
v -0.177725 0.203776 0.080000
v -0.184695 0.200225 0.080000
v -0.190225 0.194695 0.080000
v -0.193776 0.187725 0.080000
v -0.195000 0.180000 0.080000
v -0.195000 0.040000 0.080000
v -0.193776 0.032275 0.080000
v -0.190225 0.025305 0.080000
v -0.184695 0.019775 0.080000
v -0.177725 0.016224 0.080000
v -0.170000 0.015000 0.080000
v 0.170000 0.015000 0.080000
v 0.177725 0.016224 0.080000
v 0.184695 0.019775 0.080000
v 0.190225 0.025305 0.080000
v 0.193776 0.032275 0.080000
v 0.195000 0.040000 0.080000
vt 1.000000 0.868421
vt 0.996863 0.909081
vt 0.987757 0.945761
vt 0.973576 0.974871
vt 0.955706 0.993560
vt 0.935897 1.000000
vt 0.064103 1.000000
vt 0.044294 0.993560
vt 0.026424 0.974871
vt 0.012243 0.945761
vt 0.003137 0.909081
vt 0.000000 0.868421
vt 0.000000 0.131579
vt 0.003137 0.090919
vt 0.012243 0.054239
vt 0.026424 0.025129
vt 0.044294 0.006440
vt 0.064103 0.000000
vt 0.935897 0.000000
vt 0.955706 0.006440
vt 0.973576 0.025129
vt 0.987757 0.054239
vt 0.996863 0.090919
vt 1.000000 0.131579
f 25/25 26/26 27/27 28/28 29/29 30/30 31/31 32/32 33/33 34/34 35/35 36/36 37/37 38/38 39/39 40/40 41/41 42/42 43/43 44/44 45/45 46/46 47/47 48/48
v 0.195000 0.180000 -0.060000
v 0.193776 0.187725 -0.060000
v 0.217553 0.195451 -0.035000
v 0.220000 0.180000 -0.035000
vt 0.046660 0.000000
vt 0.000000 0.000000
vt 0.906680 1.000000
vt 1.000000 1.000000
f 49/49 50/50 51/51 52/52
v 0.193776 0.187725 -0.060000
v 0.190225 0.194695 -0.060000
v 0.210451 0.209389 -0.035000
v 0.217553 0.195451 -0.035000
vt 0.129942 0.000000
vt 0.000000 0.000000
vt 0.740115 1.000000
vt 1.000000 1.000000
f 53/53 54/54 55/55 56/56
v 0.190225 0.194695 -0.060000
v 0.184695 0.200225 -0.060000
v 0.199389 0.220451 -0.035000
v 0.210451 0.209389 -0.035000
vt 0.214736 0.000000
vt 0.000000 0.214736
vt 0.570528 1.000000
vt 1.000000 0.570528
f 57/57 58/58 59/59 60/60
v 0.184695 0.200225 -0.060000
v 0.177725 0.203776 -0.060000
v 0.185451 0.227553 -0.035000
v 0.199389 0.220451 -0.035000
vt 0.000000 0.000000
vt 0.000000 0.129942
vt 1.000000 1.000000
vt 1.000000 0.740115
f 61/61 62/62 63/63 64/64
v 0.177725 0.203776 -0.060000
v 0.170000 0.205000 -0.060000
v 0.170000 0.230000 -0.035000
v 0.185451 0.227553 -0.035000
vt 0.000000 0.000000
vt 0.000000 0.046660
vt 1.000000 1.000000
vt 1.000000 0.906680
f 65/65 66/66 67/67 68/68
v 0.170000 0.205000 -0.060000
v -0.170000 0.205000 -0.060000
v -0.170000 0.230000 -0.035000
v 0.170000 0.230000 -0.035000
vt 1.000000 0.000000
vt 0.000000 0.000000
vt 0.000000 1.000000
vt 1.000000 1.000000
f 69/69 70/70 71/71 72/72
v -0.170000 0.205000 -0.060000
v -0.177725 0.203776 -0.060000
v -0.185451 0.227553 -0.035000
v -0.170000 0.230000 -0.035000
vt 0.000000 0.046660
vt 0.000000 0.000000
vt 1.000000 0.906680
vt 1.000000 1.000000
f 73/73 74/74 75/75 76/76
v -0.177725 0.203776 -0.060000
v -0.184695 0.200225 -0.060000
v -0.199389 0.220451 -0.035000
v -0.185451 0.227553 -0.035000
vt 0.000000 0.129942
vt 0.000000 0.000000
vt 1.000000 0.740115
vt 1.000000 1.000000
f 77/77 78/78 79/79 80/80
v -0.184695 0.200225 -0.060000
v -0.190225 0.194695 -0.060000
v -0.210451 0.209389 -0.035000
v -0.199389 0.220451 -0.035000
vt 1.000000 0.214736
vt 0.785264 0.000000
vt 0.000000 0.570528
vt 0.429472 1.000000
f 81/81 82/82 83/83 84/84
v -0.190225 0.194695 -0.060000
v -0.193776 0.187725 -0.060000
v -0.217553 0.195451 -0.035000
v -0.210451 0.209389 -0.035000
vt 1.000000 0.000000
vt 0.870058 0.000000
vt 0.000000 1.000000
vt 0.259885 1.000000
f 85/85 86/86 87/87 88/88
v -0.193776 0.187725 -0.060000
v -0.195000 0.180000 -0.060000
v -0.220000 0.180000 -0.035000
v -0.217553 0.195451 -0.035000
vt 1.000000 0.000000
vt 0.953340 0.000000
vt 0.000000 1.000000
vt 0.093320 1.000000
f 89/89 90/90 91/91 92/92
v -0.195000 0.180000 -0.060000
v -0.195000 0.040000 -0.060000
v -0.220000 0.040000 -0.035000
v -0.220000 0.180000 -0.035000
vt 0.000000 1.000000
vt 0.000000 0.000000
vt 1.000000 0.000000
vt 1.000000 1.000000
f 93/93 94/94 95/95 96/96
v -0.195000 0.040000 -0.060000
v -0.193776 0.032275 -0.060000
v -0.217553 0.024549 -0.035000
v -0.220000 0.040000 -0.035000
vt 0.953340 0.000000
vt 1.000000 0.000000
vt 0.093320 1.000000
vt 0.000000 1.000000
f 97/97 98/98 99/99 100/100
v -0.193776 0.032275 -0.060000
v -0.190225 0.025305 -0.060000
v -0.210451 0.010611 -0.035000
v -0.217553 0.024549 -0.035000
vt 0.870058 0.000000
vt 1.000000 0.000000
vt 0.259885 1.000000
vt 0.000000 1.000000
f 101/101 102/102 103/103 104/104
v -0.190225 0.025305 -0.060000
v -0.184695 0.019775 -0.060000
v -0.199389 -0.000451 -0.035000
v -0.210451 0.010611 -0.035000
vt 0.785264 1.000000
vt 1.000000 0.785264
vt 0.429472 0.000000
vt 0.000000 0.429472
f 105/105 106/106 107/107 108/108
v -0.184695 0.019775 -0.060000
v -0.177725 0.016224 -0.060000
v -0.185451 -0.007553 -0.035000
v -0.199389 -0.000451 -0.035000
vt 0.000000 1.000000
vt 0.000000 0.870058
vt 1.000000 0.000000
vt 1.000000 0.259885
f 109/109 110/110 111/111 112/112
v -0.177725 0.016224 -0.060000
v -0.170000 0.015000 -0.060000
v -0.170000 -0.010000 -0.035000
v -0.185451 -0.007553 -0.035000
vt 0.000000 1.000000
vt 0.000000 0.953340
vt 1.000000 0.000000
vt 1.000000 0.093320
f 113/113 114/114 115/115 116/116
v -0.170000 0.015000 -0.060000
v 0.170000 0.015000 -0.060000
v 0.170000 -0.010000 -0.035000
v -0.170000 -0.010000 -0.035000
vt 0.000000 0.000000
vt 1.000000 0.000000
vt 1.000000 1.000000
vt 0.000000 1.000000
f 117/117 118/118 119/119 120/120
v 0.170000 0.015000 -0.060000
v 0.177725 0.016224 -0.060000
v 0.185451 -0.007553 -0.035000
v 0.170000 -0.010000 -0.035000
vt 0.000000 0.953340
vt 0.000000 1.000000
vt 1.000000 0.093320
vt 1.000000 0.000000
f 121/121 122/122 123/123 124/124
v 0.177725 0.016224 -0.060000
v 0.184695 0.019775 -0.060000
v 0.199389 -0.000451 -0.035000
v 0.185451 -0.007553 -0.035000
vt 0.000000 0.870058
vt 0.000000 1.000000
vt 1.000000 0.259885
vt 1.000000 0.000000
f 125/125 126/126 127/127 128/128
v 0.184695 0.019775 -0.060000
v 0.190225 0.025305 -0.060000
v 0.210451 0.010611 -0.035000
v 0.199389 -0.000451 -0.035000
vt 0.000000 0.785264
vt 0.214736 1.000000
vt 1.000000 0.429472
vt 0.570528 0.000000
f 129/129 130/130 131/131 132/132
v 0.190225 0.025305 -0.060000
v 0.193776 0.032275 -0.060000
v 0.217553 0.024549 -0.035000
v 0.210451 0.010611 -0.035000
vt 0.000000 0.000000
vt 0.129942 0.000000
vt 1.000000 1.000000
vt 0.740115 1.000000
f 133/133 134/134 135/135 136/136
v 0.193776 0.032275 -0.060000
v 0.195000 0.040000 -0.060000
v 0.220000 0.040000 -0.035000
v 0.217553 0.024549 -0.035000
vt 0.000000 0.000000
vt 0.046660 0.000000
vt 1.000000 1.000000
vt 0.906680 1.000000
f 137/137 138/138 139/139 140/140
v 0.195000 0.040000 -0.060000
v 0.195000 0.180000 -0.060000
v 0.220000 0.180000 -0.035000
v 0.220000 0.040000 -0.035000
vt 0.000000 0.000000
vt 0.000000 1.000000
vt 1.000000 1.000000
vt 1.000000 0.000000
f 141/141 142/142 143/143 144/144
v 0.220000 0.180000 -0.035000
v 0.217553 0.195451 -0.035000
v 0.217553 0.195451 0.055000
v 0.220000 0.180000 0.055000
vt 0.000000 0.000000
vt 0.000000 1.000000
vt 1.000000 1.000000
vt 1.000000 0.000000
f 145/145 146/146 147/147 148/148
v 0.217553 0.195451 -0.035000
v 0.210451 0.209389 -0.035000
v 0.210451 0.209389 0.055000
v 0.217553 0.195451 0.055000
vt 0.000000 0.000000
vt 0.000000 1.000000
vt 1.000000 1.000000
vt 1.000000 0.000000
f 149/149 150/150 151/151 152/152
v 0.210451 0.209389 -0.035000
v 0.199389 0.220451 -0.035000
v 0.199389 0.220451 0.055000
v 0.210451 0.209389 0.055000
vt 1.000000 0.000000
vt 0.000000 0.000000
vt 0.000000 1.000000
vt 1.000000 1.000000
f 153/153 154/154 155/155 156/156
v 0.199389 0.220451 -0.035000
v 0.185451 0.227553 -0.035000
v 0.185451 0.227553 0.055000
v 0.199389 0.220451 0.055000
vt 1.000000 0.000000
vt 0.000000 0.000000
vt 0.000000 1.000000
vt 1.000000 1.000000
f 157/157 158/158 159/159 160/160
v 0.185451 0.227553 -0.035000
v 0.170000 0.230000 -0.035000
v 0.170000 0.230000 0.055000
v 0.185451 0.227553 0.055000
vt 1.000000 0.000000
vt 0.000000 0.000000
vt 0.000000 1.000000
vt 1.000000 1.000000
f 161/161 162/162 163/163 164/164
v 0.170000 0.230000 -0.035000
v -0.170000 0.230000 -0.035000
v -0.170000 0.230000 0.055000
v 0.170000 0.230000 0.055000
vt 1.000000 0.000000
vt 0.000000 0.000000
vt 0.000000 1.000000
vt 1.000000 1.000000
f 165/165 166/166 167/167 168/168
v -0.170000 0.230000 -0.035000
v -0.185451 0.227553 -0.035000
v -0.185451 0.227553 0.055000
v -0.170000 0.230000 0.055000
vt 1.000000 0.000000
vt 0.000000 0.000000
vt 0.000000 1.000000
vt 1.000000 1.000000
f 169/169 170/170 171/171 172/172
v -0.185451 0.227553 -0.035000
v -0.199389 0.220451 -0.035000
v -0.199389 0.220451 0.055000
v -0.185451 0.227553 0.055000
vt 1.000000 0.000000
vt 0.000000 0.000000
vt 0.000000 1.000000
vt 1.000000 1.000000
f 173/173 174/174 175/175 176/176
v -0.199389 0.220451 -0.035000
v -0.210451 0.209389 -0.035000
v -0.210451 0.209389 0.055000
v -0.199389 0.220451 0.055000
vt 1.000000 0.000000
vt 0.000000 0.000000
vt 0.000000 1.000000
vt 1.000000 1.000000
f 177/177 178/178 179/179 180/180
v -0.210451 0.209389 -0.035000
v -0.217553 0.195451 -0.035000
v -0.217553 0.195451 0.055000
v -0.210451 0.209389 0.055000
vt 0.000000 1.000000
vt 0.000000 0.000000
vt 1.000000 0.000000
vt 1.000000 1.000000
f 181/181 182/182 183/183 184/184
v -0.217553 0.195451 -0.035000
v -0.220000 0.180000 -0.035000
v -0.220000 0.180000 0.055000
v -0.217553 0.195451 0.055000
vt 0.000000 1.000000
vt 0.000000 0.000000
vt 1.000000 0.000000
vt 1.000000 1.000000
f 185/185 186/186 187/187 188/188
v -0.220000 0.180000 -0.035000
v -0.220000 0.040000 -0.035000
v -0.220000 0.040000 0.055000
v -0.220000 0.180000 0.055000
vt 0.000000 1.000000
vt 0.000000 0.000000
vt 1.000000 0.000000
vt 1.000000 1.000000
f 189/189 190/190 191/191 192/192
v -0.220000 0.040000 -0.035000
v -0.217553 0.024549 -0.035000
v -0.217553 0.024549 0.055000
v -0.220000 0.040000 0.055000
vt 0.000000 1.000000
vt 0.000000 0.000000
vt 1.000000 0.000000
vt 1.000000 1.000000
f 193/193 194/194 195/195 196/196
v -0.217553 0.024549 -0.035000
v -0.210451 0.010611 -0.035000
v -0.210451 0.010611 0.055000
v -0.217553 0.024549 0.055000
vt 0.000000 1.000000
vt 0.000000 0.000000
vt 1.000000 0.000000
vt 1.000000 1.000000
f 197/197 198/198 199/199 200/200
v -0.210451 0.010611 -0.035000
v -0.199389 -0.000451 -0.035000
v -0.199389 -0.000451 0.055000
v -0.210451 0.010611 0.055000
vt 0.000000 0.000000
vt 1.000000 0.000000
vt 1.000000 1.000000
vt 0.000000 1.000000
f 201/201 202/202 203/203 204/204
v -0.199389 -0.000451 -0.035000
v -0.185451 -0.007553 -0.035000
v -0.185451 -0.007553 0.055000
v -0.199389 -0.000451 0.055000
vt 0.000000 0.000000
vt 1.000000 0.000000
vt 1.000000 1.000000
vt 0.000000 1.000000
f 205/205 206/206 207/207 208/208
v -0.185451 -0.007553 -0.035000
v -0.170000 -0.010000 -0.035000
v -0.170000 -0.010000 0.055000
v -0.185451 -0.007553 0.055000
vt 0.000000 0.000000
vt 1.000000 0.000000
vt 1.000000 1.000000
vt 0.000000 1.000000
f 209/209 210/210 211/211 212/212
v -0.170000 -0.010000 -0.035000
v 0.170000 -0.010000 -0.035000
v 0.170000 -0.010000 0.055000
v -0.170000 -0.010000 0.055000
vt 0.000000 0.000000
vt 1.000000 0.000000
vt 1.000000 1.000000
vt 0.000000 1.000000
f 213/213 214/214 215/215 216/216
v 0.170000 -0.010000 -0.035000
v 0.185451 -0.007553 -0.035000
v 0.185451 -0.007553 0.055000
v 0.170000 -0.010000 0.055000
vt 0.000000 0.000000
vt 1.000000 0.000000
vt 1.000000 1.000000
vt 0.000000 1.000000
f 217/217 218/218 219/219 220/220
v 0.185451 -0.007553 -0.035000
v 0.199389 -0.000451 -0.035000
v 0.199389 -0.000451 0.055000
v 0.185451 -0.007553 0.055000
vt 0.000000 0.000000
vt 1.000000 0.000000
vt 1.000000 1.000000
vt 0.000000 1.000000
f 221/221 222/222 223/223 224/224
v 0.199389 -0.000451 -0.035000
v 0.210451 0.010611 -0.035000
v 0.210451 0.010611 0.055000
v 0.199389 -0.000451 0.055000
vt 0.000000 0.000000
vt 1.000000 0.000000
vt 1.000000 1.000000
vt 0.000000 1.000000
f 225/225 226/226 227/227 228/228
v 0.210451 0.010611 -0.035000
v 0.217553 0.024549 -0.035000
v 0.217553 0.024549 0.055000
v 0.210451 0.010611 0.055000
vt 0.000000 0.000000
vt 0.000000 1.000000
vt 1.000000 1.000000
vt 1.000000 0.000000
f 229/229 230/230 231/231 232/232
v 0.217553 0.024549 -0.035000
v 0.220000 0.040000 -0.035000
v 0.220000 0.040000 0.055000
v 0.217553 0.024549 0.055000
vt 0.000000 0.000000
vt 0.000000 1.000000
vt 1.000000 1.000000
vt 1.000000 0.000000
f 233/233 234/234 235/235 236/236
v 0.220000 0.040000 -0.035000
v 0.220000 0.180000 -0.035000
v 0.220000 0.180000 0.055000
v 0.220000 0.040000 0.055000
vt 0.000000 0.000000
vt 0.000000 1.000000
vt 1.000000 1.000000
vt 1.000000 0.000000
f 237/237 238/238 239/239 240/240
v 0.220000 0.180000 0.055000
v 0.217553 0.195451 0.055000
v 0.193776 0.187725 0.080000
v 0.195000 0.180000 0.080000
vt 1.000000 0.000000
vt 0.906680 0.000000
vt 0.000000 1.000000
vt 0.046660 1.000000
f 241/241 242/242 243/243 244/244
v 0.217553 0.195451 0.055000
v 0.210451 0.209389 0.055000
v 0.190225 0.194695 0.080000
v 0.193776 0.187725 0.080000
vt 1.000000 0.000000
vt 0.740115 0.000000
vt 0.000000 1.000000
vt 0.129942 1.000000
f 245/245 246/246 247/247 248/248
v 0.210451 0.209389 0.055000
v 0.199389 0.220451 0.055000
v 0.184695 0.200225 0.080000
v 0.190225 0.194695 0.080000
vt 1.000000 0.570528
vt 0.570528 1.000000
vt 0.000000 0.214736
vt 0.214736 0.000000
f 249/249 250/250 251/251 252/252
v 0.199389 0.220451 0.055000
v 0.185451 0.227553 0.055000
v 0.177725 0.203776 0.080000
v 0.184695 0.200225 0.080000
vt 0.000000 0.740115
vt 0.000000 1.000000
vt 1.000000 0.129942
vt 1.000000 0.000000
f 253/253 254/254 255/255 256/256
v 0.185451 0.227553 0.055000
v 0.170000 0.230000 0.055000
v 0.170000 0.205000 0.080000
v 0.177725 0.203776 0.080000
vt 0.000000 0.906680
vt 0.000000 1.000000
vt 1.000000 0.046660
vt 1.000000 0.000000
f 257/257 258/258 259/259 260/260
v 0.170000 0.230000 0.055000
v -0.170000 0.230000 0.055000
v -0.170000 0.205000 0.080000
v 0.170000 0.205000 0.080000
vt 1.000000 0.000000
vt 0.000000 0.000000
vt 0.000000 1.000000
vt 1.000000 1.000000
f 261/261 262/262 263/263 264/264
v -0.170000 0.230000 0.055000
v -0.185451 0.227553 0.055000
v -0.177725 0.203776 0.080000
v -0.170000 0.205000 0.080000
vt 0.000000 1.000000
vt 0.000000 0.906680
vt 1.000000 0.000000
vt 1.000000 0.046660
f 265/265 266/266 267/267 268/268
v -0.185451 0.227553 0.055000
v -0.199389 0.220451 0.055000
v -0.184695 0.200225 0.080000
v -0.177725 0.203776 0.080000
vt 0.000000 1.000000
vt 0.000000 0.740115
vt 1.000000 0.000000
vt 1.000000 0.129942
f 269/269 270/270 271/271 272/272
v -0.199389 0.220451 0.055000
v -0.210451 0.209389 0.055000
v -0.190225 0.194695 0.080000
v -0.184695 0.200225 0.080000
vt 0.429472 1.000000
vt 0.000000 0.570528
vt 0.785264 0.000000
vt 1.000000 0.214736
f 273/273 274/274 275/275 276/276
v -0.210451 0.209389 0.055000
v -0.217553 0.195451 0.055000
v -0.193776 0.187725 0.080000
v -0.190225 0.194695 0.080000
vt 0.259885 0.000000
vt 0.000000 0.000000
vt 0.870058 1.000000
vt 1.000000 1.000000
f 277/277 278/278 279/279 280/280
v -0.217553 0.195451 0.055000
v -0.220000 0.180000 0.055000
v -0.195000 0.180000 0.080000
v -0.193776 0.187725 0.080000
vt 0.093320 0.000000
vt 0.000000 0.000000
vt 0.953340 1.000000
vt 1.000000 1.000000
f 281/281 282/282 283/283 284/284
v -0.220000 0.180000 0.055000
v -0.220000 0.040000 0.055000
v -0.195000 0.040000 0.080000
v -0.195000 0.180000 0.080000
vt 0.000000 1.000000
vt 0.000000 0.000000
vt 1.000000 0.000000
vt 1.000000 1.000000
f 285/285 286/286 287/287 288/288
v -0.220000 0.040000 0.055000
v -0.217553 0.024549 0.055000
v -0.193776 0.032275 0.080000
v -0.195000 0.040000 0.080000
vt 0.000000 0.000000
vt 0.093320 0.000000
vt 1.000000 1.000000
vt 0.953340 1.000000
f 289/289 290/290 291/291 292/292
v -0.217553 0.024549 0.055000
v -0.210451 0.010611 0.055000
v -0.190225 0.025305 0.080000
v -0.193776 0.032275 0.080000
vt 0.000000 0.000000
vt 0.259885 0.000000
vt 1.000000 1.000000
vt 0.870058 1.000000
f 293/293 294/294 295/295 296/296
v -0.210451 0.010611 0.055000
v -0.199389 -0.000451 0.055000
v -0.184695 0.019775 0.080000
v -0.190225 0.025305 0.080000
vt 0.000000 0.429472
vt 0.429472 0.000000
vt 1.000000 0.785264
vt 0.785264 1.000000
f 297/297 298/298 299/299 300/300
v -0.199389 -0.000451 0.055000
v -0.185451 -0.007553 0.055000
v -0.177725 0.016224 0.080000
v -0.184695 0.019775 0.080000
vt 0.000000 0.259885
vt 0.000000 0.000000
vt 1.000000 0.870058
vt 1.000000 1.000000
f 301/301 302/302 303/303 304/304
v -0.185451 -0.007553 0.055000
v -0.170000 -0.010000 0.055000
v -0.170000 0.015000 0.080000
v -0.177725 0.016224 0.080000
vt 0.000000 0.093320
vt 0.000000 0.000000
vt 1.000000 0.953340
vt 1.000000 1.000000
f 305/305 306/306 307/307 308/308
v -0.170000 -0.010000 0.055000
v 0.170000 -0.010000 0.055000
v 0.170000 0.015000 0.080000
v -0.170000 0.015000 0.080000
vt 0.000000 0.000000
vt 1.000000 0.000000
vt 1.000000 1.000000
vt 0.000000 1.000000
f 309/309 310/310 311/311 312/312
v 0.170000 -0.010000 0.055000
v 0.185451 -0.007553 0.055000
v 0.177725 0.016224 0.080000
v 0.170000 0.015000 0.080000
vt 0.000000 0.000000
vt 0.000000 0.093320
vt 1.000000 1.000000
vt 1.000000 0.953340
f 313/313 314/314 315/315 316/316
v 0.185451 -0.007553 0.055000
v 0.199389 -0.000451 0.055000
v 0.184695 0.019775 0.080000
v 0.177725 0.016224 0.080000
vt 0.000000 0.000000
vt 0.000000 0.259885
vt 1.000000 1.000000
vt 1.000000 0.870058
f 317/317 318/318 319/319 320/320
v 0.199389 -0.000451 0.055000
v 0.210451 0.010611 0.055000
v 0.190225 0.025305 0.080000
v 0.184695 0.019775 0.080000
vt 0.570528 0.000000
vt 1.000000 0.429472
vt 0.214736 1.000000
vt 0.000000 0.785264
f 321/321 322/322 323/323 324/324
v 0.210451 0.010611 0.055000
v 0.217553 0.024549 0.055000
v 0.193776 0.032275 0.080000
v 0.190225 0.025305 0.080000
vt 0.740115 0.000000
vt 1.000000 0.000000
vt 0.129942 1.000000
vt 0.000000 1.000000
f 325/325 326/326 327/327 328/328
v 0.217553 0.024549 0.055000
v 0.220000 0.040000 0.055000
v 0.195000 0.040000 0.080000
v 0.193776 0.032275 0.080000
vt 0.906680 0.000000
vt 1.000000 0.000000
vt 0.046660 1.000000
vt 0.000000 1.000000
f 329/329 330/330 331/331 332/332
v 0.220000 0.040000 0.055000
v 0.220000 0.180000 0.055000
v 0.195000 0.180000 0.080000
v 0.195000 0.040000 0.080000
vt 0.000000 0.000000
vt 0.000000 1.000000
vt 1.000000 1.000000
vt 1.000000 0.000000
f 333/333 334/334 335/335 336/336
g display_recess
usemtl ivory_dark
v 0.191619 0.187562 -0.066000
v 0.192500 0.182000 -0.066000
v 0.177500 0.171000 -0.070000
v 0.176815 0.175326 -0.070000
vt 0.943834 1.000000
vt 1.000000 0.664159
vt 0.043685 0.000000
vt 0.000000 0.261210
f 337/337 338/338 339/339 340/340
v 0.189062 0.192580 -0.066000
v 0.191619 0.187562 -0.066000
v 0.176815 0.175326 -0.070000
v 0.174826 0.179229 -0.070000
vt 0.847749 1.000000
vt 1.000000 0.709177
vt 0.118417 0.000000
vt 0.000000 0.226196
f 341/341 342/342 343/343 344/344
v 0.185080 0.196562 -0.066000
v 0.189062 0.192580 -0.066000
v 0.174826 0.179229 -0.070000
v 0.171729 0.182326 -0.070000
vt 0.770259 1.000000
vt 1.000000 0.770259
vt 0.178687 0.000000
vt 0.000000 0.178687
f 345/345 346/346 347/347 348/348
v 0.180062 0.199119 -0.066000
v 0.185080 0.196562 -0.066000
v 0.171729 0.182326 -0.070000
v 0.167826 0.184315 -0.070000
vt 0.709177 1.000000
vt 1.000000 0.847749
vt 0.226196 0.000000
vt 0.000000 0.118417
f 349/349 350/350 351/351 352/352
v 0.174500 0.200000 -0.066000
v 0.180062 0.199119 -0.066000
v 0.167826 0.184315 -0.070000
v 0.163500 0.185000 -0.070000
vt 0.664159 1.000000
vt 1.000000 0.943834
vt 0.261210 0.000000
vt 0.000000 0.043685
f 353/353 354/354 355/355 356/356
v -0.174500 0.200000 -0.066000
v 0.174500 0.200000 -0.066000
v 0.163500 0.185000 -0.070000
v -0.163500 0.185000 -0.070000
vt 0.000000 1.000000
vt 1.000000 1.000000
vt 0.968481 0.000000
vt 0.031519 0.000000
f 357/357 358/358 359/359 360/360
v -0.180062 0.199119 -0.066000
v -0.174500 0.200000 -0.066000
v -0.163500 0.185000 -0.070000
v -0.167826 0.184315 -0.070000
vt 0.000000 0.943834
vt 0.335841 1.000000
vt 1.000000 0.043685
vt 0.738790 0.000000
f 361/361 362/362 363/363 364/364
v -0.185080 0.196562 -0.066000
v -0.180062 0.199119 -0.066000
v -0.167826 0.184315 -0.070000
v -0.171729 0.182326 -0.070000
vt 0.000000 0.847749
vt 0.290823 1.000000
vt 1.000000 0.118417
vt 0.773804 0.000000
f 365/365 366/366 367/367 368/368
v -0.189062 0.192580 -0.066000
v -0.185080 0.196562 -0.066000
v -0.171729 0.182326 -0.070000
v -0.174826 0.179229 -0.070000
vt 0.000000 0.770259
vt 0.229741 1.000000
vt 1.000000 0.178687
vt 0.821313 0.000000
f 369/369 370/370 371/371 372/372
v -0.191619 0.187562 -0.066000
v -0.189062 0.192580 -0.066000
v -0.174826 0.179229 -0.070000
v -0.176815 0.175326 -0.070000
vt 0.000000 0.709177
vt 0.152251 1.000000
vt 1.000000 0.226196
vt 0.881583 0.000000
f 373/373 374/374 375/375 376/376
v -0.192500 0.182000 -0.066000
v -0.191619 0.187562 -0.066000
v -0.176815 0.175326 -0.070000
v -0.177500 0.171000 -0.070000
vt 0.000000 0.664159
vt 0.056166 1.000000
vt 1.000000 0.261210
vt 0.956315 0.000000
f 377/377 378/378 379/379 380/380
v -0.192500 0.038000 -0.066000
v -0.192500 0.182000 -0.066000
v -0.177500 0.171000 -0.070000
v -0.177500 0.049000 -0.070000
vt 0.000000 0.000000
vt 0.000000 1.000000
vt 1.000000 0.923611
vt 1.000000 0.076389
f 381/381 382/382 383/383 384/384
v -0.191619 0.032438 -0.066000
v -0.192500 0.038000 -0.066000
v -0.177500 0.049000 -0.070000
v -0.176815 0.044674 -0.070000
vt 0.056166 0.000000
vt 0.000000 0.335841
vt 0.956315 1.000000
vt 1.000000 0.738790
f 385/385 386/386 387/387 388/388
v -0.189062 0.027420 -0.066000
v -0.191619 0.032438 -0.066000
v -0.176815 0.044674 -0.070000
v -0.174826 0.040771 -0.070000
vt 0.152251 0.000000
vt 0.000000 0.290823
vt 0.881583 1.000000
vt 1.000000 0.773804
f 389/389 390/390 391/391 392/392
v -0.185080 0.023438 -0.066000
v -0.189062 0.027420 -0.066000
v -0.174826 0.040771 -0.070000
v -0.171729 0.037674 -0.070000
vt 0.229741 0.000000
vt 0.000000 0.229741
vt 0.821313 1.000000
vt 1.000000 0.821313
f 393/393 394/394 395/395 396/396
v -0.180062 0.020881 -0.066000
v -0.185080 0.023438 -0.066000
v -0.171729 0.037674 -0.070000
v -0.167826 0.035685 -0.070000
vt 0.290823 0.000000
vt 0.000000 0.152251
vt 0.773804 1.000000
vt 1.000000 0.881583
f 397/397 398/398 399/399 400/400
v -0.174500 0.020000 -0.066000
v -0.180062 0.020881 -0.066000
v -0.167826 0.035685 -0.070000
v -0.163500 0.035000 -0.070000
vt 0.335841 0.000000
vt 0.000000 0.056166
vt 0.738790 1.000000
vt 1.000000 0.956315
f 401/401 402/402 403/403 404/404
v 0.174500 0.020000 -0.066000
v -0.174500 0.020000 -0.066000
v -0.163500 0.035000 -0.070000
v 0.163500 0.035000 -0.070000
vt 1.000000 0.000000
vt 0.000000 0.000000
vt 0.031519 1.000000
vt 0.968481 1.000000
f 405/405 406/406 407/407 408/408
v 0.180062 0.020881 -0.066000
v 0.174500 0.020000 -0.066000
v 0.163500 0.035000 -0.070000
v 0.167826 0.035685 -0.070000
vt 1.000000 0.056166
vt 0.664159 0.000000
vt 0.000000 0.956315
vt 0.261210 1.000000
f 409/409 410/410 411/411 412/412
v 0.185080 0.023438 -0.066000
v 0.180062 0.020881 -0.066000
v 0.167826 0.035685 -0.070000
v 0.171729 0.037674 -0.070000
vt 1.000000 0.152251
vt 0.709177 0.000000
vt 0.000000 0.881583
vt 0.226196 1.000000
f 413/413 414/414 415/415 416/416
v 0.189062 0.027420 -0.066000
v 0.185080 0.023438 -0.066000
v 0.171729 0.037674 -0.070000
v 0.174826 0.040771 -0.070000
vt 1.000000 0.229741
vt 0.770259 0.000000
vt 0.000000 0.821313
vt 0.178687 1.000000
f 417/417 418/418 419/419 420/420
v 0.191619 0.032438 -0.066000
v 0.189062 0.027420 -0.066000
v 0.174826 0.040771 -0.070000
v 0.176815 0.044674 -0.070000
vt 1.000000 0.290823
vt 0.847749 0.000000
vt 0.000000 0.773804
vt 0.118417 1.000000
f 421/421 422/422 423/423 424/424
v 0.192500 0.038000 -0.066000
v 0.191619 0.032438 -0.066000
v 0.176815 0.044674 -0.070000
v 0.177500 0.049000 -0.070000
vt 1.000000 0.335841
vt 0.943834 0.000000
vt 0.000000 0.738790
vt 0.043685 1.000000
f 425/425 426/426 427/427 428/428
v 0.192500 0.182000 -0.066000
v 0.192500 0.038000 -0.066000
v 0.177500 0.049000 -0.070000
v 0.177500 0.171000 -0.070000
vt 1.000000 1.000000
vt 1.000000 0.000000
vt 0.000000 0.076389
vt 0.000000 0.923611
f 429/429 430/430 431/431 432/432
g runtime_clock
usemtl screen
v 0.177500 0.049000 -0.072000
v 0.176815 0.044674 -0.072000
v 0.174826 0.040771 -0.072000
v 0.171729 0.037674 -0.072000
v 0.167826 0.035685 -0.072000
v 0.163500 0.035000 -0.072000
v -0.163500 0.035000 -0.072000
v -0.167826 0.035685 -0.072000
v -0.171729 0.037674 -0.072000
v -0.174826 0.040771 -0.072000
v -0.176815 0.044674 -0.072000
v -0.177500 0.049000 -0.072000
v -0.177500 0.171000 -0.072000
v -0.176815 0.175326 -0.072000
v -0.174826 0.179229 -0.072000
v -0.171729 0.182326 -0.072000
v -0.167826 0.184315 -0.072000
v -0.163500 0.185000 -0.072000
v 0.163500 0.185000 -0.072000
v 0.167826 0.184315 -0.072000
v 0.171729 0.182326 -0.072000
v 0.174826 0.179229 -0.072000
v 0.176815 0.175326 -0.072000
v 0.177500 0.171000 -0.072000
vt 1.000000 0.093333
vt 0.998070 0.064492
vt 0.992468 0.038473
vt 0.983744 0.017825
vt 0.972750 0.004568
vt 0.960563 0.000000
vt 0.039437 0.000000
vt 0.027250 0.004568
vt 0.016256 0.017825
vt 0.007532 0.038473
vt 0.001930 0.064492
vt 0.000000 0.093333
vt 0.000000 0.906667
vt 0.001930 0.935508
vt 0.007532 0.961527
vt 0.016256 0.982175
vt 0.027250 0.995432
vt 0.039437 1.000000
vt 0.960563 1.000000
vt 0.972750 0.995432
vt 0.983744 0.982175
vt 0.992468 0.961527
vt 0.998070 0.935508
vt 1.000000 0.906667
f 433/433 434/434 435/435 436/436 437/437 438/438 439/439 440/440 441/441 442/442 443/443 444/444 445/445 446/446 447/447 448/448 449/449 450/450 451/451 452/452 453/453 454/454 455/455 456/456
