# Rounded authored office prop; metres, Y-up
mtllib refined_palette.mtl
s 1
g sign_base
usemtl brass
v 0.308200 0.000000 0.076400
v 0.307378 0.000000 0.081591
v 0.304991 0.000000 0.086275
v 0.301275 0.000000 0.089991
v 0.296591 0.000000 0.092378
v 0.291400 0.000000 0.093200
v -0.291400 0.000000 0.093200
v -0.296591 0.000000 0.092378
v -0.301275 0.000000 0.089991
v -0.304991 0.000000 0.086275
v -0.307378 0.000000 0.081591
v -0.308200 0.000000 0.076400
v -0.308200 0.000000 -0.076400
v -0.307378 0.000000 -0.081591
v -0.304991 0.000000 -0.086275
v -0.301275 0.000000 -0.089991
v -0.296591 0.000000 -0.092378
v -0.291400 0.000000 -0.093200
v 0.291400 0.000000 -0.093200
v 0.296591 0.000000 -0.092378
v 0.301275 0.000000 -0.089991
v 0.304991 0.000000 -0.086275
v 0.307378 0.000000 -0.081591
v 0.308200 0.000000 -0.076400
vt 1.000000 0.909871
vt 0.998666 0.937723
vt 0.994795 0.962848
vt 0.988765 0.982787
vt 0.981167 0.995589
vt 0.972745 1.000000
vt 0.027255 1.000000
vt 0.018833 0.995589
vt 0.011235 0.982787
vt 0.005205 0.962848
vt 0.001334 0.937723
vt 0.000000 0.909871
vt 0.000000 0.090129
vt 0.001334 0.062277
vt 0.005205 0.037152
vt 0.011235 0.017213
vt 0.018833 0.004411
vt 0.027255 0.000000
vt 0.972745 0.000000
vt 0.981167 0.004411
vt 0.988765 0.017213
vt 0.994795 0.037152
vt 0.998666 0.062277
vt 1.000000 0.090129
f 1/1 2/2 3/3 4/4 5/5 6/6 7/7 8/8 9/9 10/10 11/11 12/12 13/13 14/14 15/15 16/16 17/17 18/18 19/19 20/20 21/21 22/22 23/23 24/24
v 0.308200 0.048000 -0.076400
v 0.307378 0.048000 -0.081591
v 0.304991 0.048000 -0.086275
v 0.301275 0.048000 -0.089991
v 0.296591 0.048000 -0.092378
v 0.291400 0.048000 -0.093200
v -0.291400 0.048000 -0.093200
v -0.296591 0.048000 -0.092378
v -0.301275 0.048000 -0.089991
v -0.304991 0.048000 -0.086275
v -0.307378 0.048000 -0.081591
v -0.308200 0.048000 -0.076400
v -0.308200 0.048000 0.076400
v -0.307378 0.048000 0.081591
v -0.304991 0.048000 0.086275
v -0.301275 0.048000 0.089991
v -0.296591 0.048000 0.092378
v -0.291400 0.048000 0.093200
v 0.291400 0.048000 0.093200
v 0.296591 0.048000 0.092378
v 0.301275 0.048000 0.089991
v 0.304991 0.048000 0.086275
v 0.307378 0.048000 0.081591
v 0.308200 0.048000 0.076400
vt 1.000000 0.090129
vt 0.998666 0.062277
vt 0.994795 0.037152
vt 0.988765 0.017213
vt 0.981167 0.004411
vt 0.972745 0.000000
vt 0.027255 0.000000
vt 0.018833 0.004411
vt 0.011235 0.017213
vt 0.005205 0.037152
vt 0.001334 0.062277
vt 0.000000 0.090129
vt 0.000000 0.909871
vt 0.001334 0.937723
vt 0.005205 0.962848
vt 0.011235 0.982787
vt 0.018833 0.995589
vt 0.027255 1.000000
vt 0.972745 1.000000
vt 0.981167 0.995589
vt 0.988765 0.982787
vt 0.994795 0.962848
vt 0.998666 0.937723
vt 1.000000 0.909871
f 25/25 26/26 27/27 28/28 29/29 30/30 31/31 32/32 33/33 34/34 35/35 36/36 37/37 38/38 39/39 40/40 41/41 42/42 43/43 44/44 45/45 46/46 47/47 48/48
v 0.308200 0.000000 -0.076400
v 0.307378 0.000000 -0.081591
v 0.323355 0.016800 -0.086783
v 0.325000 0.016800 -0.076400
vt 0.046660 0.000000
vt 0.000000 0.000000
vt 0.906680 1.000000
vt 1.000000 1.000000
f 49/49 50/50 51/51 52/52
v 0.307378 0.000000 -0.081591
v 0.304991 0.000000 -0.086275
v 0.318583 0.016800 -0.096150
v 0.323355 0.016800 -0.086783
vt 0.129942 0.000000
vt 0.000000 0.000000
vt 0.740115 1.000000
vt 1.000000 1.000000
f 53/53 54/54 55/55 56/56
v 0.304991 0.000000 -0.086275
v 0.301275 0.000000 -0.089991
v 0.311150 0.016800 -0.103583
v 0.318583 0.016800 -0.096150
vt 0.214736 1.000000
vt 0.000000 0.785264
vt 0.570528 0.000000
vt 1.000000 0.429472
f 57/57 58/58 59/59 60/60
v 0.301275 0.000000 -0.089991
v 0.296591 0.000000 -0.092378
v 0.301783 0.016800 -0.108355
v 0.311150 0.016800 -0.103583
vt 1.000000 0.000000
vt 0.870058 0.000000
vt 0.000000 1.000000
vt 0.259885 1.000000
f 61/61 62/62 63/63 64/64
v 0.296591 0.000000 -0.092378
v 0.291400 0.000000 -0.093200
v 0.291400 0.016800 -0.110000
v 0.301783 0.016800 -0.108355
vt 1.000000 0.000000
vt 0.953340 0.000000
vt 0.000000 1.000000
vt 0.093320 1.000000
f 65/65 66/66 67/67 68/68
v 0.291400 0.000000 -0.093200
v -0.291400 0.000000 -0.093200
v -0.291400 0.016800 -0.110000
v 0.291400 0.016800 -0.110000
vt 1.000000 0.000000
vt 0.000000 0.000000
vt 0.000000 1.000000
vt 1.000000 1.000000
f 69/69 70/70 71/71 72/72
v -0.291400 0.000000 -0.093200
v -0.296591 0.000000 -0.092378
v -0.301783 0.016800 -0.108355
v -0.291400 0.016800 -0.110000
vt 0.953340 0.000000
vt 1.000000 0.000000
vt 0.093320 1.000000
vt 0.000000 1.000000
f 73/73 74/74 75/75 76/76
v -0.296591 0.000000 -0.092378
v -0.301275 0.000000 -0.089991
v -0.311150 0.016800 -0.103583
v -0.301783 0.016800 -0.108355
vt 0.870058 0.000000
vt 1.000000 0.000000
vt 0.259885 1.000000
vt 0.000000 1.000000
f 77/77 78/78 79/79 80/80
v -0.301275 0.000000 -0.089991
v -0.304991 0.000000 -0.086275
v -0.318583 0.016800 -0.096150
v -0.311150 0.016800 -0.103583
vt 1.000000 0.785264
vt 0.785264 1.000000
vt 0.000000 0.429472
vt 0.429472 0.000000
f 81/81 82/82 83/83 84/84
v -0.304991 0.000000 -0.086275
v -0.307378 0.000000 -0.081591
v -0.323355 0.016800 -0.086783
v -0.318583 0.016800 -0.096150
vt 1.000000 0.000000
vt 0.870058 0.000000
vt 0.000000 1.000000
vt 0.259885 1.000000
f 85/85 86/86 87/87 88/88
v -0.307378 0.000000 -0.081591
v -0.308200 0.000000 -0.076400
v -0.325000 0.016800 -0.076400
v -0.323355 0.016800 -0.086783
vt 1.000000 0.000000
vt 0.953340 0.000000
vt 0.000000 1.000000
vt 0.093320 1.000000
f 89/89 90/90 91/91 92/92
v -0.308200 0.000000 -0.076400
v -0.308200 0.000000 0.076400
v -0.325000 0.016800 0.076400
v -0.325000 0.016800 -0.076400
vt 0.000000 0.000000
vt 1.000000 0.000000
vt 1.000000 1.000000
vt 0.000000 1.000000
f 93/93 94/94 95/95 96/96
v -0.308200 0.000000 0.076400
v -0.307378 0.000000 0.081591
v -0.323355 0.016800 0.086783
v -0.325000 0.016800 0.076400
vt 0.953340 0.000000
vt 1.000000 0.000000
vt 0.093320 1.000000
vt 0.000000 1.000000
f 97/97 98/98 99/99 100/100
v -0.307378 0.000000 0.081591
v -0.304991 0.000000 0.086275
v -0.318583 0.016800 0.096150
v -0.323355 0.016800 0.086783
vt 0.870058 0.000000
vt 1.000000 0.000000
vt 0.259885 1.000000
vt 0.000000 1.000000
f 101/101 102/102 103/103 104/104
v -0.304991 0.000000 0.086275
v -0.301275 0.000000 0.089991
v -0.311150 0.016800 0.103583
v -0.318583 0.016800 0.096150
vt 0.785264 0.000000
vt 1.000000 0.214736
vt 0.429472 1.000000
vt 0.000000 0.570528
f 105/105 106/106 107/107 108/108
v -0.301275 0.000000 0.089991
v -0.296591 0.000000 0.092378
v -0.301783 0.016800 0.108355
v -0.311150 0.016800 0.103583
vt 0.000000 0.000000
vt 0.129942 0.000000
vt 1.000000 1.000000
vt 0.740115 1.000000
f 109/109 110/110 111/111 112/112
v -0.296591 0.000000 0.092378
v -0.291400 0.000000 0.093200
v -0.291400 0.016800 0.110000
v -0.301783 0.016800 0.108355
vt 0.000000 0.000000
vt 0.046660 0.000000
vt 1.000000 1.000000
vt 0.906680 1.000000
f 113/113 114/114 115/115 116/116
v -0.291400 0.000000 0.093200
v 0.291400 0.000000 0.093200
v 0.291400 0.016800 0.110000
v -0.291400 0.016800 0.110000
vt 0.000000 0.000000
vt 1.000000 0.000000
vt 1.000000 1.000000
vt 0.000000 1.000000
f 117/117 118/118 119/119 120/120
v 0.291400 0.000000 0.093200
v 0.296591 0.000000 0.092378
v 0.301783 0.016800 0.108355
v 0.291400 0.016800 0.110000
vt 0.046660 0.000000
vt 0.000000 0.000000
vt 0.906680 1.000000
vt 1.000000 1.000000
f 121/121 122/122 123/123 124/124
v 0.296591 0.000000 0.092378
v 0.301275 0.000000 0.089991
v 0.311150 0.016800 0.103583
v 0.301783 0.016800 0.108355
vt 0.129942 0.000000
vt 0.000000 0.000000
vt 0.740115 1.000000
vt 1.000000 1.000000
f 125/125 126/126 127/127 128/128
v 0.301275 0.000000 0.089991
v 0.304991 0.000000 0.086275
v 0.318583 0.016800 0.096150
v 0.311150 0.016800 0.103583
vt 0.000000 0.214736
vt 0.214736 0.000000
vt 1.000000 0.570528
vt 0.570528 1.000000
f 129/129 130/130 131/131 132/132
v 0.304991 0.000000 0.086275
v 0.307378 0.000000 0.081591
v 0.323355 0.016800 0.086783
v 0.318583 0.016800 0.096150
vt 0.000000 0.000000
vt 0.129942 0.000000
vt 1.000000 1.000000
vt 0.740115 1.000000
f 133/133 134/134 135/135 136/136
v 0.307378 0.000000 0.081591
v 0.308200 0.000000 0.076400
v 0.325000 0.016800 0.076400
v 0.323355 0.016800 0.086783
vt 0.000000 0.000000
vt 0.046660 0.000000
vt 1.000000 1.000000
vt 0.906680 1.000000
f 137/137 138/138 139/139 140/140
v 0.308200 0.000000 0.076400
v 0.308200 0.000000 -0.076400
v 0.325000 0.016800 -0.076400
v 0.325000 0.016800 0.076400
vt 1.000000 0.000000
vt 0.000000 0.000000
vt 0.000000 1.000000
vt 1.000000 1.000000
f 141/141 142/142 143/143 144/144
v 0.325000 0.016800 -0.076400
v 0.323355 0.016800 -0.086783
v 0.323355 0.031200 -0.086783
v 0.325000 0.031200 -0.076400
vt 1.000000 0.000000
vt 0.000000 0.000000
vt 0.000000 1.000000
vt 1.000000 1.000000
f 145/145 146/146 147/147 148/148
v 0.323355 0.016800 -0.086783
v 0.318583 0.016800 -0.096150
v 0.318583 0.031200 -0.096150
v 0.323355 0.031200 -0.086783
vt 1.000000 0.000000
vt 0.000000 0.000000
vt 0.000000 1.000000
vt 1.000000 1.000000
f 149/149 150/150 151/151 152/152
v 0.318583 0.016800 -0.096150
v 0.311150 0.016800 -0.103583
v 0.311150 0.031200 -0.103583
v 0.318583 0.031200 -0.096150
vt 1.000000 0.000000
vt 0.000000 0.000000
vt 0.000000 1.000000
vt 1.000000 1.000000
f 153/153 154/154 155/155 156/156
v 0.311150 0.016800 -0.103583
v 0.301783 0.016800 -0.108355
v 0.301783 0.031200 -0.108355
v 0.311150 0.031200 -0.103583
vt 1.000000 0.000000
vt 0.000000 0.000000
vt 0.000000 1.000000
vt 1.000000 1.000000
f 157/157 158/158 159/159 160/160
v 0.301783 0.016800 -0.108355
v 0.291400 0.016800 -0.110000
v 0.291400 0.031200 -0.110000
v 0.301783 0.031200 -0.108355
vt 1.000000 0.000000
vt 0.000000 0.000000
vt 0.000000 1.000000
vt 1.000000 1.000000
f 161/161 162/162 163/163 164/164
v 0.291400 0.016800 -0.110000
v -0.291400 0.016800 -0.110000
v -0.291400 0.031200 -0.110000
v 0.291400 0.031200 -0.110000
vt 1.000000 0.000000
vt 0.000000 0.000000
vt 0.000000 1.000000
vt 1.000000 1.000000
f 165/165 166/166 167/167 168/168
v -0.291400 0.016800 -0.110000
v -0.301783 0.016800 -0.108355
v -0.301783 0.031200 -0.108355
v -0.291400 0.031200 -0.110000
vt 1.000000 0.000000
vt 0.000000 0.000000
vt 0.000000 1.000000
vt 1.000000 1.000000
f 169/169 170/170 171/171 172/172
v -0.301783 0.016800 -0.108355
v -0.311150 0.016800 -0.103583
v -0.311150 0.031200 -0.103583
v -0.301783 0.031200 -0.108355
vt 1.000000 0.000000
vt 0.000000 0.000000
vt 0.000000 1.000000
vt 1.000000 1.000000
f 173/173 174/174 175/175 176/176
v -0.311150 0.016800 -0.103583
v -0.318583 0.016800 -0.096150
v -0.318583 0.031200 -0.096150
v -0.311150 0.031200 -0.103583
vt 1.000000 0.000000
vt 0.000000 0.000000
vt 0.000000 1.000000
vt 1.000000 1.000000
f 177/177 178/178 179/179 180/180
v -0.318583 0.016800 -0.096150
v -0.323355 0.016800 -0.086783
v -0.323355 0.031200 -0.086783
v -0.318583 0.031200 -0.096150
vt 0.000000 0.000000
vt 1.000000 0.000000
vt 1.000000 1.000000
vt 0.000000 1.000000
f 181/181 182/182 183/183 184/184
v -0.323355 0.016800 -0.086783
v -0.325000 0.016800 -0.076400
v -0.325000 0.031200 -0.076400
v -0.323355 0.031200 -0.086783
vt 0.000000 0.000000
vt 1.000000 0.000000
vt 1.000000 1.000000
vt 0.000000 1.000000
f 185/185 186/186 187/187 188/188
v -0.325000 0.016800 -0.076400
v -0.325000 0.016800 0.076400
v -0.325000 0.031200 0.076400
v -0.325000 0.031200 -0.076400
vt 0.000000 0.000000
vt 1.000000 0.000000
vt 1.000000 1.000000
vt 0.000000 1.000000
f 189/189 190/190 191/191 192/192
v -0.325000 0.016800 0.076400
v -0.323355 0.016800 0.086783
v -0.323355 0.031200 0.086783
v -0.325000 0.031200 0.076400
vt 0.000000 0.000000
vt 1.000000 0.000000
vt 1.000000 1.000000
vt 0.000000 1.000000
f 193/193 194/194 195/195 196/196
v -0.323355 0.016800 0.086783
v -0.318583 0.016800 0.096150
v -0.318583 0.031200 0.096150
v -0.323355 0.031200 0.086783
vt 0.000000 0.000000
vt 1.000000 0.000000
vt 1.000000 1.000000
vt 0.000000 1.000000
f 197/197 198/198 199/199 200/200
v -0.318583 0.016800 0.096150
v -0.311150 0.016800 0.103583
v -0.311150 0.031200 0.103583
v -0.318583 0.031200 0.096150
vt 0.000000 0.000000
vt 1.000000 0.000000
vt 1.000000 1.000000
vt 0.000000 1.000000
f 201/201 202/202 203/203 204/204
v -0.311150 0.016800 0.103583
v -0.301783 0.016800 0.108355
v -0.301783 0.031200 0.108355
v -0.311150 0.031200 0.103583
vt 0.000000 0.000000
vt 1.000000 0.000000
vt 1.000000 1.000000
vt 0.000000 1.000000
f 205/205 206/206 207/207 208/208
v -0.301783 0.016800 0.108355
v -0.291400 0.016800 0.110000
v -0.291400 0.031200 0.110000
v -0.301783 0.031200 0.108355
vt 0.000000 0.000000
vt 1.000000 0.000000
vt 1.000000 1.000000
vt 0.000000 1.000000
f 209/209 210/210 211/211 212/212
v -0.291400 0.016800 0.110000
v 0.291400 0.016800 0.110000
v 0.291400 0.031200 0.110000
v -0.291400 0.031200 0.110000
vt 0.000000 0.000000
vt 1.000000 0.000000
vt 1.000000 1.000000
vt 0.000000 1.000000
f 213/213 214/214 215/215 216/216
v 0.291400 0.016800 0.110000
v 0.301783 0.016800 0.108355
v 0.301783 0.031200 0.108355
v 0.291400 0.031200 0.110000
vt 0.000000 0.000000
vt 1.000000 0.000000
vt 1.000000 1.000000
vt 0.000000 1.000000
f 217/217 218/218 219/219 220/220
v 0.301783 0.016800 0.108355
v 0.311150 0.016800 0.103583
v 0.311150 0.031200 0.103583
v 0.301783 0.031200 0.108355
vt 0.000000 0.000000
vt 1.000000 0.000000
vt 1.000000 1.000000
vt 0.000000 1.000000
f 221/221 222/222 223/223 224/224
v 0.311150 0.016800 0.103583
v 0.318583 0.016800 0.096150
v 0.318583 0.031200 0.096150
v 0.311150 0.031200 0.103583
vt 0.000000 0.000000
vt 1.000000 0.000000
vt 1.000000 1.000000
vt 0.000000 1.000000
f 225/225 226/226 227/227 228/228
v 0.318583 0.016800 0.096150
v 0.323355 0.016800 0.086783
v 0.323355 0.031200 0.086783
v 0.318583 0.031200 0.096150
vt 1.000000 0.000000
vt 0.000000 0.000000
vt 0.000000 1.000000
vt 1.000000 1.000000
f 229/229 230/230 231/231 232/232
v 0.323355 0.016800 0.086783
v 0.325000 0.016800 0.076400
v 0.325000 0.031200 0.076400
v 0.323355 0.031200 0.086783
vt 1.000000 0.000000
vt 0.000000 0.000000
vt 0.000000 1.000000
vt 1.000000 1.000000
f 233/233 234/234 235/235 236/236
v 0.325000 0.016800 0.076400
v 0.325000 0.016800 -0.076400
v 0.325000 0.031200 -0.076400
v 0.325000 0.031200 0.076400
vt 1.000000 0.000000
vt 0.000000 0.000000
vt 0.000000 1.000000
vt 1.000000 1.000000
f 237/237 238/238 239/239 240/240
v 0.325000 0.031200 -0.076400
v 0.323355 0.031200 -0.086783
v 0.307378 0.048000 -0.081591
v 0.308200 0.048000 -0.076400
vt 1.000000 0.000000
vt 0.906680 0.000000
vt 0.000000 1.000000
vt 0.046660 1.000000
f 241/241 242/242 243/243 244/244
v 0.323355 0.031200 -0.086783
v 0.318583 0.031200 -0.096150
v 0.304991 0.048000 -0.086275
v 0.307378 0.048000 -0.081591
vt 1.000000 0.000000
vt 0.740115 0.000000
vt 0.000000 1.000000
vt 0.129942 1.000000
f 245/245 246/246 247/247 248/248
v 0.318583 0.031200 -0.096150
v 0.311150 0.031200 -0.103583
v 0.301275 0.048000 -0.089991
v 0.304991 0.048000 -0.086275
vt 1.000000 0.429472
vt 0.570528 0.000000
vt 0.000000 0.785264
vt 0.214736 1.000000
f 249/249 250/250 251/251 252/252
v 0.311150 0.031200 -0.103583
v 0.301783 0.031200 -0.108355
v 0.296591 0.048000 -0.092378
v 0.301275 0.048000 -0.089991
vt 0.259885 0.000000
vt 0.000000 0.000000
vt 0.870058 1.000000
vt 1.000000 1.000000
f 253/253 254/254 255/255 256/256
v 0.301783 0.031200 -0.108355
v 0.291400 0.031200 -0.110000
v 0.291400 0.048000 -0.093200
v 0.296591 0.048000 -0.092378
vt 0.093320 0.000000
vt 0.000000 0.000000
vt 0.953340 1.000000
vt 1.000000 1.000000
f 257/257 258/258 259/259 260/260
v 0.291400 0.031200 -0.110000
v -0.291400 0.031200 -0.110000
v -0.291400 0.048000 -0.093200
v 0.291400 0.048000 -0.093200
vt 1.000000 0.000000
vt 0.000000 0.000000
vt 0.000000 1.000000
vt 1.000000 1.000000
f 261/261 262/262 263/263 264/264
v -0.291400 0.031200 -0.110000
v -0.301783 0.031200 -0.108355
v -0.296591 0.048000 -0.092378
v -0.291400 0.048000 -0.093200
vt 0.000000 0.000000
vt 0.093320 0.000000
vt 1.000000 1.000000
vt 0.953340 1.000000
f 265/265 266/266 267/267 268/268
v -0.301783 0.031200 -0.108355
v -0.311150 0.031200 -0.103583
v -0.301275 0.048000 -0.089991
v -0.296591 0.048000 -0.092378
vt 0.000000 0.000000
vt 0.259885 0.000000
vt 1.000000 1.000000
vt 0.870058 1.000000
f 269/269 270/270 271/271 272/272
v -0.311150 0.031200 -0.103583
v -0.318583 0.031200 -0.096150
v -0.304991 0.048000 -0.086275
v -0.301275 0.048000 -0.089991
vt 0.429472 0.000000
vt 0.000000 0.429472
vt 0.785264 1.000000
vt 1.000000 0.785264
f 273/273 274/274 275/275 276/276
v -0.318583 0.031200 -0.096150
v -0.323355 0.031200 -0.086783
v -0.307378 0.048000 -0.081591
v -0.304991 0.048000 -0.086275
vt 0.259885 0.000000
vt 0.000000 0.000000
vt 0.870058 1.000000
vt 1.000000 1.000000
f 277/277 278/278 279/279 280/280
v -0.323355 0.031200 -0.086783
v -0.325000 0.031200 -0.076400
v -0.308200 0.048000 -0.076400
v -0.307378 0.048000 -0.081591
vt 0.093320 0.000000
vt 0.000000 0.000000
vt 0.953340 1.000000
vt 1.000000 1.000000
f 281/281 282/282 283/283 284/284
v -0.325000 0.031200 -0.076400
v -0.325000 0.031200 0.076400
v -0.308200 0.048000 0.076400
v -0.308200 0.048000 -0.076400
vt 0.000000 0.000000
vt 1.000000 0.000000
vt 1.000000 1.000000
vt 0.000000 1.000000
f 285/285 286/286 287/287 288/288
v -0.325000 0.031200 0.076400
v -0.323355 0.031200 0.086783
v -0.307378 0.048000 0.081591
v -0.308200 0.048000 0.076400
vt 0.000000 0.000000
vt 0.093320 0.000000
vt 1.000000 1.000000
vt 0.953340 1.000000
f 289/289 290/290 291/291 292/292
v -0.323355 0.031200 0.086783
v -0.318583 0.031200 0.096150
v -0.304991 0.048000 0.086275
v -0.307378 0.048000 0.081591
vt 0.000000 0.000000
vt 0.259885 0.000000
vt 1.000000 1.000000
vt 0.870058 1.000000
f 293/293 294/294 295/295 296/296
v -0.318583 0.031200 0.096150
v -0.311150 0.031200 0.103583
v -0.301275 0.048000 0.089991
v -0.304991 0.048000 0.086275
vt 0.000000 0.570528
vt 0.429472 1.000000
vt 1.000000 0.214736
vt 0.785264 0.000000
f 297/297 298/298 299/299 300/300
v -0.311150 0.031200 0.103583
v -0.301783 0.031200 0.108355
v -0.296591 0.048000 0.092378
v -0.301275 0.048000 0.089991
vt 0.740115 0.000000
vt 1.000000 0.000000
vt 0.129942 1.000000
vt 0.000000 1.000000
f 301/301 302/302 303/303 304/304
v -0.301783 0.031200 0.108355
v -0.291400 0.031200 0.110000
v -0.291400 0.048000 0.093200
v -0.296591 0.048000 0.092378
vt 0.906680 0.000000
vt 1.000000 0.000000
vt 0.046660 1.000000
vt 0.000000 1.000000
f 305/305 306/306 307/307 308/308
v -0.291400 0.031200 0.110000
v 0.291400 0.031200 0.110000
v 0.291400 0.048000 0.093200
v -0.291400 0.048000 0.093200
vt 0.000000 0.000000
vt 1.000000 0.000000
vt 1.000000 1.000000
vt 0.000000 1.000000
f 309/309 310/310 311/311 312/312
v 0.291400 0.031200 0.110000
v 0.301783 0.031200 0.108355
v 0.296591 0.048000 0.092378
v 0.291400 0.048000 0.093200
vt 1.000000 0.000000
vt 0.906680 0.000000
vt 0.000000 1.000000
vt 0.046660 1.000000
f 313/313 314/314 315/315 316/316
v 0.301783 0.031200 0.108355
v 0.311150 0.031200 0.103583
v 0.301275 0.048000 0.089991
v 0.296591 0.048000 0.092378
vt 1.000000 0.000000
vt 0.740115 0.000000
vt 0.000000 1.000000
vt 0.129942 1.000000
f 317/317 318/318 319/319 320/320
v 0.311150 0.031200 0.103583
v 0.318583 0.031200 0.096150
v 0.304991 0.048000 0.086275
v 0.301275 0.048000 0.089991
vt 0.570528 1.000000
vt 1.000000 0.570528
vt 0.214736 0.000000
vt 0.000000 0.214736
f 321/321 322/322 323/323 324/324
v 0.318583 0.031200 0.096150
v 0.323355 0.031200 0.086783
v 0.307378 0.048000 0.081591
v 0.304991 0.048000 0.086275
vt 0.740115 0.000000
vt 1.000000 0.000000
vt 0.129942 1.000000
vt 0.000000 1.000000
f 325/325 326/326 327/327 328/328
v 0.323355 0.031200 0.086783
v 0.325000 0.031200 0.076400
v 0.308200 0.048000 0.076400
v 0.307378 0.048000 0.081591
vt 0.906680 0.000000
vt 1.000000 0.000000
vt 0.046660 1.000000
vt 0.000000 1.000000
f 329/329 330/330 331/331 332/332
v 0.325000 0.031200 0.076400
v 0.325000 0.031200 -0.076400
v 0.308200 0.048000 -0.076400
v 0.308200 0.048000 0.076400
vt 1.000000 0.000000
vt 0.000000 0.000000
vt 0.000000 1.000000
vt 1.000000 1.000000
f 333/333 334/334 335/335 336/336
g sign_casing
usemtl ivory
v 0.275000 0.075000 -0.030000
v 0.273776 0.067275 -0.030000
v 0.270225 0.060305 -0.030000
v 0.264695 0.054775 -0.030000
v 0.257725 0.051224 -0.030000
v 0.250000 0.050000 -0.030000
v -0.250000 0.050000 -0.030000
v -0.257725 0.051224 -0.030000
v -0.264695 0.054775 -0.030000
v -0.270225 0.060305 -0.030000
v -0.273776 0.067275 -0.030000
v -0.275000 0.075000 -0.030000
v -0.275000 0.205000 -0.030000
v -0.273776 0.212725 -0.030000
v -0.270225 0.219695 -0.030000
v -0.264695 0.225225 -0.030000
v -0.257725 0.228776 -0.030000
v -0.250000 0.230000 -0.030000
v 0.250000 0.230000 -0.030000
v 0.257725 0.228776 -0.030000
v 0.264695 0.225225 -0.030000
v 0.270225 0.219695 -0.030000
v 0.273776 0.212725 -0.030000
v 0.275000 0.205000 -0.030000
vt 1.000000 0.138889
vt 0.997775 0.095970
vt 0.991319 0.057252
vt 0.981263 0.026525
vt 0.968592 0.006798
vt 0.954545 0.000000
vt 0.045455 0.000000
vt 0.031408 0.006798
vt 0.018737 0.026525
vt 0.008681 0.057252
vt 0.002225 0.095970
vt 0.000000 0.138889
vt 0.000000 0.861111
vt 0.002225 0.904030
vt 0.008681 0.942748
vt 0.018737 0.973475
vt 0.031408 0.993202
vt 0.045455 1.000000
vt 0.954545 1.000000
vt 0.968592 0.993202
vt 0.981263 0.973475
vt 0.991319 0.942748
vt 0.997775 0.904030
vt 1.000000 0.861111
f 337/337 338/338 339/339 340/340 341/341 342/342 343/343 344/344 345/345 346/346 347/347 348/348 349/349 350/350 351/351 352/352 353/353 354/354 355/355 356/356 357/357 358/358 359/359 360/360
v 0.275000 0.205000 0.060000
v 0.273776 0.212725 0.060000
v 0.270225 0.219695 0.060000
v 0.264695 0.225225 0.060000
v 0.257725 0.228776 0.060000
v 0.250000 0.230000 0.060000
v -0.250000 0.230000 0.060000
v -0.257725 0.228776 0.060000
v -0.264695 0.225225 0.060000
v -0.270225 0.219695 0.060000
v -0.273776 0.212725 0.060000
v -0.275000 0.205000 0.060000
v -0.275000 0.075000 0.060000
v -0.273776 0.067275 0.060000
v -0.270225 0.060305 0.060000
v -0.264695 0.054775 0.060000
v -0.257725 0.051224 0.060000
v -0.250000 0.050000 0.060000
v 0.250000 0.050000 0.060000
v 0.257725 0.051224 0.060000
v 0.264695 0.054775 0.060000
v 0.270225 0.060305 0.060000
v 0.273776 0.067275 0.060000
v 0.275000 0.075000 0.060000
vt 1.000000 0.861111
vt 0.997775 0.904030
vt 0.991319 0.942748
vt 0.981263 0.973475
vt 0.968592 0.993202
vt 0.954545 1.000000
vt 0.045455 1.000000
vt 0.031408 0.993202
vt 0.018737 0.973475
vt 0.008681 0.942748
vt 0.002225 0.904030
vt 0.000000 0.861111
vt 0.000000 0.138889
vt 0.002225 0.095970
vt 0.008681 0.057252
vt 0.018737 0.026525
vt 0.031408 0.006798
vt 0.045455 0.000000
vt 0.954545 0.000000
vt 0.968592 0.006798
vt 0.981263 0.026525
vt 0.991319 0.057252
vt 0.997775 0.095970
vt 1.000000 0.138889
f 361/361 362/362 363/363 364/364 365/365 366/366 367/367 368/368 369/369 370/370 371/371 372/372 373/373 374/374 375/375 376/376 377/377 378/378 379/379 380/380 381/381 382/382 383/383 384/384
v 0.275000 0.205000 -0.030000
v 0.273776 0.212725 -0.030000
v 0.297553 0.220451 -0.005000
v 0.300000 0.205000 -0.005000
vt 0.046660 0.000000
vt 0.000000 0.000000
vt 0.906680 1.000000
vt 1.000000 1.000000
f 385/385 386/386 387/387 388/388
v 0.273776 0.212725 -0.030000
v 0.270225 0.219695 -0.030000
v 0.290451 0.234389 -0.005000
v 0.297553 0.220451 -0.005000
vt 0.129942 0.000000
vt 0.000000 0.000000
vt 0.740115 1.000000
vt 1.000000 1.000000
f 389/389 390/390 391/391 392/392
v 0.270225 0.219695 -0.030000
v 0.264695 0.225225 -0.030000
v 0.279389 0.245451 -0.005000
v 0.290451 0.234389 -0.005000
vt 0.214736 0.000000
vt 0.000000 0.214736
vt 0.570528 1.000000
vt 1.000000 0.570528
f 393/393 394/394 395/395 396/396
v 0.264695 0.225225 -0.030000
v 0.257725 0.228776 -0.030000
v 0.265451 0.252553 -0.005000
v 0.279389 0.245451 -0.005000
vt 0.000000 0.000000
vt 0.000000 0.129942
vt 1.000000 1.000000
vt 1.000000 0.740115
f 397/397 398/398 399/399 400/400
v 0.257725 0.228776 -0.030000
v 0.250000 0.230000 -0.030000
v 0.250000 0.255000 -0.005000
v 0.265451 0.252553 -0.005000
vt 0.000000 0.000000
vt 0.000000 0.046660
vt 1.000000 1.000000
vt 1.000000 0.906680
f 401/401 402/402 403/403 404/404
v 0.250000 0.230000 -0.030000
v -0.250000 0.230000 -0.030000
v -0.250000 0.255000 -0.005000
v 0.250000 0.255000 -0.005000
vt 1.000000 0.000000
vt 0.000000 0.000000
vt 0.000000 1.000000
vt 1.000000 1.000000
f 405/405 406/406 407/407 408/408
v -0.250000 0.230000 -0.030000
v -0.257725 0.228776 -0.030000
v -0.265451 0.252553 -0.005000
v -0.250000 0.255000 -0.005000
vt 0.000000 0.046660
vt 0.000000 0.000000
vt 1.000000 0.906680
vt 1.000000 1.000000
f 409/409 410/410 411/411 412/412
v -0.257725 0.228776 -0.030000
v -0.264695 0.225225 -0.030000
v -0.279389 0.245451 -0.005000
v -0.265451 0.252553 -0.005000
vt 0.000000 0.129942
vt 0.000000 0.000000
vt 1.000000 0.740115
vt 1.000000 1.000000
f 413/413 414/414 415/415 416/416
v -0.264695 0.225225 -0.030000
v -0.270225 0.219695 -0.030000
v -0.290451 0.234389 -0.005000
v -0.279389 0.245451 -0.005000
vt 1.000000 0.214736
vt 0.785264 0.000000
vt 0.000000 0.570528
vt 0.429472 1.000000
f 417/417 418/418 419/419 420/420
v -0.270225 0.219695 -0.030000
v -0.273776 0.212725 -0.030000
v -0.297553 0.220451 -0.005000
v -0.290451 0.234389 -0.005000
vt 1.000000 0.000000
vt 0.870058 0.000000
vt 0.000000 1.000000
vt 0.259885 1.000000
f 421/421 422/422 423/423 424/424
v -0.273776 0.212725 -0.030000
v -0.275000 0.205000 -0.030000
v -0.300000 0.205000 -0.005000
v -0.297553 0.220451 -0.005000
vt 1.000000 0.000000
vt 0.953340 0.000000
vt 0.000000 1.000000
vt 0.093320 1.000000
f 425/425 426/426 427/427 428/428
v -0.275000 0.205000 -0.030000
v -0.275000 0.075000 -0.030000
v -0.300000 0.075000 -0.005000
v -0.300000 0.205000 -0.005000
vt 1.000000 1.000000
vt 1.000000 0.000000
vt 0.000000 0.000000
vt 0.000000 1.000000
f 429/429 430/430 431/431 432/432
v -0.275000 0.075000 -0.030000
v -0.273776 0.067275 -0.030000
v -0.297553 0.059549 -0.005000
v -0.300000 0.075000 -0.005000
vt 0.953340 0.000000
vt 1.000000 0.000000
vt 0.093320 1.000000
vt 0.000000 1.000000
f 433/433 434/434 435/435 436/436
v -0.273776 0.067275 -0.030000
v -0.270225 0.060305 -0.030000
v -0.290451 0.045611 -0.005000
v -0.297553 0.059549 -0.005000
vt 0.870058 0.000000
vt 1.000000 0.000000
vt 0.259885 1.000000
vt 0.000000 1.000000
f 437/437 438/438 439/439 440/440
v -0.270225 0.060305 -0.030000
v -0.264695 0.054775 -0.030000
v -0.279389 0.034549 -0.005000
v -0.290451 0.045611 -0.005000
vt 0.785264 1.000000
vt 1.000000 0.785264
vt 0.429472 0.000000
vt 0.000000 0.429472
f 441/441 442/442 443/443 444/444
v -0.264695 0.054775 -0.030000
v -0.257725 0.051224 -0.030000
v -0.265451 0.027447 -0.005000
v -0.279389 0.034549 -0.005000
vt 0.000000 1.000000
vt 0.000000 0.870058
vt 1.000000 0.000000
vt 1.000000 0.259885
f 445/445 446/446 447/447 448/448
v -0.257725 0.051224 -0.030000
v -0.250000 0.050000 -0.030000
v -0.250000 0.025000 -0.005000
v -0.265451 0.027447 -0.005000
vt 0.000000 1.000000
vt 0.000000 0.953340
vt 1.000000 0.000000
vt 1.000000 0.093320
f 449/449 450/450 451/451 452/452
v -0.250000 0.050000 -0.030000
v 0.250000 0.050000 -0.030000
v 0.250000 0.025000 -0.005000
v -0.250000 0.025000 -0.005000
vt 0.000000 1.000000
vt 1.000000 1.000000
vt 1.000000 0.000000
vt 0.000000 0.000000
f 453/453 454/454 455/455 456/456
v 0.250000 0.050000 -0.030000
v 0.257725 0.051224 -0.030000
v 0.265451 0.027447 -0.005000
v 0.250000 0.025000 -0.005000
vt 0.000000 0.953340
vt 0.000000 1.000000
vt 1.000000 0.093320
vt 1.000000 0.000000
f 457/457 458/458 459/459 460/460
v 0.257725 0.051224 -0.030000
v 0.264695 0.054775 -0.030000
v 0.279389 0.034549 -0.005000
v 0.265451 0.027447 -0.005000
vt 0.000000 0.870058
vt 0.000000 1.000000
vt 1.000000 0.259885
vt 1.000000 0.000000
f 461/461 462/462 463/463 464/464
v 0.264695 0.054775 -0.030000
v 0.270225 0.060305 -0.030000
v 0.290451 0.045611 -0.005000
v 0.279389 0.034549 -0.005000
vt 0.000000 0.785264
vt 0.214736 1.000000
vt 1.000000 0.429472
vt 0.570528 0.000000
f 465/465 466/466 467/467 468/468
v 0.270225 0.060305 -0.030000
v 0.273776 0.067275 -0.030000
v 0.297553 0.059549 -0.005000
v 0.290451 0.045611 -0.005000
vt 0.000000 0.000000
vt 0.129942 0.000000
vt 1.000000 1.000000
vt 0.740115 1.000000
f 469/469 470/470 471/471 472/472
v 0.273776 0.067275 -0.030000
v 0.275000 0.075000 -0.030000
v 0.300000 0.075000 -0.005000
v 0.297553 0.059549 -0.005000
vt 0.000000 0.000000
vt 0.046660 0.000000
vt 1.000000 1.000000
vt 0.906680 1.000000
f 473/473 474/474 475/475 476/476
v 0.275000 0.075000 -0.030000
v 0.275000 0.205000 -0.030000
v 0.300000 0.205000 -0.005000
v 0.300000 0.075000 -0.005000
vt 0.000000 0.000000
vt 0.000000 1.000000
vt 1.000000 1.000000
vt 1.000000 0.000000
f 477/477 478/478 479/479 480/480
v 0.300000 0.205000 -0.005000
v 0.297553 0.220451 -0.005000
v 0.297553 0.220451 0.035000
v 0.300000 0.205000 0.035000
vt 0.000000 0.000000
vt 0.000000 1.000000
vt 1.000000 1.000000
vt 1.000000 0.000000
f 481/481 482/482 483/483 484/484
v 0.297553 0.220451 -0.005000
v 0.290451 0.234389 -0.005000
v 0.290451 0.234389 0.035000
v 0.297553 0.220451 0.035000
vt 0.000000 0.000000
vt 0.000000 1.000000
vt 1.000000 1.000000
vt 1.000000 0.000000
f 485/485 486/486 487/487 488/488
v 0.290451 0.234389 -0.005000
v 0.279389 0.245451 -0.005000
v 0.279389 0.245451 0.035000
v 0.290451 0.234389 0.035000
vt 0.000000 0.000000
vt 0.000000 1.000000
vt 1.000000 1.000000
vt 1.000000 0.000000
f 489/489 490/490 491/491 492/492
v 0.279389 0.245451 -0.005000
v 0.265451 0.252553 -0.005000
v 0.265451 0.252553 0.035000
v 0.279389 0.245451 0.035000
vt 1.000000 0.000000
vt 0.000000 0.000000
vt 0.000000 1.000000
vt 1.000000 1.000000
f 493/493 494/494 495/495 496/496
v 0.265451 0.252553 -0.005000
v 0.250000 0.255000 -0.005000
v 0.250000 0.255000 0.035000
v 0.265451 0.252553 0.035000
vt 1.000000 0.000000
vt 0.000000 0.000000
vt 0.000000 1.000000
vt 1.000000 1.000000
f 497/497 498/498 499/499 500/500
v 0.250000 0.255000 -0.005000
v -0.250000 0.255000 -0.005000
v -0.250000 0.255000 0.035000
v 0.250000 0.255000 0.035000
vt 1.000000 0.000000
vt 0.000000 0.000000
vt 0.000000 1.000000
vt 1.000000 1.000000
f 501/501 502/502 503/503 504/504
v -0.250000 0.255000 -0.005000
v -0.265451 0.252553 -0.005000
v -0.265451 0.252553 0.035000
v -0.250000 0.255000 0.035000
vt 1.000000 0.000000
vt 0.000000 0.000000
vt 0.000000 1.000000
vt 1.000000 1.000000
f 505/505 506/506 507/507 508/508
v -0.265451 0.252553 -0.005000
v -0.279389 0.245451 -0.005000
v -0.279389 0.245451 0.035000
v -0.265451 0.252553 0.035000
vt 1.000000 0.000000
vt 0.000000 0.000000
vt 0.000000 1.000000
vt 1.000000 1.000000
f 509/509 510/510 511/511 512/512
v -0.279389 0.245451 -0.005000
v -0.290451 0.234389 -0.005000
v -0.290451 0.234389 0.035000
v -0.279389 0.245451 0.035000
vt 0.000000 1.000000
vt 0.000000 0.000000
vt 1.000000 0.000000
vt 1.000000 1.000000
f 513/513 514/514 515/515 516/516
v -0.290451 0.234389 -0.005000
v -0.297553 0.220451 -0.005000
v -0.297553 0.220451 0.035000
v -0.290451 0.234389 0.035000
vt 0.000000 1.000000
vt 0.000000 0.000000
vt 1.000000 0.000000
vt 1.000000 1.000000
f 517/517 518/518 519/519 520/520
v -0.297553 0.220451 -0.005000
v -0.300000 0.205000 -0.005000
v -0.300000 0.205000 0.035000
v -0.297553 0.220451 0.035000
vt 0.000000 1.000000
vt 0.000000 0.000000
vt 1.000000 0.000000
vt 1.000000 1.000000
f 521/521 522/522 523/523 524/524
v -0.300000 0.205000 -0.005000
v -0.300000 0.075000 -0.005000
v -0.300000 0.075000 0.035000
v -0.300000 0.205000 0.035000
vt 0.000000 1.000000
vt 0.000000 0.000000
vt 1.000000 0.000000
vt 1.000000 1.000000
f 525/525 526/526 527/527 528/528
v -0.300000 0.075000 -0.005000
v -0.297553 0.059549 -0.005000
v -0.297553 0.059549 0.035000
v -0.300000 0.075000 0.035000
vt 0.000000 1.000000
vt 0.000000 0.000000
vt 1.000000 0.000000
vt 1.000000 1.000000
f 529/529 530/530 531/531 532/532
v -0.297553 0.059549 -0.005000
v -0.290451 0.045611 -0.005000
v -0.290451 0.045611 0.035000
v -0.297553 0.059549 0.035000
vt 0.000000 1.000000
vt 0.000000 0.000000
vt 1.000000 0.000000
vt 1.000000 1.000000
f 533/533 534/534 535/535 536/536
v -0.290451 0.045611 -0.005000
v -0.279389 0.034549 -0.005000
v -0.279389 0.034549 0.035000
v -0.290451 0.045611 0.035000
vt 0.000000 1.000000
vt 0.000000 0.000000
vt 1.000000 0.000000
vt 1.000000 1.000000
f 537/537 538/538 539/539 540/540
v -0.279389 0.034549 -0.005000
v -0.265451 0.027447 -0.005000
v -0.265451 0.027447 0.035000
v -0.279389 0.034549 0.035000
vt 0.000000 0.000000
vt 1.000000 0.000000
vt 1.000000 1.000000
vt 0.000000 1.000000
f 541/541 542/542 543/543 544/544
v -0.265451 0.027447 -0.005000
v -0.250000 0.025000 -0.005000
v -0.250000 0.025000 0.035000
v -0.265451 0.027447 0.035000
vt 0.000000 0.000000
vt 1.000000 0.000000
vt 1.000000 1.000000
vt 0.000000 1.000000
f 545/545 546/546 547/547 548/548
v -0.250000 0.025000 -0.005000
v 0.250000 0.025000 -0.005000
v 0.250000 0.025000 0.035000
v -0.250000 0.025000 0.035000
vt 0.000000 0.000000
vt 1.000000 0.000000
vt 1.000000 1.000000
vt 0.000000 1.000000
f 549/549 550/550 551/551 552/552
v 0.250000 0.025000 -0.005000
v 0.265451 0.027447 -0.005000
v 0.265451 0.027447 0.035000
v 0.250000 0.025000 0.035000
vt 0.000000 0.000000
vt 1.000000 0.000000
vt 1.000000 1.000000
vt 0.000000 1.000000
f 553/553 554/554 555/555 556/556
v 0.265451 0.027447 -0.005000
v 0.279389 0.034549 -0.005000
v 0.279389 0.034549 0.035000
v 0.265451 0.027447 0.035000
vt 0.000000 0.000000
vt 1.000000 0.000000
vt 1.000000 1.000000
vt 0.000000 1.000000
f 557/557 558/558 559/559 560/560
v 0.279389 0.034549 -0.005000
v 0.290451 0.045611 -0.005000
v 0.290451 0.045611 0.035000
v 0.279389 0.034549 0.035000
vt 0.000000 0.000000
vt 0.000000 1.000000
vt 1.000000 1.000000
vt 1.000000 0.000000
f 561/561 562/562 563/563 564/564
v 0.290451 0.045611 -0.005000
v 0.297553 0.059549 -0.005000
v 0.297553 0.059549 0.035000
v 0.290451 0.045611 0.035000
vt 0.000000 0.000000
vt 0.000000 1.000000
vt 1.000000 1.000000
vt 1.000000 0.000000
f 565/565 566/566 567/567 568/568
v 0.297553 0.059549 -0.005000
v 0.300000 0.075000 -0.005000
v 0.300000 0.075000 0.035000
v 0.297553 0.059549 0.035000
vt 0.000000 0.000000
vt 0.000000 1.000000
vt 1.000000 1.000000
vt 1.000000 0.000000
f 569/569 570/570 571/571 572/572
v 0.300000 0.075000 -0.005000
v 0.300000 0.205000 -0.005000
v 0.300000 0.205000 0.035000
v 0.300000 0.075000 0.035000
vt 0.000000 0.000000
vt 0.000000 1.000000
vt 1.000000 1.000000
vt 1.000000 0.000000
f 573/573 574/574 575/575 576/576
v 0.300000 0.205000 0.035000
v 0.297553 0.220451 0.035000
v 0.273776 0.212725 0.060000
v 0.275000 0.205000 0.060000
vt 1.000000 0.000000
vt 0.906680 0.000000
vt 0.000000 1.000000
vt 0.046660 1.000000
f 577/577 578/578 579/579 580/580
v 0.297553 0.220451 0.035000
v 0.290451 0.234389 0.035000
v 0.270225 0.219695 0.060000
v 0.273776 0.212725 0.060000
vt 1.000000 0.000000
vt 0.740115 0.000000
vt 0.000000 1.000000
vt 0.129942 1.000000
f 581/581 582/582 583/583 584/584
v 0.290451 0.234389 0.035000
v 0.279389 0.245451 0.035000
v 0.264695 0.225225 0.060000
v 0.270225 0.219695 0.060000
vt 1.000000 0.570528
vt 0.570528 1.000000
vt 0.000000 0.214736
vt 0.214736 0.000000
f 585/585 586/586 587/587 588/588
v 0.279389 0.245451 0.035000
v 0.265451 0.252553 0.035000
v 0.257725 0.228776 0.060000
v 0.264695 0.225225 0.060000
vt 0.000000 0.740115
vt 0.000000 1.000000
vt 1.000000 0.129942
vt 1.000000 0.000000
f 589/589 590/590 591/591 592/592
v 0.265451 0.252553 0.035000
v 0.250000 0.255000 0.035000
v 0.250000 0.230000 0.060000
v 0.257725 0.228776 0.060000
vt 0.000000 0.906680
vt 0.000000 1.000000
vt 1.000000 0.046660
vt 1.000000 0.000000
f 593/593 594/594 595/595 596/596
v 0.250000 0.255000 0.035000
v -0.250000 0.255000 0.035000
v -0.250000 0.230000 0.060000
v 0.250000 0.230000 0.060000
vt 1.000000 0.000000
vt 0.000000 0.000000
vt 0.000000 1.000000
vt 1.000000 1.000000
f 597/597 598/598 599/599 600/600
v -0.250000 0.255000 0.035000
v -0.265451 0.252553 0.035000
v -0.257725 0.228776 0.060000
v -0.250000 0.230000 0.060000
vt 0.000000 1.000000
vt 0.000000 0.906680
vt 1.000000 0.000000
vt 1.000000 0.046660
f 601/601 602/602 603/603 604/604
v -0.265451 0.252553 0.035000
v -0.279389 0.245451 0.035000
v -0.264695 0.225225 0.060000
v -0.257725 0.228776 0.060000
vt 0.000000 1.000000
vt 0.000000 0.740115
vt 1.000000 0.000000
vt 1.000000 0.129942
f 605/605 606/606 607/607 608/608
v -0.279389 0.245451 0.035000
v -0.290451 0.234389 0.035000
v -0.270225 0.219695 0.060000
v -0.264695 0.225225 0.060000
vt 0.429472 1.000000
vt 0.000000 0.570528
vt 0.785264 0.000000
vt 1.000000 0.214736
f 609/609 610/610 611/611 612/612
v -0.290451 0.234389 0.035000
v -0.297553 0.220451 0.035000
v -0.273776 0.212725 0.060000
v -0.270225 0.219695 0.060000
vt 0.259885 0.000000
vt 0.000000 0.000000
vt 0.870058 1.000000
vt 1.000000 1.000000
f 613/613 614/614 615/615 616/616
v -0.297553 0.220451 0.035000
v -0.300000 0.205000 0.035000
v -0.275000 0.205000 0.060000
v -0.273776 0.212725 0.060000
vt 0.093320 0.000000
vt 0.000000 0.000000
vt 0.953340 1.000000
vt 1.000000 1.000000
f 617/617 618/618 619/619 620/620
v -0.300000 0.205000 0.035000
v -0.300000 0.075000 0.035000
v -0.275000 0.075000 0.060000
v -0.275000 0.205000 0.060000
vt 0.000000 1.000000
vt 0.000000 0.000000
vt 1.000000 0.000000
vt 1.000000 1.000000
f 621/621 622/622 623/623 624/624
v -0.300000 0.075000 0.035000
v -0.297553 0.059549 0.035000
v -0.273776 0.067275 0.060000
v -0.275000 0.075000 0.060000
vt 0.000000 0.000000
vt 0.093320 0.000000
vt 1.000000 1.000000
vt 0.953340 1.000000
f 625/625 626/626 627/627 628/628
v -0.297553 0.059549 0.035000
v -0.290451 0.045611 0.035000
v -0.270225 0.060305 0.060000
v -0.273776 0.067275 0.060000
vt 0.000000 0.000000
vt 0.259885 0.000000
vt 1.000000 1.000000
vt 0.870058 1.000000
f 629/629 630/630 631/631 632/632
v -0.290451 0.045611 0.035000
v -0.279389 0.034549 0.035000
v -0.264695 0.054775 0.060000
v -0.270225 0.060305 0.060000
vt 0.000000 0.429472
vt 0.429472 0.000000
vt 1.000000 0.785264
vt 0.785264 1.000000
f 633/633 634/634 635/635 636/636
v -0.279389 0.034549 0.035000
v -0.265451 0.027447 0.035000
v -0.257725 0.051224 0.060000
v -0.264695 0.054775 0.060000
vt 0.000000 0.259885
vt 0.000000 0.000000
vt 1.000000 0.870058
vt 1.000000 1.000000
f 637/637 638/638 639/639 640/640
v -0.265451 0.027447 0.035000
v -0.250000 0.025000 0.035000
v -0.250000 0.050000 0.060000
v -0.257725 0.051224 0.060000
vt 0.000000 0.093320
vt 0.000000 0.000000
vt 1.000000 0.953340
vt 1.000000 1.000000
f 641/641 642/642 643/643 644/644
v -0.250000 0.025000 0.035000
v 0.250000 0.025000 0.035000
v 0.250000 0.050000 0.060000
v -0.250000 0.050000 0.060000
vt 0.000000 0.000000
vt 1.000000 0.000000
vt 1.000000 1.000000
vt 0.000000 1.000000
f 645/645 646/646 647/647 648/648
v 0.250000 0.025000 0.035000
v 0.265451 0.027447 0.035000
v 0.257725 0.051224 0.060000
v 0.250000 0.050000 0.060000
vt 0.000000 0.000000
vt 0.000000 0.093320
vt 1.000000 1.000000
vt 1.000000 0.953340
f 649/649 650/650 651/651 652/652
v 0.265451 0.027447 0.035000
v 0.279389 0.034549 0.035000
v 0.264695 0.054775 0.060000
v 0.257725 0.051224 0.060000
vt 0.000000 0.000000
vt 0.000000 0.259885
vt 1.000000 1.000000
vt 1.000000 0.870058
f 653/653 654/654 655/655 656/656
v 0.279389 0.034549 0.035000
v 0.290451 0.045611 0.035000
v 0.270225 0.060305 0.060000
v 0.264695 0.054775 0.060000
vt 0.570528 0.000000
vt 1.000000 0.429472
vt 0.214736 1.000000
vt 0.000000 0.785264
f 657/657 658/658 659/659 660/660
v 0.290451 0.045611 0.035000
v 0.297553 0.059549 0.035000
v 0.273776 0.067275 0.060000
v 0.270225 0.060305 0.060000
vt 0.740115 0.000000
vt 1.000000 0.000000
vt 0.129942 1.000000
vt 0.000000 1.000000
f 661/661 662/662 663/663 664/664
v 0.297553 0.059549 0.035000
v 0.300000 0.075000 0.035000
v 0.275000 0.075000 0.060000
v 0.273776 0.067275 0.060000
vt 0.906680 0.000000
vt 1.000000 0.000000
vt 0.046660 1.000000
vt 0.000000 1.000000
f 665/665 666/666 667/667 668/668
v 0.300000 0.075000 0.035000
v 0.300000 0.205000 0.035000
v 0.275000 0.205000 0.060000
v 0.275000 0.075000 0.060000
vt 1.000000 0.000000
vt 1.000000 1.000000
vt 0.000000 1.000000
vt 0.000000 0.000000
f 669/669 670/670 671/671 672/672
g sign_recess
usemtl ivory_dark
v 0.274168 0.218253 -0.034000
v 0.275000 0.213000 -0.034000
v 0.260000 0.200000 -0.038000
v 0.259266 0.204635 -0.038000
vt 0.947119 1.000000
vt 1.000000 0.712200
vt 0.046660 0.000000
vt 0.000000 0.253941
f 673/673 674/674 675/675 676/676
v 0.271753 0.222992 -0.034000
v 0.274168 0.218253 -0.034000
v 0.259266 0.204635 -0.038000
v 0.257135 0.208817 -0.038000
vt 0.858233 1.000000
vt 1.000000 0.741840
vt 0.125088 0.000000
vt 0.000000 0.227788
f 677/677 678/678 679/679 680/680
v 0.267992 0.226753 -0.034000
v 0.271753 0.222992 -0.034000
v 0.257135 0.208817 -0.038000
v 0.253817 0.212135 -0.038000
vt 0.790319 1.000000
vt 1.000000 0.790319
vt 0.185012 0.000000
vt 0.000000 0.185012
f 681/681 682/682 683/683 684/684
v 0.263253 0.229168 -0.034000
v 0.267992 0.226753 -0.034000
v 0.253817 0.212135 -0.038000
v 0.249635 0.214266 -0.038000
vt 0.741840 1.000000
vt 1.000000 0.858233
vt 0.227788 0.000000
vt 0.000000 0.125088
f 685/685 686/686 687/687 688/688
v 0.258000 0.230000 -0.034000
v 0.263253 0.229168 -0.034000
v 0.249635 0.214266 -0.038000
v 0.245000 0.215000 -0.038000
vt 0.712200 1.000000
vt 1.000000 0.947119
vt 0.253941 0.000000
vt 0.000000 0.046660
f 689/689 690/690 691/691 692/692
v -0.258000 0.230000 -0.034000
v 0.258000 0.230000 -0.034000
v 0.245000 0.215000 -0.038000
v -0.245000 0.215000 -0.038000
vt 0.000000 1.000000
vt 1.000000 1.000000
vt 0.974806 0.000000
vt 0.025194 0.000000
f 693/693 694/694 695/695 696/696
v -0.263253 0.229168 -0.034000
v -0.258000 0.230000 -0.034000
v -0.245000 0.215000 -0.038000
v -0.249635 0.214266 -0.038000
vt 0.000000 0.947119
vt 0.287800 1.000000
vt 1.000000 0.046660
vt 0.746059 0.000000
f 697/697 698/698 699/699 700/700
v -0.267992 0.226753 -0.034000
v -0.263253 0.229168 -0.034000
v -0.249635 0.214266 -0.038000
v -0.253817 0.212135 -0.038000
vt 0.000000 0.858233
vt 0.258160 1.000000
vt 1.000000 0.125088
vt 0.772212 0.000000
f 701/701 702/702 703/703 704/704
v -0.271753 0.222992 -0.034000
v -0.267992 0.226753 -0.034000
v -0.253817 0.212135 -0.038000
v -0.257135 0.208817 -0.038000
vt 0.000000 0.790319
vt 0.209681 1.000000
vt 1.000000 0.185012
vt 0.814988 0.000000
f 705/705 706/706 707/707 708/708
v -0.274168 0.218253 -0.034000
v -0.271753 0.222992 -0.034000
v -0.257135 0.208817 -0.038000
v -0.259266 0.204635 -0.038000
vt 0.000000 0.741840
vt 0.141767 1.000000
vt 1.000000 0.227788
vt 0.874912 0.000000
f 709/709 710/710 711/711 712/712
v -0.275000 0.213000 -0.034000
v -0.274168 0.218253 -0.034000
v -0.259266 0.204635 -0.038000
v -0.260000 0.200000 -0.038000
vt 0.000000 0.712200
vt 0.052881 1.000000
vt 1.000000 0.253941
vt 0.953340 0.000000
f 713/713 714/714 715/715 716/716
v -0.275000 0.067000 -0.034000
v -0.275000 0.213000 -0.034000
v -0.260000 0.200000 -0.038000
v -0.260000 0.080000 -0.038000
vt 0.000000 0.000000
vt 0.000000 1.000000
vt 1.000000 0.910959
vt 1.000000 0.089041
f 717/717 718/718 719/719 720/720
v -0.274168 0.061747 -0.034000
v -0.275000 0.067000 -0.034000
v -0.260000 0.080000 -0.038000
v -0.259266 0.075365 -0.038000
vt 0.052881 0.000000
vt 0.000000 0.287800
vt 0.953340 1.000000
vt 1.000000 0.746059
f 721/721 722/722 723/723 724/724
v -0.271753 0.057008 -0.034000
v -0.274168 0.061747 -0.034000
v -0.259266 0.075365 -0.038000
v -0.257135 0.071183 -0.038000
vt 0.141767 0.000000
vt 0.000000 0.258160
vt 0.874912 1.000000
vt 1.000000 0.772212
f 725/725 726/726 727/727 728/728
v -0.267992 0.053247 -0.034000
v -0.271753 0.057008 -0.034000
v -0.257135 0.071183 -0.038000
v -0.253817 0.067865 -0.038000
vt 0.209681 0.000000
vt 0.000000 0.209681
vt 0.814988 1.000000
vt 1.000000 0.814988
f 729/729 730/730 731/731 732/732
v -0.263253 0.050832 -0.034000
v -0.267992 0.053247 -0.034000
v -0.253817 0.067865 -0.038000
v -0.249635 0.065734 -0.038000
vt 0.258160 0.000000
vt 0.000000 0.141767
vt 0.772212 1.000000
vt 1.000000 0.874912
f 733/733 734/734 735/735 736/736
v -0.258000 0.050000 -0.034000
v -0.263253 0.050832 -0.034000
v -0.249635 0.065734 -0.038000
v -0.245000 0.065000 -0.038000
vt 0.287800 0.000000
vt 0.000000 0.052881
vt 0.746059 1.000000
vt 1.000000 0.953340
f 737/737 738/738 739/739 740/740
v 0.258000 0.050000 -0.034000
v -0.258000 0.050000 -0.034000
v -0.245000 0.065000 -0.038000
v 0.245000 0.065000 -0.038000
vt 1.000000 0.000000
vt 0.000000 0.000000
vt 0.025194 1.000000
vt 0.974806 1.000000
f 741/741 742/742 743/743 744/744
v 0.263253 0.050832 -0.034000
v 0.258000 0.050000 -0.034000
v 0.245000 0.065000 -0.038000
v 0.249635 0.065734 -0.038000
vt 1.000000 0.052881
vt 0.712200 0.000000
vt 0.000000 0.953340
vt 0.253941 1.000000
f 745/745 746/746 747/747 748/748
v 0.267992 0.053247 -0.034000
v 0.263253 0.050832 -0.034000
v 0.249635 0.065734 -0.038000
v 0.253817 0.067865 -0.038000
vt 1.000000 0.141767
vt 0.741840 0.000000
vt 0.000000 0.874912
vt 0.227788 1.000000
f 749/749 750/750 751/751 752/752
v 0.271753 0.057008 -0.034000
v 0.267992 0.053247 -0.034000
v 0.253817 0.067865 -0.038000
v 0.257135 0.071183 -0.038000
vt 1.000000 0.209681
vt 0.790319 0.000000
vt 0.000000 0.814988
vt 0.185012 1.000000
f 753/753 754/754 755/755 756/756
v 0.274168 0.061747 -0.034000
v 0.271753 0.057008 -0.034000
v 0.257135 0.071183 -0.038000
v 0.259266 0.075365 -0.038000
vt 1.000000 0.258160
vt 0.858233 0.000000
vt 0.000000 0.772212
vt 0.125088 1.000000
f 757/757 758/758 759/759 760/760
v 0.275000 0.067000 -0.034000
v 0.274168 0.061747 -0.034000
v 0.259266 0.075365 -0.038000
v 0.260000 0.080000 -0.038000
vt 1.000000 0.287800
vt 0.947119 0.000000
vt 0.000000 0.746059
vt 0.046660 1.000000
f 761/761 762/762 763/763 764/764
v 0.275000 0.213000 -0.034000
v 0.275000 0.067000 -0.034000
v 0.260000 0.080000 -0.038000
v 0.260000 0.200000 -0.038000
vt 1.000000 1.000000
vt 1.000000 0.000000
vt 0.000000 0.089041
vt 0.000000 0.910959
f 765/765 766/766 767/767 768/768
g runtime_next
usemtl teal
v 0.260000 0.080000 -0.040000
v 0.259266 0.075365 -0.040000
v 0.257135 0.071183 -0.040000
v 0.253817 0.067865 -0.040000
v 0.249635 0.065734 -0.040000
v 0.245000 0.065000 -0.040000
v -0.245000 0.065000 -0.040000
v -0.249635 0.065734 -0.040000
v -0.253817 0.067865 -0.040000
v -0.257135 0.071183 -0.040000
v -0.259266 0.075365 -0.040000
v -0.260000 0.080000 -0.040000
v -0.260000 0.200000 -0.040000
v -0.259266 0.204635 -0.040000
v -0.257135 0.208817 -0.040000
v -0.253817 0.212135 -0.040000
v -0.249635 0.214266 -0.040000
v -0.245000 0.215000 -0.040000
v 0.245000 0.215000 -0.040000
v 0.249635 0.214266 -0.040000
v 0.253817 0.212135 -0.040000
v 0.257135 0.208817 -0.040000
v 0.259266 0.204635 -0.040000
v 0.260000 0.200000 -0.040000
vt 1.000000 0.100000
vt 0.998588 0.069098
vt 0.994491 0.041221
vt 0.988109 0.019098
vt 0.980068 0.004894
vt 0.971154 0.000000
vt 0.028846 0.000000
vt 0.019932 0.004894
vt 0.011891 0.019098
vt 0.005509 0.041221
vt 0.001412 0.069098
vt 0.000000 0.100000
vt 0.000000 0.900000
vt 0.001412 0.930902
vt 0.005509 0.958779
vt 0.011891 0.980902
vt 0.019932 0.995106
vt 0.028846 1.000000
vt 0.971154 1.000000
vt 0.980068 0.995106
vt 0.988109 0.980902
vt 0.994491 0.958779
vt 0.998588 0.930902
vt 1.000000 0.900000
f 769/769 770/770 771/771 772/772 773/773 774/774 775/775 776/776 777/777 778/778 779/779 780/780 781/781 782/782 783/783 784/784 785/785 786/786 787/787 788/788 789/789 790/790 791/791 792/792
g sign_screws
usemtl brass
v -0.270050 0.135050 -0.036000
v -0.275000 0.133000 -0.036000
v -0.279950 0.135050 -0.036000
v -0.282000 0.140000 -0.036000
v -0.279950 0.144950 -0.036000
v -0.275000 0.147000 -0.036000
v -0.270050 0.144950 -0.036000
v -0.268000 0.140000 -0.036000
vt 0.853553 0.146447
vt 0.500000 0.000000
vt 0.146447 0.146447
vt 0.000000 0.500000
vt 0.146447 0.853553
vt 0.500000 1.000000
vt 0.853553 0.853553
vt 1.000000 0.500000
f 793/793 794/794 795/795 796/796 797/797 798/798 799/799 800/800
v -0.268000 0.140000 -0.030000
v -0.270050 0.144950 -0.030000
v -0.275000 0.147000 -0.030000
v -0.279950 0.144950 -0.030000
v -0.282000 0.140000 -0.030000
v -0.279950 0.135050 -0.030000
v -0.275000 0.133000 -0.030000
v -0.270050 0.135050 -0.030000
vt 1.000000 0.500000
vt 0.853553 0.853553
vt 0.500000 1.000000
vt 0.146447 0.853553
vt 0.000000 0.500000
vt 0.146447 0.146447
vt 0.500000 0.000000
vt 0.853553 0.146447
f 801/801 802/802 803/803 804/804 805/805 806/806 807/807 808/808
v -0.268000 0.140000 -0.036000
v -0.270050 0.144950 -0.036000
v -0.270050 0.144950 -0.030000
v -0.268000 0.140000 -0.030000
vt 0.000000 0.000000
vt 0.000000 1.000000
vt 1.000000 1.000000
vt 1.000000 0.000000
f 809/809 810/810 811/811 812/812
v -0.270050 0.144950 -0.036000
v -0.275000 0.147000 -0.036000
v -0.275000 0.147000 -0.030000
v -0.270050 0.144950 -0.030000
vt 1.000000 0.000000
vt 0.000000 0.000000
vt 0.000000 1.000000
vt 1.000000 1.000000
f 813/813 814/814 815/815 816/816
v -0.275000 0.147000 -0.036000
v -0.279950 0.144950 -0.036000
v -0.279950 0.144950 -0.030000
v -0.275000 0.147000 -0.030000
vt 1.000000 0.000000
vt 0.000000 0.000000
vt 0.000000 1.000000
vt 1.000000 1.000000
f 817/817 818/818 819/819 820/820
v -0.279950 0.144950 -0.036000
v -0.282000 0.140000 -0.036000
v -0.282000 0.140000 -0.030000
v -0.279950 0.144950 -0.030000
vt 0.000000 1.000000
vt 0.000000 0.000000
vt 1.000000 0.000000
vt 1.000000 1.000000
f 821/821 822/822 823/823 824/824
v -0.282000 0.140000 -0.036000
v -0.279950 0.135050 -0.036000
v -0.279950 0.135050 -0.030000
v -0.282000 0.140000 -0.030000
vt 0.000000 1.000000
vt 0.000000 0.000000
vt 1.000000 0.000000
vt 1.000000 1.000000
f 825/825 826/826 827/827 828/828
v -0.279950 0.135050 -0.036000
v -0.275000 0.133000 -0.036000
v -0.275000 0.133000 -0.030000
v -0.279950 0.135050 -0.030000
vt 0.000000 0.000000
vt 1.000000 0.000000
vt 1.000000 1.000000
vt 0.000000 1.000000
f 829/829 830/830 831/831 832/832
v -0.275000 0.133000 -0.036000
v -0.270050 0.135050 -0.036000
v -0.270050 0.135050 -0.030000
v -0.275000 0.133000 -0.030000
vt 0.000000 0.000000
vt 1.000000 0.000000
vt 1.000000 1.000000
vt 0.000000 1.000000
f 833/833 834/834 835/835 836/836
v -0.270050 0.135050 -0.036000
v -0.268000 0.140000 -0.036000
v -0.268000 0.140000 -0.030000
v -0.270050 0.135050 -0.030000
vt 0.000000 0.000000
vt 0.000000 1.000000
vt 1.000000 1.000000
vt 1.000000 0.000000
f 837/837 838/838 839/839 840/840
v 0.279950 0.135050 -0.036000
v 0.275000 0.133000 -0.036000
v 0.270050 0.135050 -0.036000
v 0.268000 0.140000 -0.036000
v 0.270050 0.144950 -0.036000
v 0.275000 0.147000 -0.036000
v 0.279950 0.144950 -0.036000
v 0.282000 0.140000 -0.036000
vt 0.853553 0.146447
vt 0.500000 0.000000
vt 0.146447 0.146447
vt 0.000000 0.500000
vt 0.146447 0.853553
vt 0.500000 1.000000
vt 0.853553 0.853553
vt 1.000000 0.500000
f 841/841 842/842 843/843 844/844 845/845 846/846 847/847 848/848
v 0.282000 0.140000 -0.030000
v 0.279950 0.144950 -0.030000
v 0.275000 0.147000 -0.030000
v 0.270050 0.144950 -0.030000
v 0.268000 0.140000 -0.030000
v 0.270050 0.135050 -0.030000
v 0.275000 0.133000 -0.030000
v 0.279950 0.135050 -0.030000
vt 1.000000 0.500000
vt 0.853553 0.853553
vt 0.500000 1.000000
vt 0.146447 0.853553
vt 0.000000 0.500000
vt 0.146447 0.146447
vt 0.500000 0.000000
vt 0.853553 0.146447
f 849/849 850/850 851/851 852/852 853/853 854/854 855/855 856/856
v 0.282000 0.140000 -0.036000
v 0.279950 0.144950 -0.036000
v 0.279950 0.144950 -0.030000
v 0.282000 0.140000 -0.030000
vt 0.000000 0.000000
vt 0.000000 1.000000
vt 1.000000 1.000000
vt 1.000000 0.000000
f 857/857 858/858 859/859 860/860
v 0.279950 0.144950 -0.036000
v 0.275000 0.147000 -0.036000
v 0.275000 0.147000 -0.030000
v 0.279950 0.144950 -0.030000
vt 1.000000 0.000000
vt 0.000000 0.000000
vt 0.000000 1.000000
vt 1.000000 1.000000
f 861/861 862/862 863/863 864/864
v 0.275000 0.147000 -0.036000
v 0.270050 0.144950 -0.036000
v 0.270050 0.144950 -0.030000
v 0.275000 0.147000 -0.030000
vt 1.000000 0.000000
vt 0.000000 0.000000
vt 0.000000 1.000000
vt 1.000000 1.000000
f 865/865 866/866 867/867 868/868
v 0.270050 0.144950 -0.036000
v 0.268000 0.140000 -0.036000
v 0.268000 0.140000 -0.030000
v 0.270050 0.144950 -0.030000
vt 0.000000 1.000000
vt 0.000000 0.000000
vt 1.000000 0.000000
vt 1.000000 1.000000
f 869/869 870/870 871/871 872/872
v 0.268000 0.140000 -0.036000
v 0.270050 0.135050 -0.036000
v 0.270050 0.135050 -0.030000
v 0.268000 0.140000 -0.030000
vt 0.000000 1.000000
vt 0.000000 0.000000
vt 1.000000 0.000000
vt 1.000000 1.000000
f 873/873 874/874 875/875 876/876
v 0.270050 0.135050 -0.036000
v 0.275000 0.133000 -0.036000
v 0.275000 0.133000 -0.030000
v 0.270050 0.135050 -0.030000
vt 0.000000 0.000000
vt 1.000000 0.000000
vt 1.000000 1.000000
vt 0.000000 1.000000
f 877/877 878/878 879/879 880/880
v 0.275000 0.133000 -0.036000
v 0.279950 0.135050 -0.036000
v 0.279950 0.135050 -0.030000
v 0.275000 0.133000 -0.030000
vt 0.000000 0.000000
vt 1.000000 0.000000
vt 1.000000 1.000000
vt 0.000000 1.000000
f 881/881 882/882 883/883 884/884
v 0.279950 0.135050 -0.036000
v 0.282000 0.140000 -0.036000
v 0.282000 0.140000 -0.030000
v 0.279950 0.135050 -0.030000
vt 0.000000 0.000000
vt 0.000000 1.000000
vt 1.000000 1.000000
vt 1.000000 0.000000
f 885/885 886/886 887/887 888/888
