# Time Sorter editable base mesh; metres, Y-up
mtllib palette.mtl
g top_crossbar
usemtl metal
v -0.925000 -0.060000 -0.060000
v -0.925000 0.060000 -0.060000
v 0.925000 0.060000 -0.060000
v 0.925000 -0.060000 -0.060000
vt 0.000000 0.000000
vt 0.000000 1.000000
vt 1.000000 1.000000
vt 1.000000 0.000000
f 1/1 2/2 3/3 4/4
v -0.925000 -0.060000 0.060000
v 0.925000 -0.060000 0.060000
v 0.925000 0.060000 0.060000
v -0.925000 0.060000 0.060000
vt 0.000000 0.000000
vt 1.000000 0.000000
vt 1.000000 1.000000
vt 0.000000 1.000000
f 5/5 6/6 7/7 8/8
v -0.925000 -0.060000 -0.060000
v -0.925000 -0.060000 0.060000
v -0.925000 0.060000 0.060000
v -0.925000 0.060000 -0.060000
vt 0.000000 0.000000
vt 1.000000 0.000000
vt 1.000000 1.000000
vt 0.000000 1.000000
f 9/9 10/10 11/11 12/12
v 0.925000 -0.060000 -0.060000
v 0.925000 0.060000 -0.060000
v 0.925000 0.060000 0.060000
v 0.925000 -0.060000 0.060000
vt 0.000000 0.000000
vt 0.000000 1.000000
vt 1.000000 1.000000
vt 1.000000 0.000000
f 13/13 14/14 15/15 16/16
v -0.925000 -0.060000 -0.060000
v 0.925000 -0.060000 -0.060000
v 0.925000 -0.060000 0.060000
v -0.925000 -0.060000 0.060000
vt 0.000000 0.000000
vt 1.000000 0.000000
vt 1.000000 1.000000
vt 0.000000 1.000000
f 17/17 18/18 19/19 20/20
v -0.925000 0.060000 -0.060000
v -0.925000 0.060000 0.060000
v 0.925000 0.060000 0.060000
v 0.925000 0.060000 -0.060000
vt 0.000000 0.000000
vt 0.000000 1.000000
vt 1.000000 1.000000
vt 1.000000 0.000000
f 21/21 22/22 23/23 24/24
g cloth_blank
usemtl teal
v -0.825000 -4.550000 -0.012500
v -0.825000 -0.050000 -0.012500
v 0.825000 -0.050000 -0.012500
v 0.825000 -4.550000 -0.012500
vt 0.000000 0.000000
vt 0.000000 1.000000
vt 1.000000 1.000000
vt 1.000000 0.000000
f 25/25 26/26 27/27 28/28
v -0.825000 -4.550000 0.012500
v 0.825000 -4.550000 0.012500
v 0.825000 -0.050000 0.012500
v -0.825000 -0.050000 0.012500
vt 0.000000 0.000000
vt 1.000000 0.000000
vt 1.000000 1.000000
vt 0.000000 1.000000
f 29/29 30/30 31/31 32/32
v -0.825000 -4.550000 -0.012500
v -0.825000 -4.550000 0.012500
v -0.825000 -0.050000 0.012500
v -0.825000 -0.050000 -0.012500
vt 0.000000 0.000000
vt 1.000000 0.000000
vt 1.000000 1.000000
vt 0.000000 1.000000
f 33/33 34/34 35/35 36/36
v 0.825000 -4.550000 -0.012500
v 0.825000 -0.050000 -0.012500
v 0.825000 -0.050000 0.012500
v 0.825000 -4.550000 0.012500
vt 0.000000 0.000000
vt 0.000000 1.000000
vt 1.000000 1.000000
vt 1.000000 0.000000
f 37/37 38/38 39/39 40/40
v -0.825000 -4.550000 -0.012500
v 0.825000 -4.550000 -0.012500
v 0.825000 -4.550000 0.012500
v -0.825000 -4.550000 0.012500
vt 0.000000 0.000000
vt 1.000000 0.000000
vt 1.000000 1.000000
vt 0.000000 1.000000
f 41/41 42/42 43/43 44/44
v -0.825000 -0.050000 -0.012500
v -0.825000 -0.050000 0.012500
v 0.825000 -0.050000 0.012500
v 0.825000 -0.050000 -0.012500
vt 0.000000 0.000000
vt 0.000000 1.000000
vt 1.000000 1.000000
vt 1.000000 0.000000
f 45/45 46/46 47/47 48/48
g bottom_hem
usemtl metal
v -0.860000 -4.595000 -0.035000
v -0.860000 -4.525000 -0.035000
v 0.860000 -4.525000 -0.035000
v 0.860000 -4.595000 -0.035000
vt 0.000000 0.000000
vt 0.000000 1.000000
vt 1.000000 1.000000
vt 1.000000 0.000000
f 49/49 50/50 51/51 52/52
v -0.860000 -4.595000 0.035000
v 0.860000 -4.595000 0.035000
v 0.860000 -4.525000 0.035000
v -0.860000 -4.525000 0.035000
vt 0.000000 0.000000
vt 1.000000 0.000000
vt 1.000000 1.000000
vt 0.000000 1.000000
f 53/53 54/54 55/55 56/56
v -0.860000 -4.595000 -0.035000
v -0.860000 -4.595000 0.035000
v -0.860000 -4.525000 0.035000
v -0.860000 -4.525000 -0.035000
vt 0.000000 0.000000
vt 1.000000 0.000000
vt 1.000000 1.000000
vt 0.000000 1.000000
f 57/57 58/58 59/59 60/60
v 0.860000 -4.595000 -0.035000
v 0.860000 -4.525000 -0.035000
v 0.860000 -4.525000 0.035000
v 0.860000 -4.595000 0.035000
vt 0.000000 0.000000
vt 0.000000 1.000000
vt 1.000000 1.000000
vt 1.000000 0.000000
f 61/61 62/62 63/63 64/64
v -0.860000 -4.595000 -0.035000
v 0.860000 -4.595000 -0.035000
v 0.860000 -4.595000 0.035000
v -0.860000 -4.595000 0.035000
vt 0.000000 0.000000
vt 1.000000 0.000000
vt 1.000000 1.000000
vt 0.000000 1.000000
f 65/65 66/66 67/67 68/68
v -0.860000 -4.525000 -0.035000
v -0.860000 -4.525000 0.035000
v 0.860000 -4.525000 0.035000
v 0.860000 -4.525000 -0.035000
vt 0.000000 0.000000
vt 0.000000 1.000000
vt 1.000000 1.000000
vt 1.000000 0.000000
f 69/69 70/70 71/71 72/72
g ceiling_suspension
usemtl metal
v -0.632000 0.000000 0.000000
v -0.641000 0.000000 0.015588
v -0.659000 0.000000 0.015588
v -0.668000 0.000000 0.000000
v -0.659000 0.000000 -0.015588
v -0.641000 0.000000 -0.015588
vt 1.000000 0.500000
vt 0.750000 1.000000
vt 0.250000 1.000000
vt 0.000000 0.500000
vt 0.250000 0.000000
vt 0.750000 0.000000
f 73/73 74/74 75/75 76/76 77/77 78/78
v -0.641000 1.800000 -0.015588
v -0.659000 1.800000 -0.015588
v -0.668000 1.800000 0.000000
v -0.659000 1.800000 0.015588
v -0.641000 1.800000 0.015588
v -0.632000 1.800000 0.000000
vt 0.750000 0.000000
vt 0.250000 0.000000
vt 0.000000 0.500000
vt 0.250000 1.000000
vt 0.750000 1.000000
vt 1.000000 0.500000
f 79/79 80/80 81/81 82/82 83/83 84/84
v -0.632000 0.000000 0.000000
v -0.632000 1.800000 0.000000
v -0.641000 1.800000 0.015588
v -0.641000 0.000000 0.015588
vt 0.000000 0.000000
vt 0.000000 1.000000
vt 1.000000 1.000000
vt 1.000000 0.000000
f 85/85 86/86 87/87 88/88
v -0.641000 0.000000 0.015588
v -0.641000 1.800000 0.015588
v -0.659000 1.800000 0.015588
v -0.659000 0.000000 0.015588
vt 1.000000 0.000000
vt 1.000000 1.000000
vt 0.000000 1.000000
vt 0.000000 0.000000
f 89/89 90/90 91/91 92/92
v -0.659000 0.000000 0.015588
v -0.659000 1.800000 0.015588
v -0.668000 1.800000 0.000000
v -0.668000 0.000000 0.000000
vt 1.000000 0.000000
vt 1.000000 1.000000
vt 0.000000 1.000000
vt 0.000000 0.000000
f 93/93 94/94 95/95 96/96
v -0.668000 0.000000 0.000000
v -0.668000 1.800000 0.000000
v -0.659000 1.800000 -0.015588
v -0.659000 0.000000 -0.015588
vt 1.000000 0.000000
vt 1.000000 1.000000
vt 0.000000 1.000000
vt 0.000000 0.000000
f 97/97 98/98 99/99 100/100
v -0.659000 0.000000 -0.015588
v -0.659000 1.800000 -0.015588
v -0.641000 1.800000 -0.015588
v -0.641000 0.000000 -0.015588
vt 0.000000 0.000000
vt 0.000000 1.000000
vt 1.000000 1.000000
vt 1.000000 0.000000
f 101/101 102/102 103/103 104/104
v -0.641000 0.000000 -0.015588
v -0.641000 1.800000 -0.015588
v -0.632000 1.800000 0.000000
v -0.632000 0.000000 0.000000
vt 0.000000 0.000000
vt 0.000000 1.000000
vt 1.000000 1.000000
vt 1.000000 0.000000
f 105/105 106/106 107/107 108/108
v 0.668000 0.000000 0.000000
v 0.659000 0.000000 0.015588
v 0.641000 0.000000 0.015588
v 0.632000 0.000000 0.000000
v 0.641000 0.000000 -0.015588
v 0.659000 0.000000 -0.015588
vt 1.000000 0.500000
vt 0.750000 1.000000
vt 0.250000 1.000000
vt 0.000000 0.500000
vt 0.250000 0.000000
vt 0.750000 0.000000
f 109/109 110/110 111/111 112/112 113/113 114/114
v 0.659000 1.800000 -0.015588
v 0.641000 1.800000 -0.015588
v 0.632000 1.800000 0.000000
v 0.641000 1.800000 0.015588
v 0.659000 1.800000 0.015588
v 0.668000 1.800000 0.000000
vt 0.750000 0.000000
vt 0.250000 0.000000
vt 0.000000 0.500000
vt 0.250000 1.000000
vt 0.750000 1.000000
vt 1.000000 0.500000
f 115/115 116/116 117/117 118/118 119/119 120/120
v 0.668000 0.000000 0.000000
v 0.668000 1.800000 0.000000
v 0.659000 1.800000 0.015588
v 0.659000 0.000000 0.015588
vt 0.000000 0.000000
vt 0.000000 1.000000
vt 1.000000 1.000000
vt 1.000000 0.000000
f 121/121 122/122 123/123 124/124
v 0.659000 0.000000 0.015588
v 0.659000 1.800000 0.015588
v 0.641000 1.800000 0.015588
v 0.641000 0.000000 0.015588
vt 1.000000 0.000000
vt 1.000000 1.000000
vt 0.000000 1.000000
vt 0.000000 0.000000
f 125/125 126/126 127/127 128/128
v 0.641000 0.000000 0.015588
v 0.641000 1.800000 0.015588
v 0.632000 1.800000 0.000000
v 0.632000 0.000000 0.000000
vt 1.000000 0.000000
vt 1.000000 1.000000
vt 0.000000 1.000000
vt 0.000000 0.000000
f 129/129 130/130 131/131 132/132
v 0.632000 0.000000 0.000000
v 0.632000 1.800000 0.000000
v 0.641000 1.800000 -0.015588
v 0.641000 0.000000 -0.015588
vt 1.000000 0.000000
vt 1.000000 1.000000
vt 0.000000 1.000000
vt 0.000000 0.000000
f 133/133 134/134 135/135 136/136
v 0.641000 0.000000 -0.015588
v 0.641000 1.800000 -0.015588
v 0.659000 1.800000 -0.015588
v 0.659000 0.000000 -0.015588
vt 0.000000 0.000000
vt 0.000000 1.000000
vt 1.000000 1.000000
vt 1.000000 0.000000
f 137/137 138/138 139/139 140/140
v 0.659000 0.000000 -0.015588
v 0.659000 1.800000 -0.015588
v 0.668000 1.800000 0.000000
v 0.668000 0.000000 0.000000
vt 0.000000 0.000000
vt 0.000000 1.000000
vt 1.000000 1.000000
vt 1.000000 0.000000
f 141/141 142/142 143/143 144/144
