<svg xmlns="http://www.w3.org/2000/svg" width="256" height="256" viewBox="0 0 256 256"><ellipse cx="128.0" cy="128.0" rx="110.08" ry="110.08" fill="#f4eddb" stroke="#9a5f67" stroke-width="6.4"/><ellipse cx="128.0" cy="128.0" rx="97.28" ry="97.28" fill="none" stroke="#9a5f67" stroke-width="2.048"/><rect x="94.72" y="94.72" width="66.56" height="66.56" rx="4.6592" fill="#f4eddb" stroke="#9a5f67" stroke-width="4.6592"/><rect x="110.6944" y="110.6944" width="34.611200000000004" height="34.611200000000004" rx="4.6592" fill="none" stroke="#9a5f67" stroke-width="4.6592"/><polyline points="108.032,74.752 108.032,92.05760000000001" fill="none" stroke="#9a5f67" stroke-width="7.3216" stroke-linecap="round" stroke-linejoin="round"/><polyline points="108.032,163.94240000000002 108.032,181.248" fill="none" stroke="#9a5f67" stroke-width="7.3216" stroke-linecap="round" stroke-linejoin="round"/><polyline points="74.752,108.032 92.05760000000001,108.032" fill="none" stroke="#9a5f67" stroke-width="7.3216" stroke-linecap="round" stroke-linejoin="round"/><polyline points="163.94240000000002,108.032 181.248,108.032" fill="none" stroke="#9a5f67" stroke-width="7.3216" stroke-linecap="round" stroke-linejoin="round"/><polyline points="128.0,74.752 128.0,92.05760000000001" fill="none" stroke="#9a5f67" stroke-width="7.3216" stroke-linecap="round" stroke-linejoin="round"/><polyline points="128.0,163.94240000000002 128.0,181.248" fill="none" stroke="#9a5f67" stroke-width="7.3216" stroke-linecap="round" stroke-linejoin="round"/><polyline points="74.752,128.0 92.05760000000001,128.0" fill="none" stroke="#9a5f67" stroke-width="7.3216" stroke-linecap="round" stroke-linejoin="round"/><polyline points="163.94240000000002,128.0 181.248,128.0" fill="none" stroke="#9a5f67" stroke-width="7.3216" stroke-linecap="round" stroke-linejoin="round"/><polyline points="147.96800000000002,74.752 147.96800000000002,92.05760000000001" fill="none" stroke="#9a5f67" stroke-width="7.3216" stroke-linecap="round" stroke-linejoin="round"/><polyline points="147.96800000000002,163.94240000000002 147.96800000000002,181.248" fill="none" stroke="#9a5f67" stroke-width="7.3216" stroke-linecap="round" stroke-linejoin="round"/><polyline points="74.752,147.96800000000002 92.05760000000001,147.96800000000002" fill="none" stroke="#9a5f67" stroke-width="7.3216" stroke-linecap="round" stroke-linejoin="round"/><polyline points="163.94240000000002,147.96800000000002 181.248,147.96800000000002" fill="none" stroke="#9a5f67" stroke-width="7.3216" stroke-linecap="round" stroke-linejoin="round"/></svg>